<?xml version="1.0" encoding="utf-8"?>
<!-- Generator: Adobe Illustrator 22.0.1, SVG Export Plug-In . SVG Version: 6.00 Build 0)  -->
<svg version="1.1" id="Layer_1" xmlns="http://www.w3.org/2000/svg" xmlns:xlink="http://www.w3.org/1999/xlink" x="0px" y="0px"
	 viewBox="0 0 376 545.1" style="enable-background:new 0 0 376 545.1;" xml:space="preserve">
<style type="text/css">
	.st0{fill:none;stroke:#FEFEFE;stroke-width:0.4252;stroke-linecap:round;stroke-linejoin:round;stroke-miterlimit:10;}
	.st1{fill:none;stroke:#FFFFFF;stroke-width:1.5;stroke-linecap:round;stroke-linejoin:round;stroke-miterlimit:10;}
</style>
<g>
	<g id="LINE_59_">
		<line class="st0" x1="270.5" y1="434.9" x2="261.6" y2="436.5"/>
	</g>
	<g id="LINE_60_">
		<line class="st0" x1="266.5" y1="464.4" x2="275.4" y2="462.8"/>
	</g>
	<g id="SPLINE">
		<path class="st0" d="M280.5,447c-0.3-1.4-0.6-2.7-1-4c-0.3-1.1-0.7-2.1-1.2-3c-0.4-0.7-0.7-1.4-1.2-2c-0.3-0.4-0.6-0.8-1-1.2
			c-0.2-0.2-0.5-0.5-0.8-0.7c-0.3-0.3-0.7-0.5-1.1-0.7c-0.5-0.3-1.1-0.4-1.6-0.5c-0.7-0.1-1.4,0-2.1,0"/>
	</g>
	<g id="SPLINE_1_">
		<path class="st0" d="M275.3,462.8c0.7-0.2,1.5-0.4,2.1-0.7c0.5-0.3,1-0.7,1.4-1.1c0.3-0.3,0.6-0.7,0.8-1.1c0.2-0.3,0.4-0.6,0.5-1
			c0.2-0.5,0.4-1,0.5-1.6c0.2-0.8,0.3-1.6,0.4-2.5c0.1-1.1,0.1-2.3,0-3.5c0-0.7-0.1-1.4-0.2-2.1c-0.1-0.8-0.2-1.5-0.4-2.3"/>
	</g>
	<g id="SPLINE_2_">
		<path class="st0" d="M244.5,541.8c0.7-0.2,1.5-0.3,2.2-0.5c1.4-0.3,2.8-0.7,4.2-1.1c1.7-0.5,3.3-1,5-1.5"/>
	</g>
	<g id="SPLINE_3_">
		<path class="st0" d="M304.6,71.3c-0.3-0.4-0.5-0.8-0.8-1.2c-2.6-3.8-5.3-7.5-8-11.2c-2.8-3.7-5.6-7.3-8.4-10.9
			c-2.9-3.6-5.8-7.1-8.8-10.6c-3-3.5-6-7-9.2-10.3c-1-1.1-2.1-2.2-3.1-3.3"/>
	</g>
	<g id="SPLINE_4_">
		<path class="st0" d="M349.5,437.6c0.1-0.2,0.1-0.3,0.2-0.5c1.6-4,2.9-8,4.3-12.1c1.3-4.1,2.7-8.1,3.9-12.2
			c1.2-4.1,2.4-8.2,3.5-12.4c1.1-4.1,2.2-8.3,3.1-12.5c0.7-3,1.3-6.1,1.9-9.1"/>
	</g>
	<g id="LINE_61_">
		<line class="st0" x1="234.1" y1="501" x2="233.5" y2="501.2"/>
	</g>
	<g id="SPLINE_5_">
		<path class="st0" d="M266.4,535.1c1.8-0.8,3.5-1.5,5.3-2.3c1.6-0.7,3.1-1.5,4.6-2.3c1.3-0.7,2.7-1.4,4-2.2c1.1-0.7,2.2-1.3,3.3-2
			c0.9-0.6,1.8-1.2,2.7-1.8c0.8-0.5,1.5-1,2.3-1.6c1.2-0.9,2.4-1.7,3.6-2.6c1.2-0.9,2.4-1.9,3.7-2.9c1.2-1,2.4-2,3.6-3
			c1.1-1,2.3-2,3.4-3c1-1,2-1.9,3-2.9c1.1-1.1,2.3-2.3,3.4-3.4c1.3-1.3,2.5-2.7,3.7-4.1c1.2-1.4,2.4-2.8,3.6-4.3
			c1.6-2,3.2-4.1,4.8-6.2c1.5-2.1,3-4.2,4.5-6.3c1.5-2.2,2.9-4.4,4.3-6.6c1.4-2.3,2.8-4.6,4.1-7c1.4-2.4,2.7-4.9,4-7.4
			c1.3-2.6,2.7-5.2,3.9-8c0.3-0.7,0.6-1.4,0.9-2.1"/>
	</g>
	<g id="SPLINE_6_">
		<path class="st0" d="M266.2,23.6c-1.6-1.7-3.2-3.3-4.8-4.9c-1.6-1.6-3.1-3.1-4.7-4.6"/>
	</g>
	<g id="SPLINE_7_">
		<path class="st0" d="M244.9,95.8c2.9,4.6,5.8,9.1,8.5,13.9c3.2,5.5,6.3,11.2,9.2,17.1c2.9,5.9,5.8,11.8,8.5,18
			c2.7,6.1,5.3,12.4,7.7,18.7c2.4,6.4,4.7,12.8,6.8,19.3c2.1,6.5,4.1,13.2,6,19.9c1.8,6.7,3.5,13.4,5,20.2
			c1.5,6.8,2.9,13.6,4.1,20.5c1.2,6.9,2.2,13.7,3.1,20.6c0.9,6.9,1.6,13.8,2.1,20.6c0.5,6.9,0.9,13.7,1.1,20.5
			c0.2,6.8,0.2,13.5,0.1,20.2c-0.1,6.7-0.4,13.3-0.9,19.8c-0.5,6.5-1.1,12.9-1.9,19.3c-0.8,6.3-1.7,12.6-2.9,18.6
			c-0.7,3.7-1.6,7.3-2.4,10.9"/>
	</g>
	<g id="SPLINE_8_">
		<path class="st0" d="M197.4,428.6c1.3,3.2,2.6,6.4,3.9,9.5c2.7,6.6,5.4,13.2,8.1,19.8c2.8,6.8,5.6,13.7,8.3,20.6
			c2.9,7.1,5.7,14.1,8.6,21.2c0.5,1.3,1.1,2.6,1.6,3.9"/>
	</g>
	<g id="SPLINE_9_">
		<path class="st0" d="M75.8,234.4c0.7,0.3,1.4,0.6,2.1,0.9c1.9,0.8,3.7,1.7,5.5,2.6c0.9,0.4,1.8,0.9,2.6,1.3"/>
	</g>
	<g id="SPLINE_10_">
		<path class="st0" d="M278.5,437.7c-0.8-4.1-1.5-8.2-2.3-12.2c-1.3-6.8-2.6-13.7-4-20.5c-1.3-6.3-2.6-12.7-4-19
			c-1.3-5.8-2.5-11.5-3.9-17.2c-1.2-5.3-2.5-10.6-3.8-15.8c-1.2-4.8-2.4-9.7-3.7-14.5c-1.2-4.4-2.3-8.9-3.5-13.3
			c-1.3-4.9-2.7-9.7-4.1-14.5c-1.3-4.5-2.6-8.9-4-13.3c-1.3-4.1-2.6-8.2-4-12.2c-1.3-3.8-2.6-7.5-4-11.2c-1.3-3.5-2.6-6.9-4-10.4
			c-1.3-3.2-2.6-6.4-4-9.6c-2.3-5.3-4.7-10.5-7.2-15.6c-2.5-5-5.1-9.8-7.8-14.5c-2.7-4.6-5.5-9.2-8.5-13.6c-2.9-4.4-6-8.6-9.1-12.7
			c-1.5-2-3.1-4-4.7-6c-1.4-1.7-2.8-3.5-4.3-5.2c-1.2-1.4-2.4-2.8-3.7-4.3c-1-1.1-2-2.2-3-3.4c-0.3-0.3-0.6-0.7-0.9-1
			c-0.4-0.5-0.9-1-1.3-1.4c-0.6-0.6-1.2-1.3-1.8-1.9c-1.2-1.2-2.3-2.5-3.5-3.7c-1.1-1.2-2.3-2.3-3.5-3.5"/>
	</g>
	<g id="SPLINE_11_">
		<path class="st0" d="M286.7,483.9c-0.8-4.5-1.6-9-2.3-13.6c-0.7-3.8-1.3-7.6-2-11.4"/>
	</g>
	<g id="SPLINE_12_">
		<path class="st0" d="M87.2,239.9c0.8,0.4,1.7,0.9,2.5,1.3c1.6,0.9,3.3,1.8,4.9,2.8c1.4,0.8,2.8,1.7,4.1,2.6
			c1.2,0.8,2.3,1.6,3.5,2.4c1.3,0.9,2.6,1.9,3.8,3c1,0.8,2,1.7,3,2.6c0.8,0.7,1.5,1.4,2.2,2.1c0.8,0.7,1.5,1.5,2.3,2.2
			c0.8,0.8,1.6,1.6,2.3,2.5c0.9,1,1.8,2,2.7,3.1c1,1.2,2.1,2.5,3.1,3.8c1.6,2,3.1,4.1,4.6,6.3c1.7,2.4,3.3,4.9,4.9,7.5
			c1.5,2.4,2.9,4.8,4.3,7.2c1.3,2.2,2.5,4.4,3.7,6.6c1,2,2.1,3.9,3.1,5.9c0.9,1.7,1.7,3.3,2.5,5c0.6,1.2,1.2,2.4,1.7,3.6
			c0.5,0.9,0.9,1.9,1.4,2.8c0.4,0.7,0.7,1.5,1.1,2.2c0.5,1,1,2,1.4,3.1c0.7,1.4,1.3,2.8,2,4.3c0.8,1.9,1.7,3.7,2.5,5.6
			c1,2.3,2.1,4.6,3.1,6.9c1.1,2.4,2.1,4.9,3.2,7.3c1.2,2.8,2.5,5.7,3.7,8.5c1.4,3.3,2.8,6.6,4.2,9.9c1.6,3.8,3.2,7.5,4.8,11.3
			c1.8,4.3,3.6,8.6,5.4,12.8c2,4.8,4,9.6,6,14.4c2.2,5.3,4.4,10.7,6.6,16c1.7,4.1,3.4,8.2,5.1,12.3"/>
	</g>
	<g id="LINE_62_">
		<line class="st0" x1="206.1" y1="526" x2="208.5" y2="529.2"/>
	</g>
	<g id="SPLINE_13_">
		<path class="st0" d="M233.5,501.2c-1.6,0.6-3.2,1.2-4.7,1.9c-1.2,0.5-2.5,1.1-3.7,1.7c-0.9,0.5-1.9,1-2.8,1.5
			c-0.7,0.4-1.3,0.8-2,1.2c-0.5,0.3-1,0.6-1.5,0.9c-0.5,0.3-0.9,0.6-1.4,0.9c-0.5,0.3-0.9,0.6-1.4,0.9c-0.4,0.3-0.9,0.6-1.3,1
			c-0.6,0.5-1.3,1-1.9,1.5c-0.6,0.5-1.2,1.1-1.8,1.6c-0.7,0.6-1.3,1.3-2,1.9c-0.7,0.7-1.3,1.4-1.9,2c-0.3,0.3-0.6,0.6-0.8,0.8
			c-0.1,0.1-0.2,0.2-0.2,0.3"/>
	</g>
	<g id="SPLINE_14_">
		<path class="st0" d="M206.4,519.2c-0.4,0.6-0.8,1.1-1.1,1.7c-0.3,0.6-0.3,1.3-0.3,1.9c0,0.6,0.1,1.3,0.4,1.9
			c0.2,0.4,0.5,0.8,0.8,1.2"/>
	</g>
	<g id="SPLINE_15_">
		<path class="st0" d="M210.3,531c2,1.3,4,2.7,6.1,4c1.9,1.2,3.9,2.5,5.8,3.7c1.8,1.1,3.6,2.2,5.4,3.3c0.9,0.5,1.9,1.1,2.8,1.6"/>
	</g>
	<g id="SPLINE_16_">
		<path class="st0" d="M87.2,89.2c-2-0.5-4.1-1-6.1-1.4c-2.9-0.6-5.8-1.1-8.6-1.5c-2.6-0.4-5.2-0.7-7.7-0.9
			c-2.3-0.2-4.5-0.4-6.8-0.5c-2-0.1-3.9-0.1-5.8-0.1c-1.7,0-3.3,0-4.9,0.1c-1.6,0.1-3.2,0.2-4.8,0.3c-1.3,0.1-2.5,0.3-3.8,0.4
			c-1.2,0.2-2.4,0.3-3.6,0.6c-1.3,0.2-2.5,0.5-3.7,0.7c-1.3,0.3-2.6,0.6-3.8,1c-1.6,0.5-3.2,1-4.7,1.6c-1.4,0.5-2.7,1.1-4,1.7
			c-1.1,0.5-2.1,1.1-3,1.6c-0.8,0.5-1.6,1-2.3,1.5c-0.6,0.4-1.3,0.9-1.9,1.4c-0.7,0.6-1.3,1.1-1.9,1.7c-0.7,0.7-1.4,1.4-2,2.3
			c-0.8,1-1.6,2.2-2.4,3.5c-0.9,1.6-1.6,3.3-2.4,5"/>
	</g>
	<g id="SPLINE_17_">
		<path class="st0" d="M171.9,161.9c0.3-1.2,0.5-2.4,0.7-3.6c0.2-0.9,0.3-1.9,0.3-2.8c0-0.7,0.1-1.4,0.1-2.1c0-0.4,0-0.9,0-1.3
			c0-0.4-0.1-0.8-0.1-1.1c-0.1-0.6-0.2-1.3-0.3-1.9c-0.2-0.8-0.4-1.7-0.6-2.5c-0.3-1-0.6-2-1-3.1c-0.2-0.4-0.4-0.8-0.5-1.2"/>
	</g>
	<g id="LINE_63_">
		<line class="st0" x1="3.1" y1="108.3" x2="3.1" y2="108.5"/>
	</g>
	<g id="LINE_64_">
		<line class="st0" x1="2.3" y1="110.8" x2="2" y2="112"/>
	</g>
	<g id="LINE_65_">
		<line class="st0" x1="170.7" y1="165.4" x2="171.2" y2="164.2"/>
	</g>
	<g id="LINE_66_">
		<line class="st0" x1="160.7" y1="177.6" x2="164.4" y2="174.3"/>
	</g>
	<g id="SPLINE_18_">
		<path class="st0" d="M63.1,235.4c0.9,0.1,1.8,0.3,2.8,0.4c1.1,0.1,2.2,0.2,3.4,0.2c1.2,0,2.4,0,3.7,0c1.3,0,2.6-0.1,3.8-0.3
			c0.5-0.1,1-0.2,1.5-0.2"/>
	</g>
	<g id="SPLINE_19_">
		<path class="st0" d="M2.1,122.9c1.4,6.1,2.9,12.1,4.3,18.2c1.2,5,2.4,10.1,3.7,15.2c0.8,3.2,1.6,6.4,2.5,9.6"/>
	</g>
	<g id="SPLINE_20_">
		<path class="st0" d="M277.5,433.7c0-0.1,0-0.3-0.1-0.4c-0.1-0.4-0.1-0.7-0.1-1.1"/>
	</g>
	<g id="LINE_67_">
		<line class="st0" x1="283.1" y1="464.6" x2="282.8" y2="463"/>
	</g>
	<g id="LINE_68_">
		<line class="st0" x1="278.1" y1="475.2" x2="278.3" y2="475.2"/>
	</g>
	<g id="SPLINE_21_">
		<path class="st0" d="M256,538.7c1-0.3,2-0.6,2.9-0.9c1-0.3,1.8-0.6,2.7-0.9c1.7-0.6,3.4-1.3,5-1.9"/>
	</g>
	<g id="SPLINE_22_">
		<path class="st0" d="M230.4,543.6c0.2,0.1,0.4,0.2,0.7,0.2c0.3,0,0.7,0.1,1.2,0.1c0.9,0,2-0.1,3.4-0.3c1.3-0.2,2.7-0.4,4.2-0.7
			c1.5-0.3,3.1-0.7,4.6-1"/>
	</g>
	<g id="LINE_69_">
		<line class="st0" x1="268.6" y1="422.3" x2="268.4" y2="422.4"/>
	</g>
	<g id="SPLINE_23_">
		<path class="st0" d="M104.8,157.8C104.8,157.7,104.8,157.7,104.8,157.8c0.2-0.5,0.3-1.1,0.2-1.6c0-0.5-0.1-1-0.2-1.5
			c-0.1-0.5-0.3-1-0.6-1.5c-0.3-0.5-0.6-0.9-0.9-1.4c-0.3-0.4-0.7-0.8-1.1-1.2c-0.4-0.3-0.8-0.7-1.2-1c-0.5-0.3-1-0.7-1.5-1
			c-0.4-0.2-0.8-0.5-1.2-0.7c-0.4-0.2-0.8-0.4-1.2-0.6c-0.7-0.3-1.4-0.6-2.2-0.8"/>
	</g>
	<g id="SPLINE_24_">
		<path class="st0" d="M94.9,146.7c-0.8-0.2-1.5-0.4-2.3-0.6c-0.3-0.1-0.6-0.1-0.9-0.2c-0.5-0.1-1-0.1-1.5-0.2c-0.5,0-1-0.1-1.5-0.1
			c-0.5,0-1,0-1.5,0.1c-0.5,0-1,0.1-1.5,0.2c-0.5,0.1-1,0.2-1.4,0.4c-0.5,0.2-0.9,0.4-1.3,0.6c-0.4,0.2-0.8,0.5-1.1,0.8
			c-0.3,0.3-0.6,0.7-0.9,1.1c-0.2,0.4-0.4,0.8-0.6,1.2"/>
	</g>
	<g id="LINE_70_">
		<line class="st0" x1="103.5" y1="162.1" x2="104.8" y2="157.8"/>
	</g>
	<g id="LINE_71_">
		<line class="st0" x1="80.5" y1="150.1" x2="79.3" y2="153.9"/>
	</g>
	<g id="LINE_72_">
		<line class="st0" x1="233.2" y1="452.5" x2="235" y2="460.5"/>
	</g>
	<g id="SPLINE_25_">
		<path class="st0" d="M227.8,448.6c0.4-0.1,0.8-0.1,1.3,0c0.5,0.1,1.1,0.3,1.6,0.6c0.3,0.2,0.6,0.4,0.8,0.6
			c0.3,0.2,0.5,0.5,0.7,0.8c0.2,0.3,0.4,0.6,0.6,0.9c0.2,0.3,0.3,0.7,0.4,1.1"/>
	</g>
	<g id="SPLINE_26_">
		<path class="st0" d="M235,460.5c0.1,0.4,0.1,0.7,0.1,1.1c0,0.3,0,0.6-0.1,1c-0.1,0.6-0.4,1.1-0.6,1.5c-0.3,0.4-0.6,0.7-0.9,0.9
			c-0.3,0.2-0.5,0.3-0.8,0.3"/>
	</g>
	<g id="SPLINE_27_">
		<path class="st0" d="M74.3,140.2C74.3,140.2,74.3,140.1,74.3,140.2c0.2-0.5,0.3-1.1,0.2-1.6c0-0.5-0.1-1-0.2-1.5
			c-0.1-0.5-0.3-1-0.6-1.5c-0.3-0.5-0.6-0.9-0.9-1.4c-0.3-0.4-0.7-0.8-1.1-1.2c-0.4-0.3-0.8-0.7-1.2-1c-0.5-0.3-1-0.7-1.5-1
			c-0.4-0.2-0.8-0.5-1.2-0.7c-0.4-0.2-0.8-0.4-1.2-0.6c-0.7-0.3-1.4-0.6-2.2-0.8"/>
	</g>
	<g id="SPLINE_28_">
		<path class="st0" d="M64.4,129.1c-0.8-0.2-1.5-0.4-2.3-0.6c-0.3-0.1-0.6-0.1-0.9-0.2c-0.5-0.1-1-0.1-1.5-0.2c-0.5,0-1-0.1-1.5-0.1
			c-0.5,0-1,0-1.5,0.1c-0.5,0-1,0.1-1.5,0.2c-0.5,0.1-1,0.2-1.4,0.4c-0.5,0.2-0.9,0.4-1.3,0.6c-0.4,0.2-0.8,0.5-1.1,0.8
			c-0.3,0.3-0.6,0.7-0.9,1.1c-0.2,0.4-0.4,0.8-0.6,1.2"/>
	</g>
	<g id="LINE_73_">
		<line class="st0" x1="73" y1="144.2" x2="74.3" y2="140.2"/>
	</g>
	<g id="LINE_74_">
		<line class="st0" x1="50" y1="132.5" x2="48.4" y2="137.5"/>
	</g>
	<g id="SPLINE_29_">
		<path class="st0" d="M131.7,167.4c0.1-0.2,0.1-0.4,0.2-0.5c0.1-0.3,0-0.7,0-1c-0.1-0.6-0.2-1.1-0.5-1.7c-0.4-0.8-1-1.6-1.8-2.3
			c-0.3-0.3-0.7-0.6-1.1-0.9c-0.6-0.4-1.2-0.8-1.9-1.1c-0.9-0.5-1.9-0.8-2.9-1.1c-0.6-0.2-1.2-0.3-1.8-0.3c-0.6-0.1-1.3,0-1.9,0"/>
	</g>
	<g id="LINE_75_">
		<line class="st0" x1="131.6" y1="167.6" x2="131.7" y2="167.5"/>
	</g>
	<g id="LINE_76_">
		<line class="st0" x1="116" y1="160.9" x2="115.9" y2="161.1"/>
	</g>
	<g id="SPLINE_30_">
		<path class="st0" d="M120.2,158.4c-0.5,0.1-1,0.1-1.5,0.3c-0.5,0.1-0.9,0.3-1.3,0.6c-0.4,0.2-0.7,0.5-1,0.8
			c-0.2,0.2-0.3,0.5-0.5,0.8"/>
	</g>
	<g id="SPLINE_31_">
		<path class="st0" d="M20.6,180.1c0.6,0.7,1.2,1.4,1.9,2.1c0.6,0.7,1.2,1.3,1.9,2.1c0.6,0.7,1.3,1.4,1.9,2.1
			c0.6,0.7,1.2,1.4,1.8,2.1c0.6,0.7,1.1,1.3,1.7,2c0.5,0.6,1,1.2,1.5,1.9c0.8,1,1.7,2.1,2.4,3.1c0.7,0.9,1.4,1.9,2,2.8
			c0.8,1.2,1.5,2.3,2.2,3.4c0.8,1.3,1.5,2.6,2.1,3.8c0.7,1.5,1.3,2.9,1.9,4.3"/>
	</g>
	<g id="SPLINE_32_">
		<path class="st0" d="M73.1,132.8c-0.3-0.2-0.6-0.3-0.9-0.5c-0.3-0.2-0.6-0.4-0.9-0.5"/>
	</g>
	<g id="SPLINE_33_">
		<path class="st0" d="M37.5,225.9c0.9,0.2,1.8,0.5,2.8,0.7c1.6,0.4,3.2,0.6,4.8,0.8c1.6,0.2,3.2,0.4,4.8,0.4c0.6,0,1.1,0,1.7,0"/>
	</g>
	<g id="SPLINE_34_">
		<path class="st0" d="M25.5,185.5c0.4,1.4,0.8,2.8,1.2,4.1c0.7,2.3,1.2,4.7,1.8,7c0.4,1.9,0.9,3.7,1.2,5.6c0.3,1.4,0.6,2.8,0.8,4.1
			c0.1,0.7,0.3,1.4,0.4,2.1c0.1,0.5,0.2,1,0.2,1.4c0.1,0.7,0.2,1.3,0.3,1.9c0.1,0.9,0.3,1.8,0.4,2.7c0.2,1.2,0.3,2.4,0.4,3.5
			c0,0.4,0.1,0.9,0.1,1.3"/>
	</g>
	<g id="SPLINE_35_">
		<path class="st0" d="M32.5,219.4c0.2,1,0.4,2,0.8,2.9c0.4,0.8,0.9,1.5,1.6,2.2c0.5,0.5,1.1,1,1.9,1.2c0.3,0.1,0.6,0.2,0.9,0.2"/>
	</g>
	<g id="SPLINE_36_">
		<path class="st0" d="M42,209.8c1.1,2.5,2.1,5,3.2,7.3c0.9,2,1.9,3.9,3,5.7c0.8,1.4,1.7,2.8,2.6,4c0.7,0.9,1.4,1.8,2.1,2.6
			c0.3,0.4,0.7,0.7,1.1,1.1c0.3,0.3,0.5,0.5,0.8,0.8c0.4,0.3,0.8,0.7,1.2,1c0.6,0.4,1.2,0.8,1.8,1.2c0.8,0.5,1.6,0.9,2.5,1.2
			c1,0.4,2.1,0.6,3.1,0.8"/>
	</g>
	<g id="SPLINE_37_">
		<path class="st0" d="M12.8,166.8c0,0.1,0.1,0.3,0.1,0.4c0.3,1,0.7,2,1.1,3c0.5,1,1,2,1.5,3c0.6,1,1.2,2,1.9,3c0.7,1,1.4,2,2.3,3
			c0.3,0.3,0.6,0.6,0.9,1"/>
	</g>
	<g id="SPLINE_38_">
		<path class="st0" d="M181.6,124.9c3.6-2.1,7.2-4.2,10.9-6.3c3.4-1.9,6.8-3.9,10.2-5.8c2.9-1.6,5.8-3.2,8.7-4.8
			c2.4-1.3,4.7-2.6,7.1-3.9c1.9-1,3.8-2.1,5.7-3.1c0.8-0.4,1.6-0.9,2.4-1.3c0.7-0.4,1.4-0.7,2.1-1.1c0.6-0.3,1.2-0.6,1.7-0.9
			c0.7-0.4,1.3-0.7,2-1.1c1-0.5,2-1,3-1.6c1.3-0.7,2.6-1.4,4-2.1c1.7-0.9,3.4-1.8,5-2.7c2.1-1.1,4.1-2.2,6.2-3.2
			c2.5-1.3,5-2.6,7.4-3.9c2.7-1.4,5.4-2.8,8.2-4.2"/>
	</g>
	<g id="SPLINE_39_">
		<path class="st0" d="M117.2,110.7c0.1,0,0.2,0.1,0.4,0.1c0.6,0.1,1.3,0.2,1.9,0.3c0.6,0.1,1.3,0.2,1.9,0.2c0.7,0,1.3,0.1,1.9,0.1
			c0.7,0,1.3,0,1.9-0.1c0.6-0.1,1.3-0.1,1.9-0.2c0.6-0.1,1.2-0.3,1.8-0.4c0.6-0.2,1.1-0.4,1.7-0.6c0.5-0.2,1-0.5,1.5-0.8
			c0.5-0.3,0.9-0.7,1.3-1.1c0.4-0.4,0.7-0.8,1-1.3c0.3-0.5,0.5-1,0.7-1.5c0.2-0.6,0.3-1.1,0.4-1.7c0-0.6,0-1.1-0.1-1.7
			c-0.1-0.6-0.2-1.2-0.5-1.7c-0.2-0.6-0.5-1.2-0.8-1.7c-0.3-0.6-0.7-1.1-1.2-1.7c-0.4-0.5-0.9-1-1.4-1.5c-0.5-0.5-1-0.9-1.6-1.4
			c-0.6-0.4-1.1-0.8-1.7-1.2c-0.6-0.4-1.3-0.8-2-1.2c-0.5-0.3-1.1-0.5-1.6-0.8c-0.5-0.2-1-0.4-1.5-0.7c-0.9-0.4-1.8-0.7-2.8-1"/>
	</g>
	<g id="SPLINE_40_">
		<path class="st0" d="M120.2,88.9c-0.9-0.3-1.9-0.5-2.8-0.8c-0.4-0.1-0.8-0.2-1.1-0.2c-0.6-0.1-1.3-0.2-1.9-0.3
			c-0.6-0.1-1.3-0.2-1.9-0.2c-0.7,0-1.3-0.1-1.9-0.1c-0.7,0-1.3,0-1.9,0.1c-0.6,0.1-1.3,0.1-1.9,0.2c-0.6,0.1-1.2,0.3-1.8,0.4
			c-0.6,0.2-1.1,0.4-1.7,0.6c-0.5,0.2-1,0.5-1.5,0.8c-0.5,0.3-0.9,0.7-1.3,1.1c-0.4,0.4-0.7,0.8-1,1.3c-0.3,0.5-0.5,1-0.7,1.5
			c-0.2,0.6-0.3,1.1-0.4,1.7c0,0.6,0,1.1,0.1,1.7c0.1,0.6,0.2,1.2,0.5,1.7c0.2,0.6,0.5,1.2,0.8,1.7c0.3,0.6,0.7,1.1,1.2,1.7
			c0.4,0.5,0.9,1,1.4,1.5c0.5,0.5,1,0.9,1.6,1.4c0.6,0.4,1.1,0.8,1.7,1.2c0.6,0.4,1.3,0.8,2,1.2c0.5,0.3,1.1,0.5,1.6,0.8
			c0.5,0.2,1,0.4,1.4,0.6"/>
	</g>
	<g id="LINE_77_">
		<line class="st0" x1="107.9" y1="107.4" x2="109.5" y2="108.2"/>
	</g>
	<g id="LINE_78_">
		<line class="st0" x1="117.9" y1="110.9" x2="119.6" y2="111.1"/>
	</g>
	<g id="LINE_79_">
		<line class="st0" x1="204.9" y1="11.7" x2="202.7" y2="13.6"/>
	</g>
	<g id="SPLINE_41_">
		<path class="st0" d="M203.3,13.1c-0.1,0.1-0.2,0.2-0.3,0.2c-1,0.7-1.8,1.6-2.5,2.4c-0.9,1-1.7,2.2-2.4,3.3
			c-0.8,1.4-1.5,2.8-1.9,4.3c-0.5,1.7-0.8,3.5-0.9,5.2c0,1,0,1.9,0.1,2.9c0.1,1,0.3,2,0.6,2.9c0.3,1,0.7,2,1.2,2.9
			c0.5,1,1.1,1.9,1.7,2.8c0.7,0.9,1.4,1.8,2.3,2.6c0.7,0.7,1.4,1.4,2.1,2.1"/>
	</g>
	<g id="SPLINE_42_">
		<path class="st0" d="M225,2.7c-1.7,0.6-3.5,1.1-5.2,1.7c-3,1.1-5.9,2.3-8.7,3.5"/>
	</g>
	<g id="LINE_80_">
		<line class="st0" x1="122.3" y1="116.2" x2="123.8" y2="111.3"/>
	</g>
	<g id="LINE_81_">
		<line class="st0" x1="104.4" y1="105.2" x2="103" y2="109.5"/>
	</g>
	<g id="SPLINE_43_">
		<path class="st0" d="M170.5,142.3c-0.4-0.8-0.8-1.6-1-2.4c-0.2-0.7-0.3-1.5-0.2-2.4c0.1-0.7,0.3-1.5,0.7-2.3
			c0.3-0.7,0.7-1.3,1.2-2c0.4-0.6,0.9-1.2,1.5-1.8c0.7-0.7,1.4-1.4,2.2-2.1c0.9-0.8,2-1.5,3-2.2c1.2-0.8,2.4-1.5,3.6-2.2"/>
	</g>
	<g id="SPLINE_44_">
		<path class="st0" d="M218.8,59c-2.7,1-5.4,2-8,3c-2.9,1-5.7,2.1-8.6,3.1c-2.4,0.9-4.8,1.7-7.2,2.5c-2.2,0.8-4.3,1.5-6.5,2.3
			c-2.1,0.7-4.2,1.4-6.3,2.2c-1.4,0.5-2.9,1-4.4,1.5c-1.4,0.5-2.9,1-4.3,1.4c-1.7,0.6-3.4,1.1-5.1,1.7c-2,0.7-4.1,1.4-6.1,2
			c-2.4,0.8-4.8,1.6-7.2,2.4c-2.8,0.9-5.6,1.8-8.3,2.8c-2.6,0.9-5.2,1.7-7.8,2.6"/>
	</g>
	<g id="SPLINE_45_">
		<path class="st0" d="M256.6,14c-2.1-2-4.3-3.9-6.7-5.8c-1.1-0.9-2.4-1.8-3.7-2.6c-1.3-0.8-2.8-1.5-4.4-2.1
			c-1.6-0.6-3.3-1.1-4.9-1.4c-1.6-0.3-3.2-0.4-4.8-0.5c-1.5,0-3,0-4.3,0.3c-0.2,0-0.4,0.1-0.6,0.2"/>
	</g>
	<g id="SPLINE_46_">
		<path class="st0" d="M139.2,86.3c-2.6,0.9-5.3,1.7-7.9,2.4c-2.3,0.6-4.6,1.2-7,1.5c-0.1,0-0.2,0-0.3,0"/>
	</g>
	<g id="SPLINE_47_">
		<path class="st0" d="M100,91.1c-1.8-0.2-3.5-0.3-5.3-0.5c-2.6-0.4-5.1-0.9-7.6-1.4"/>
	</g>
	<g id="LINE_82_">
		<line class="st0" x1="265.5" y1="79.1" x2="272.7" y2="79.2"/>
	</g>
	<g id="LINE_83_">
		<line class="st0" x1="279.1" y1="75.2" x2="279.2" y2="74.8"/>
	</g>
	<g id="LINE_84_">
		<line class="st0" x1="219.8" y1="54.3" x2="219.7" y2="54.7"/>
	</g>
	<g id="LINE_85_">
		<line class="st0" x1="219.7" y1="54.8" x2="218.7" y2="59.1"/>
	</g>
	<g id="SPLINE_48_">
		<path class="st0" d="M266.7,450.5c-0.3-1.5-0.3-3,0-4.5c0.3-1.5,0.8-2.9,1.4-4.1c0.7-1.2,1.4-2.3,2.3-3c0.8-0.8,1.7-1.3,2.6-1.5
			c0.9-0.2,1.7-0.2,2.5,0.2c0.8,0.4,1.5,1,2.1,1.9c0.6,0.9,1.2,2,1.6,3.3c0.5,1.3,0.9,2.8,1.2,4.2"/>
	</g>
	<g id="SPLINE_49_">
		<path class="st0" d="M280.4,447c0.3,1.5,0.5,3,0.6,4.4c0.1,1.4,0,2.7-0.2,3.9c-0.2,1.1-0.6,2.1-1.1,2.8s-1.3,1.2-2.1,1.4
			c-0.9,0.2-1.9,0.2-3-0.2c-1.1-0.3-2.2-0.9-3.3-1.7c-1.1-0.8-2.1-1.9-2.9-3.1s-1.4-2.6-1.7-4.1"/>
	</g>
	<g id="ARC">
		<path class="st0" d="M263.6,451.1c1-0.2,2-0.4,3.1-0.6"/>
	</g>
	<g id="LINE_86_">
		<line class="st0" x1="243.5" y1="542.1" x2="244.5" y2="541.8"/>
	</g>
	<g id="LINE_87_">
		<line class="st0" x1="255.8" y1="538.8" x2="256.9" y2="538.4"/>
	</g>
	<g id="SPLINE_50_">
		<path class="st0" d="M343.5,452.3C343.5,452.3,343.5,452.3,343.5,452.3c2.2-4.6,4.1-9.6,6-14.7"/>
	</g>
	<g id="LINE_88_">
		<line class="st0" x1="266.2" y1="23.8" x2="264.5" y2="22.1"/>
	</g>
	<g id="SPLINE_51_">
		<path class="st0" d="M278.8,508.9c-0.4,0.9-0.8,1.9-1.2,2.8c-0.4,0.9-0.7,1.8-1.1,2.6c-0.4,0.8-0.7,1.6-1.1,2.5
			c-0.3,0.8-0.7,1.5-1,2.3c-0.3,0.7-0.6,1.4-1,2.1c-0.3,0.7-0.6,1.3-0.9,2c-0.3,0.6-0.6,1.2-0.8,1.8c-0.3,0.5-0.5,1.1-0.8,1.6
			c-0.2,0.5-0.5,1-0.7,1.5c-0.2,0.4-0.4,0.9-0.7,1.3c-0.2,0.4-0.4,0.8-0.6,1.2c-0.2,0.3-0.3,0.7-0.5,1c-0.1,0.3-0.3,0.6-0.4,0.9
			c-0.1,0.2-0.2,0.5-0.4,0.7c-0.1,0.2-0.2,0.4-0.3,0.6c-0.1,0.1-0.1,0.3-0.2,0.4"/>
	</g>
	<g id="LWPOLYLINE">
		<polyline class="st0" points="323.4,475.4 325.1,473.4 330,467 334.7,460.1 339.2,452.9 343.4,445.4 347.4,437.4 351.1,429.1 
			354.5,420.5 357.7,411.6 360.6,402.3 363.2,392.8 365.6,383 367.6,373 369.3,362.7 370.8,352.3 371.9,341.6 372.8,330.8 
			373.3,319.8 373.6,308.7 373.5,297.5 373.1,286.2 372.4,274.8 371.5,263.4 370.2,252 368.6,240.6 366.7,229.1 364.5,217.8 
			362.1,206.5 359.3,195.2 356.3,184.1 353,173.1 349.4,162.2 345.6,151.5 341.5,141 337.2,130.7 332.6,120.6 327.8,110.7 
			322.8,101.2 317.5,91.8 312.1,82.8 306.5,74.1 300.7,65.8 294.7,57.7 288.6,50 282.3,42.7 275.9,35.8 269.3,29.3 		"/>
	</g>
	<g id="SPLINE_52_">
		<path class="st0" d="M256.8,14.2c0.2,0.2,0.4,0.5,0.7,0.7c0.4,0.4,0.7,0.8,1.1,1.2c0.5,0.5,1,1.1,1.5,1.6c0.6,0.7,1.2,1.4,1.8,2.1
			c0.7,0.9,1.5,1.7,2.2,2.6c0.8,1,1.7,2.1,2.5,3.2c0.9,1.2,1.9,2.5,2.8,3.7"/>
	</g>
	<g id="LINE_89_">
		<line class="st0" x1="269.4" y1="30" x2="269.2" y2="29.9"/>
	</g>
	<g id="SPLINE_53_">
		<path class="st0" d="M278.8,508c0.5-0.2,1-0.4,1.5-0.6c0.5-0.2,1-0.4,1.5-0.6c0.5-0.2,1-0.4,1.5-0.7c0.5-0.2,1-0.5,1.5-0.7
			c0.5-0.2,1-0.5,1.5-0.7c0.5-0.2,1-0.5,1.4-0.7c0.5-0.3,1-0.5,1.4-0.8c0.5-0.3,1-0.5,1.4-0.8c0.5-0.3,0.9-0.5,1.4-0.8
			c0.5-0.3,0.9-0.6,1.4-0.8c0.5-0.3,0.9-0.6,1.4-0.9c0.5-0.3,0.9-0.6,1.4-0.9c0.5-0.3,0.9-0.6,1.4-0.9c0.5-0.3,0.9-0.6,1.4-0.9
			c3.3-2.3,6.5-4.8,9.7-7.5c3.1-2.7,6.2-5.7,9.2-8.8c3-3.2,6-6.6,8.8-10.2c2.8-3.6,5.5-7.4,8.1-11.4c2.6-4,5.1-8.3,7.5-12.7
			c2.4-4.4,4.7-9,6.8-13.8c2.1-4.8,4.1-9.7,6-14.8c1.9-5.1,3.6-10.4,5.2-15.8c1.6-5.3,3-10.8,4.3-16.4c1.3-5.6,2.5-11.3,3.5-17.1
			c1-5.7,1.8-11.5,2.6-17.4c0.7-5.9,1.3-11.9,1.7-17.9c0.4-5.9,0.7-11.8,0.8-17.8c0.1-6,0.2-12,0-18.1c-0.1-6.1-0.4-12.2-0.8-18.3
			c-0.4-6.1-0.9-12.3-1.6-18.5c-0.7-6.4-1.5-12.7-2.4-19.1c-1-6.4-2-12.7-3.3-19.1c-1.3-6.5-2.7-12.9-4.2-19.3
			c-1.5-6.4-3.2-12.8-5-19.1c-1.8-6.4-3.8-12.7-5.9-18.9c-2.1-6.2-4.3-12.4-6.7-18.4c-2.4-6.1-4.8-12-7.4-17.9
			c-2.6-5.8-5.3-11.6-8.1-17.2c-2.8-5.5-5.7-11-8.7-16.2c-3-5.3-6.1-10.4-9.3-15.4c-3.1-4.9-6.3-9.6-9.6-14.1
			c-3.3-4.6-6.7-9-10.1-13.2c-1-1.2-1.9-2.3-2.9-3.5c-1-1.1-1.9-2.3-2.9-3.4c-1-1.1-1.9-2.2-2.9-3.3c-1-1.1-2-2.2-3-3.2
			c-1-1.1-2-2.1-3-3.1c-1-1-2-2.1-3-3.1c-1-1-2-2-3-3"/>
	</g>
	<g id="LINE_90_">
		<line class="st0" x1="278.7" y1="508" x2="278.8" y2="508"/>
	</g>
	<g id="LINE_91_">
		<line class="st0" x1="276" y1="504.4" x2="278.7" y2="508"/>
	</g>
	<g id="SPLINE_54_">
		<path class="st0" d="M276,504.4c7.2-2.7,14.2-6.4,20.8-10.9c6.6-4.5,13-10,18.9-16.2c5.9-6.2,11.5-13.3,16.6-21.1
			c5.1-7.8,9.8-16.3,14-25.5c4.2-9.2,7.9-19,11-29.4s5.8-21.3,7.8-32.6c2.1-11.3,3.5-23.1,4.5-35.2c0.9-12.1,1.2-24.4,1-37
			s-1.1-25.2-2.5-38c-1.4-12.7-3.4-25.5-5.9-38.1c-2.5-12.7-5.6-25.2-9.2-37.5c-3.6-12.3-7.7-24.4-12.3-36s-9.6-23-15.1-33.8
			c-5.5-10.8-11.4-21.1-17.6-30.8c-6.3-9.7-12.9-18.8-19.8-27.2s-14.1-16.1-21.5-23"/>
	</g>
	<g id="LINE_92_">
		<line class="st0" x1="269.2" y1="29.9" x2="266.7" y2="32"/>
	</g>
	<g id="SPLINE_55_">
		<path class="st0" d="M275.2,503.4c2.1-0.8,4.2-1.7,6.3-2.7c2.2-1,4.3-2.1,6.4-3.3c2.1-1.2,4.2-2.4,6.2-3.8
			c2.1-1.3,4.1-2.8,6.1-4.3c2-1.5,4-3.1,5.9-4.8s3.8-3.4,5.7-5.3c1.9-1.8,3.7-3.7,5.5-5.7c1.8-2,3.5-4,5.3-6.2s3.4-4.3,5-6.6
			c1.6-2.3,3.2-4.6,4.8-7.1c1.5-2.4,3.1-4.9,4.5-7.5c1.5-2.6,2.9-5.2,4.3-7.9c1.4-2.7,2.7-5.4,4-8.3c1.3-2.8,2.5-5.7,3.7-8.6
			c1.2-2.9,2.3-5.9,3.4-9c1.1-3,2.1-6.2,3.1-9.3c1-3.2,1.9-6.4,2.8-9.6s1.7-6.6,2.5-9.9s1.5-6.7,2.2-10.2c0.7-3.4,1.3-6.9,1.9-10.4
			c0.6-3.5,1.1-7.1,1.6-10.7c0.5-3.6,0.9-7.2,1.2-10.9c0.4-3.7,0.7-7.3,0.9-11.1c0.3-3.7,0.5-7.5,0.6-11.2c0.1-3.8,0.2-7.6,0.3-11.4
			c0-3.8,0-7.6-0.1-11.5c-0.1-3.8-0.2-7.7-0.4-11.6c-0.2-3.9-0.4-7.8-0.7-11.7c-0.3-3.9-0.6-7.8-1-11.7s-0.9-7.8-1.4-11.7
			c-0.5-3.9-1.1-7.8-1.7-11.7c-0.6-3.9-1.3-7.8-2-11.7c-0.7-3.9-1.5-7.8-2.3-11.6c-0.8-3.9-1.7-7.7-2.6-11.6s-1.9-7.7-2.9-11.5
			c-1-3.8-2.1-7.6-3.2-11.4c-1.1-3.8-2.3-7.5-3.5-11.2c-1.2-3.7-2.5-7.4-3.8-11c-1.3-3.7-2.7-7.3-4.1-10.9
			c-1.4-3.6-2.9-7.1-4.4-10.6c-1.5-3.5-3-7-4.6-10.4c-1.6-3.4-3.2-6.8-4.9-10.2c-1.7-3.3-3.4-6.6-5.1-9.9c-1.7-3.2-3.5-6.4-5.3-9.6
			s-3.7-6.2-5.6-9.3c-1.9-3-3.8-6-5.8-8.9c-2-2.9-3.9-5.8-6-8.6c-2-2.8-4.1-5.5-6.1-8.2c-2.1-2.7-4.2-5.3-6.3-7.8s-4.3-5-6.5-7.4
			c-2.2-2.4-4.4-4.7-6.6-7c-2.1-2.2-4.3-4.3-6.5-6.3"/>
	</g>
	<g id="ARC_1_">
		<path class="st0" d="M265.9,33.1c0.4-0.3,0.7-0.7,0.8-1.1"/>
	</g>
	<g id="ARC_2_">
		<path class="st0" d="M276,504.4c-0.1-0.5-0.4-0.8-0.8-1.1"/>
	</g>
	<g id="SPLINE_56_">
		<path class="st0" d="M203.6,45.3c0.1,0.1,0.2,0.2,0.3,0.3"/>
	</g>
	<g id="SPLINE_57_">
		<path class="st0" d="M265.6,32.8c-3.5,2.5-7,4.8-10.6,6.8c-3.8,2.1-7.7,3.9-11.5,5.4c-3.8,1.5-7.6,2.6-11.3,3.3s-7.3,1.1-10.7,1.1
			c-3.4,0-6.7-0.4-9.8-1.1c-2.9-0.7-5.6-1.7-8.1-3"/>
	</g>
	<g id="SPLINE_58_">
		<path class="st0" d="M265.9,33.1c-0.1-0.1-0.2-0.2-0.3-0.3"/>
	</g>
	<g id="SPLINE_59_">
		<path class="st0" d="M274.9,503.5c0.1,0,0.2-0.1,0.3-0.1"/>
	</g>
	<g id="SPLINE_60_">
		<path class="st0" d="M203.9,45.6c3.7,3.5,7.3,7,10.9,10.9c0.9,1,1.8,2,2.6,3"/>
	</g>
	<g id="LINE_93_">
		<line class="st0" x1="242.1" y1="91.4" x2="244.9" y2="95.6"/>
	</g>
	<g id="SPLINE_61_">
		<path class="st0" d="M299.1,393.8c-0.2,1.2-0.5,2.4-0.7,3.5c-1.2,5.5-2.7,10.7-4.3,15.9c-1.6,5.1-3.3,10.2-5.1,15.1
			s-3.7,9.7-5.9,14.2c-0.8,1.7-1.7,3.4-2.5,5.1"/>
	</g>
	<g id="SPLINE_62_">
		<path class="st0" d="M281.9,492.4c-0.8,0.4-1.5,0.9-2.4,1.3c-0.9,0.4-1.9,0.8-3,1.1c-1.1,0.3-2.2,0.6-3.4,0.8
			c-1.3,0.2-2.6,0.4-4,0.6c-1.2,0.1-2.4,0.2-3.6,0.3c-1.3,0.1-2.5,0.2-3.8,0.3c-1.4,0.1-2.8,0.2-4.2,0.2c-1.4,0.1-2.8,0.2-4.2,0.3
			c-1.6,0.1-3.2,0.3-4.8,0.4c-1.6,0.2-3.1,0.4-4.6,0.6c-1.6,0.3-3.2,0.6-4.6,0.9c-1.5,0.4-2.9,0.8-4.1,1.2c-0.4,0.2-0.8,0.3-1.2,0.5
			"/>
	</g>
	<g id="SPLINE_63_">
		<path class="st0" d="M286.7,483.9c0.1,0.2,0.1,0.5,0.1,0.7c0.1,0.7-0.1,1.5-0.4,2.2c-0.3,0.8-0.7,1.6-1.3,2.4
			c-0.6,0.8-1.3,1.6-2.2,2.3c-0.3,0.3-0.6,0.5-1,0.8"/>
	</g>
	<g id="SPLINE_64_">
		<path class="st0" d="M228.9,55.4c7,2.5,14.1,4.7,21.4,6.7c7.2,2,14.5,3.8,21.8,5.5"/>
	</g>
	<g id="SPLINE_65_">
		<path class="st0" d="M219.9,54.3c0-0.1,0-0.3,0.1-0.4c0.1-0.2,0.5-0.3,0.9-0.4c0.4-0.1,0.9-0.1,1.5,0c0.6,0.1,1.2,0.2,1.8,0.4
			c0.7,0.2,1.5,0.4,2.3,0.7c0.8,0.3,1.6,0.5,2.3,0.8"/>
	</g>
	<g id="SPLINE_66_">
		<path class="st0" d="M272.1,67.6c1.1,0.3,2.3,0.5,3.3,0.9c0.7,0.3,1.4,0.6,2,1c0.6,0.4,1.1,0.9,1.4,1.5c0.3,0.5,0.5,1,0.6,1.5
			c0.1,0.6,0.2,1.2,0,1.7c-0.1,0.2-0.1,0.4-0.2,0.6"/>
	</g>
	<g id="ARC_3_">
		<path class="st0" d="M278.8,508.9c0.1-0.3,0.1-0.7,0-1"/>
	</g>
	<g id="ARC_4_">
		<path class="st0" d="M269.4,30c0.1-0.2,0.1-0.5-0.1-0.7"/>
	</g>
	<g id="LINE_94_">
		<line class="st0" x1="256.5" y1="14" x2="256.8" y2="14.2"/>
	</g>
	<g id="ARC_5_">
		<path class="st0" d="M203.7,45.4c0.1,0.1,0.1,0.2,0.2,0.2"/>
	</g>
	<g id="SPLINE_67_">
		<path class="st0" d="M142.1,224.3c-1.6-1.5-3.2-3-4.9-4.5c-1.7-1.4-3.4-2.8-5.2-4.1c-1.8-1.3-3.7-2.4-5.6-3.5c-1.9-1-3.9-2-6-2.7
			c-2-0.7-4.2-1.3-6.3-1.7c-1.1-0.2-2.1-0.3-3.2-0.4s-2.1-0.1-3.1-0.1c-2.1,0-4.1,0.2-5.9,0.6c-1.9,0.4-3.6,1-5.3,1.7
			c-1.6,0.7-3.1,1.6-4.4,2.5s-2.5,2-3.6,3.1c-2.1,2.2-3.7,4.6-4.8,7c-1.1,2.4-1.7,4.8-1.8,7.1c-0.1,1.1,0,2.2,0.1,3.3
			c0.1,1,0.4,2,0.7,2.8"/>
	</g>
	<g id="SPLINE_68_">
		<path class="st0" d="M82.9,235.3c0.1,0.3,0.3,0.7,0.4,1c0.2,0.3,0.3,0.6,0.5,0.9c0.2,0.3,0.4,0.6,0.7,0.9c0.3,0.4,0.7,0.7,1.1,0.9
			c0.3,0.2,0.7,0.4,1.1,0.5c0,0,0,0,0,0"/>
	</g>
	<g id="SPLINE_69_">
		<path class="st0" d="M75.9,234.3c-0.4-0.2-0.8-0.3-1.2-0.6c-0.7-0.4-1.3-1-1.8-1.6c-0.5-0.6-1-1.3-1.4-2.1
			c-0.4-0.8-0.7-1.6-0.9-2.4c-0.2-0.9-0.4-1.8-0.4-2.8c0-1,0.1-2.1,0.4-3.1c0.2-0.6,0.4-1.2,0.6-1.9c0.3-0.7,0.6-1.4,1-2.1
			c0.4-0.8,0.9-1.6,1.5-2.4c0.9-1.3,2-2.6,3.1-3.8c1.2-1.3,2.6-2.5,4-3.8c0.9-0.8,1.9-1.5,2.9-2.3c1-0.7,2-1.4,3-2
			c0.9-0.6,1.9-1.2,2.9-1.7c1.3-0.7,2.7-1.4,4.2-2.1c1.3-0.6,2.6-1.2,4-1.7c1.3-0.5,2.6-0.9,4-1.4c1.4-0.4,2.8-0.9,4.3-1.3
			c1.5-0.4,2.9-0.8,4.4-1.1c1.6-0.4,3.1-0.7,4.7-1.1c1.7-0.4,3.4-0.7,5-1.1c1.8-0.4,3.6-0.7,5.3-1.1c1.9-0.4,3.7-0.8,5.5-1.2
			c2-0.4,3.9-0.9,5.7-1.4c1.9-0.5,3.7-1,5.5-1.6c1.9-0.6,3.8-1.2,5.5-1.9c1.1-0.4,2.1-0.8,3.1-1.3c1.1-0.5,2.1-1,3.1-1.5
			c1.1-0.6,2.1-1.2,3.1-1.8"/>
	</g>
	<g id="SPLINE_70_">
		<path class="st0" d="M268,422.5c-5.8-27.5-11.7-53.3-18.3-77.1c-3.3-11.9-6.7-23.3-10.3-34.2c-3.6-10.9-7.5-21.3-11.6-31.2
			c-4.1-9.9-8.5-19.3-13.2-28.2c-4.7-8.9-9.8-17.2-15.4-25.3c-5.6-8.1-11.8-15.8-18.8-23.4s-14.7-15.2-23.4-22.8"/>
	</g>
	<g id="SPLINE_71_">
		<path class="st0" d="M268,422.5c-0.6,0.2-1.2,0.4-1.8,0.7c-0.6,0.3-1.3,0.7-1.9,1.2c-0.6,0.5-1.3,1-1.9,1.6
			c-0.6,0.6-1.3,1.3-1.9,2c-0.8,1-1.6,2-2.4,3.1c-0.8,1.2-1.5,2.4-2.2,3.6c-0.7,1.3-1.3,2.6-1.9,3.9c-0.6,1.4-1.1,2.8-1.5,4.2
			c-0.4,1.3-0.6,2.5-0.8,3.8c-0.2,1.3-0.3,2.7-0.2,4c0,1.1,0.1,2.2,0.4,3.2c0.2,1.1,0.5,2.2,0.9,3.2c0.4,1,0.9,2,1.4,2.9
			c0.6,1,1.2,1.9,1.9,2.8c1,1.3,2.2,2.6,3.4,3.7c1.2,1.2,2.6,2.2,3.9,3.2c1.1,0.8,2.2,1.5,3.4,2.1c1.2,0.7,2.3,1.2,3.5,1.7
			c0.9,0.4,1.7,0.7,2.6,0.9c0.9,0.3,1.7,0.5,2.5,0.6c1.1,0.1,2,0,3-0.1"/>
	</g>
	<g id="SPLINE_72_">
		<path class="st0" d="M278.6,475.1c1.1,5.7,2.2,11.5,3.3,17.2"/>
	</g>
	<g id="SPLINE_73_">
		<path class="st0" d="M197.6,429.2c-0.1,0-0.2-0.1-0.2-0.2c-0.1-0.1-0.1-0.2-0.1-0.3c0-0.1,0.1-0.3,0.1-0.4s0.2-0.3,0.3-0.5
			c0.1-0.2,0.3-0.4,0.5-0.6c0.2-0.2,0.4-0.4,0.7-0.7c0.5-0.5,1.1-1,1.8-1.5c0.4-0.3,0.7-0.6,1.1-0.8c0.4-0.3,0.8-0.6,1.3-0.9
			c0.7-0.4,1.4-0.9,2.1-1.4"/>
	</g>
	<g id="SPLINE_74_">
		<path class="st0" d="M205.3,421.9c1.3-0.8,2.7-1.6,4.2-2.6c1.5-0.9,3.1-2,4.6-3.2c1.6-1.2,3.2-2.6,4.7-4.1s2.9-3.3,4.2-5.3
			c1.2-1.9,2.3-4.1,3-6.3c0.8-2.2,1.3-4.6,1.4-6.9c0.1-1.2,0.1-2.4,0-3.6c-0.1-1.2-0.2-2.4-0.4-3.5c-0.2-1.2-0.5-2.3-0.8-3.5
			c-0.3-1.1-0.7-2.3-1-3.4"/>
	</g>
	<g id="SPLINE_75_">
		<path class="st0" d="M225.2,379.5c-1.1-3.5-2.2-7.1-3.3-10.6c-1.1-3.5-2.2-7.1-3.4-10.6c-1.2-3.5-2.3-7.1-3.6-10.6
			c-1.2-3.5-2.5-7-3.8-10.5c-2.6-7-5.4-13.8-8.5-20.6c-3-6.8-6.2-13.5-9.6-20.1c-3.4-6.6-7-13.1-10.8-19.5
			c-3.8-6.4-7.8-12.7-11.9-18.8c-4.2-6.1-8.5-12.1-13.2-17.8c-4.7-5.7-9.7-11.1-14.9-16.1"/>
	</g>
	<g id="SPLINE_76_">
		<path class="st0" d="M236.8,460.3c-0.6-2.7-1.2-5.3-1.7-8"/>
	</g>
	<g id="SPLINE_77_">
		<path class="st0" d="M235,452.3c0-0.1-0.1-0.2-0.1-0.4c0-0.1-0.1-0.3-0.1-0.4c0-0.1-0.1-0.3-0.1-0.4c-0.1-0.1-0.1-0.3-0.2-0.4
			c-0.1-0.1-0.1-0.2-0.2-0.4c-0.1-0.1-0.1-0.2-0.2-0.4c-0.1-0.1-0.2-0.2-0.2-0.4c-0.2-0.4-0.5-0.7-0.8-1c-0.4-0.4-0.9-0.8-1.3-1.1
			c-0.5-0.4-1.1-0.6-1.7-0.9c-0.4-0.2-0.8-0.3-1.2-0.4c-0.5-0.1-1-0.2-1.6-0.2c-0.5,0-0.9,0.1-1.4,0.2c-0.4,0.1-0.9,0.2-1.3,0.4
			c-0.4,0.2-0.8,0.4-1.1,0.7c-0.3,0.2-0.5,0.5-0.8,0.8c-0.3,0.3-0.5,0.7-0.7,1.1c-0.1,0.3-0.2,0.5-0.3,0.8c-0.1,0.5-0.2,1-0.3,1.5
			c0,0.2,0,0.5,0,0.8c0,0.2,0,0.5,0,0.7c0,0.2,0.1,0.4,0.1,0.6c0,0.2,0.1,0.4,0.1,0.6"/>
	</g>
	<g id="SPLINE_78_">
		<path class="st0" d="M221.8,454.4c0.6,2.7,1.3,5.3,1.9,8"/>
	</g>
	<g id="SPLINE_79_">
		<path class="st0" d="M223.7,462.4c0,0.1,0.1,0.3,0.1,0.4c0,0.1,0.1,0.3,0.1,0.4c0,0.1,0.1,0.3,0.1,0.4c0.1,0.1,0.1,0.3,0.2,0.4
			c0.1,0.1,0.1,0.3,0.2,0.4c0.1,0.1,0.1,0.2,0.2,0.4c0.1,0.1,0.1,0.2,0.2,0.4c0.2,0.4,0.5,0.7,0.8,1.1c0.3,0.4,0.7,0.8,1.1,1.1
			c0.5,0.4,1,0.7,1.6,1c0.3,0.1,0.6,0.2,0.9,0.3c0.5,0.1,1,0.2,1.4,0.2c0.5,0,0.9-0.1,1.3-0.2c0.4-0.1,0.9-0.3,1.3-0.5
			c0.4-0.2,0.9-0.5,1.2-0.8c0.4-0.3,0.7-0.7,1.1-1.1c0.2-0.3,0.4-0.6,0.6-0.9c0.2-0.4,0.4-0.8,0.5-1.2c0.1-0.4,0.2-0.7,0.2-1.1
			c0-0.3,0.1-0.6,0.1-0.9c0-0.3,0-0.6,0-0.8c0-0.3-0.1-0.5-0.1-0.8"/>
	</g>
	<g id="LINE_95_">
		<line class="st0" x1="268.4" y1="422.4" x2="268" y2="422.5"/>
	</g>
	<g id="SPLINE_80_">
		<path class="st0" d="M157.4,180.1c-0.1,0.1-0.2,0.1-0.3,0.2"/>
	</g>
	<g id="SPLINE_81_">
		<path class="st0" d="M157.4,180.1c0.6-0.4,1.2-0.8,1.8-1.3c0.5-0.4,1-0.8,1.4-1.2c0,0,0,0,0,0"/>
	</g>
	<g id="SPLINE_82_">
		<path class="st0" d="M197.7,428c-0.2,0-0.3,0-0.4,0c-0.4,0-0.5-0.2-0.4-0.5c0-0.3,0.2-0.6,0.5-1c0.3-0.4,0.8-0.9,1.4-1.5
			c0.7-0.6,1.5-1.3,2.4-2c1-0.7,2.3-1.6,3.5-2.4"/>
	</g>
	<g id="SPLINE_83_">
		<path class="st0" d="M84,236c0.1,0.3,0.3,0.7,0.4,1c0.2,0.3,0.3,0.6,0.5,0.9c0.2,0.3,0.5,0.6,0.7,0.9c0.3,0.4,0.7,0.7,1.1,0.9
			c0.1,0.1,0.2,0.1,0.4,0.2"/>
	</g>
	<g id="SPLINE_84_">
		<path class="st0" d="M84,236c-0.1-0.1-0.1-0.3-0.2-0.4c-0.1-0.2-0.1-0.3-0.2-0.5c-0.1-0.2-0.1-0.4-0.1-0.6c-0.1-0.3-0.2-0.7-0.2-1
			c0-0.2-0.1-0.5-0.1-0.7c-0.1-0.7-0.1-1.4-0.1-2.1c0-0.6,0.1-1.3,0.2-1.9c0.2-1.4,0.6-2.9,1.1-4.4c0.5-1.4,1.3-2.9,2.2-4.3
			c0.8-1.3,1.8-2.5,2.9-3.7c1-1.1,2.2-2.1,3.6-3.1c1.1-0.8,2.3-1.5,3.6-2.1c1.2-0.6,2.6-1.1,4-1.5c1.4-0.4,3-0.7,4.5-0.8
			c1.5-0.1,3.1-0.2,4.7-0.1c1.6,0.1,3.2,0.3,4.7,0.6c1.6,0.3,3.2,0.8,4.8,1.3c1,0.3,1.9,0.7,2.9,1.1c1,0.4,1.9,0.9,2.9,1.4
			c1,0.5,2,1.1,2.9,1.7c1,0.6,2,1.3,3,1.9c0.8,0.6,1.7,1.2,2.5,1.8c0.9,0.7,1.7,1.4,2.6,2.1c0.8,0.7,1.5,1.3,2.3,2
			c0.9,0.8,1.8,1.7,2.8,2.6"/>
	</g>
	<g id="SPLINE_85_">
		<path class="st0" d="M141.1,225.3c0.5,0.4,0.9,0.9,1.4,1.3c0.5,0.5,1,0.9,1.4,1.4c0.5,0.5,1,1,1.5,1.5c0.5,0.5,1,1,1.5,1.6
			c0.5,0.5,1,1.1,1.5,1.6c0.5,0.6,1,1.1,1.6,1.7c0.5,0.6,1.1,1.2,1.6,1.8c0.5,0.6,1.1,1.2,1.6,1.8c1,1.1,1.9,2.2,2.8,3.4
			c1.1,1.3,2.2,2.7,3.3,4.1c1.1,1.4,2.1,2.7,3.2,4.1c2,2.7,3.9,5.4,5.8,8.2c3.2,4.7,6.3,9.5,9.3,14.3c2,3.2,3.9,6.5,5.8,9.8
			c2.2,3.8,4.3,7.6,6.4,11.5c2.4,4.5,4.6,9,6.8,13.5c4.3,9,8.3,18.3,11.9,27.6c1.8,4.6,3.5,9.3,5.1,14c1,2.9,2,5.9,3,8.8
			c0.5,1.5,1,3,1.5,4.5c0.4,1.3,0.8,2.6,1.2,3.9c0.8,2.6,1.6,5.1,2.4,7.7c0.7,2.2,1.4,4.4,2.1,6.5"/>
	</g>
	<g id="SPLINE_86_">
		<path class="st0" d="M223.8,380c0.2,0.6,0.4,1.2,0.6,1.8c0.2,0.6,0.3,1.1,0.5,1.7c0.3,1,0.5,1.9,0.7,2.9c0.3,1.4,0.4,2.8,0.5,4.3
			c0,1.1,0,2.3-0.1,3.4c-0.1,1.1-0.3,2.3-0.6,3.4c-0.4,1.8-1,3.5-1.7,5.1c-0.6,1.3-1.3,2.5-2,3.7c-0.8,1.2-1.6,2.3-2.5,3.4
			c-1.1,1.2-2.2,2.4-3.3,3.4c-1.2,1.1-2.5,2-3.7,2.9c-0.6,0.4-1.2,0.9-1.8,1.3c-0.7,0.5-1.4,0.9-2.1,1.4c-0.2,0.1-0.4,0.3-0.7,0.4
			c-0.4,0.2-0.8,0.5-1.1,0.7c-0.3,0.2-0.6,0.4-1,0.6c-0.2,0.1-0.5,0.3-0.7,0.4"/>
	</g>
	<g id="SPLINE_87_">
		<path class="st0" d="M276,504.4c-0.1,0-0.2,0.1-0.3,0.1"/>
	</g>
	<g id="SPLINE_88_">
		<path class="st0" d="M208.5,529.2c0.1,0.2,0.2,0.3,0.4,0.5c0.3,0.3,0.6,0.6,0.9,0.8c0.4,0.3,0.8,0.6,1.2,0.8
			c0.5,0.3,1,0.5,1.5,0.7c0.5,0.2,1,0.4,1.5,0.5c0.4,0.1,0.9,0.2,1.4,0.3c0.5,0.1,1.1,0.2,1.6,0.3c0.5,0.1,1,0.1,1.4,0.1
			c0.5,0,1,0,1.5,0c0.9,0,1.8,0,2.7-0.1c0.9-0.1,1.7-0.2,2.6-0.3c0.9-0.1,1.7-0.3,2.6-0.5c0.9-0.2,1.8-0.4,2.7-0.7c1-0.3,2-0.6,3-1
			c1-0.4,2-0.8,3-1.2c0.9-0.4,1.8-0.7,2.6-1.2c0.9-0.4,1.8-0.8,2.7-1.3c1-0.5,2-1,2.9-1.5c1.3-0.7,2.6-1.4,3.9-2.2
			c1.3-0.8,2.6-1.5,3.9-2.3c0.8-0.5,1.6-1,2.4-1.5c0.7-0.4,1.3-0.8,1.9-1.2c0.6-0.4,1.2-0.7,1.7-1c0.9-0.5,1.8-1.1,2.7-1.6
			c0.6-0.3,1.1-0.6,1.6-1c0.5-0.3,1.1-0.6,1.6-0.9c0.5-0.3,1-0.6,1.5-0.8c0.5-0.3,1-0.5,1.5-0.8c0.5-0.2,0.9-0.5,1.4-0.7
			c0.5-0.2,1-0.4,1.5-0.6c0.4-0.2,0.8-0.3,1.2-0.5c0.3-0.1,0.6-0.2,0.9-0.3c0.3-0.1,0.6-0.2,0.9-0.3c0.4-0.1,0.7-0.2,1.1-0.4
			c0.4-0.1,0.8-0.3,1.1-0.4c0.3-0.1,0.7-0.3,1-0.4c0.3-0.1,0.6-0.2,0.9-0.4c0.3-0.1,0.6-0.2,0.8-0.3"/>
	</g>
	<g id="ARC_6_">
		<path class="st0" d="M141.1,225.3c0.5-0.2,0.8-0.5,1-1"/>
	</g>
	<g id="ARC_7_">
		<path class="st0" d="M225.2,379.5c-0.5,0.1-0.9,0.2-1.4,0.4"/>
	</g>
	<g id="SPLINE_89_">
		<path class="st0" d="M275.7,504.6c-0.1-0.2-0.2-0.5-0.3-0.7c-0.1-0.2-0.3-0.3-0.5-0.4"/>
	</g>
	<g id="SPLINE_90_">
		<path class="st0" d="M213.8,532.5c0.5,0.2,1.1,0.4,1.7,0.6c1.5,0.4,3.3,0.5,5.3,0.4c1.9-0.1,4-0.3,6.1-0.7
			c2.1-0.4,4.4-1.1,6.7-1.9c2.3-0.8,4.7-1.8,7-2.9c2.4-1.1,4.8-2.4,7.1-3.7c2.4-1.3,4.7-2.7,7.1-4.1c2.3-1.4,4.6-2.7,6.8-4
			c1.1-0.6,2.2-1.2,3.2-1.8c1-0.6,2.1-1.1,3.1-1.6c1.3-0.6,2.6-1.2,3.9-1.6c1.3-0.4,2.5-0.8,3.6-1.1c1.1-0.4,2.2-0.8,3.2-1.2"/>
	</g>
	<g id="SPLINE_91_">
		<path class="st0" d="M278.7,508c0,0.2,0.1,0.3,0.1,0.5c0,0.2,0,0.3-0.1,0.5"/>
	</g>
	<g id="SPLINE_92_">
		<path class="st0" d="M278.8,508.9c-0.1,0-0.1,0.1-0.2,0.1"/>
	</g>
	<g id="SPLINE_93_">
		<path class="st0" d="M101.8,164.3c-0.5,0.3-1,0.7-1.6,0.9c-0.5,0.2-1.2,0.4-1.8,0.6c-0.7,0.1-1.4,0.2-2.2,0.3
			c-0.7,0-1.5,0-2.3-0.1c-0.8-0.1-1.6-0.2-2.4-0.4c-0.8-0.2-1.6-0.4-2.5-0.7c-0.8-0.3-1.6-0.6-2.4-1c-0.8-0.4-1.5-0.8-2.2-1.2
			c-1.3-0.8-2.4-1.8-3.2-2.7c-0.5-0.6-0.9-1.1-1.2-1.7c-0.4-0.6-0.6-1.2-0.7-1.8c-0.2-0.9,0-1.7,0.1-2.5"/>
	</g>
	<g id="SPLINE_94_">
		<path class="st0" d="M103.4,162.1c0,0,0,0.1,0,0.1c-0.1,0.2-0.1,0.4-0.2,0.5c-0.1,0.2-0.2,0.3-0.3,0.5c-0.3,0.4-0.7,0.8-1.1,1.1"
			/>
	</g>
	<g id="SPLINE_95_">
		<path class="st0" d="M131.6,167.6C131.6,167.6,131.6,167.6,131.6,167.6c0,0.4-0.3,0.6-0.5,0.9c-0.2,0.2-0.5,0.5-0.8,0.7
			c-0.3,0.2-0.7,0.4-1.1,0.5c-0.4,0.1-0.9,0.2-1.3,0.3c-0.5,0-1,0.1-1.5,0c-0.5,0-1.1-0.1-1.6-0.2c-0.6-0.1-1.2-0.3-1.7-0.5
			c-0.6-0.2-1.2-0.4-1.8-0.7c-0.5-0.2-1-0.5-1.5-0.8c-0.5-0.3-1-0.7-1.5-1.1c0,0-0.1,0-0.1-0.1c0,0-0.1-0.1-0.1-0.1
			c-0.2-0.1-0.3-0.3-0.5-0.4c-0.5-0.5-0.9-1.1-1.3-1.6"/>
	</g>
	<g id="SPLINE_96_">
		<path class="st0" d="M116.4,164.4c-0.3-0.7-0.7-1.5-0.7-2.1c0-0.6,0.2-1.1,0.4-1.6"/>
	</g>
	<g id="SPLINE_97_">
		<path class="st0" d="M71.5,146.4c-1,0.6-1.9,1.1-3.2,1.5c-0.7,0.2-1.5,0.3-2.3,0.4c-0.7,0.1-1.4,0.1-2.2,0.1c-0.4,0-0.9,0-1.3-0.1
			c-0.4,0-0.9-0.1-1.3-0.2c-0.8-0.1-1.7-0.3-2.5-0.5c-0.8-0.2-1.6-0.5-2.3-0.7c-0.7-0.3-1.4-0.6-2.1-0.9c-0.7-0.4-1.3-0.7-1.9-1.1
			c-0.6-0.4-1.2-0.9-1.7-1.3c-0.5-0.5-0.9-0.9-1.3-1.4c-0.4-0.5-0.7-1-0.9-1.5c-0.2-0.5-0.3-0.9-0.4-1.4c-0.1-0.5-0.1-1,0.1-1.5
			c0-0.1,0-0.1,0.1-0.2"/>
	</g>
	<g id="SPLINE_98_">
		<path class="st0" d="M73,144.2c0,0,0,0.1,0,0.1c-0.1,0.2-0.2,0.5-0.3,0.7c-0.3,0.5-0.8,0.9-1.2,1.4"/>
	</g>
	<g id="SPLINE_99_">
		<path class="st0" d="M66.8,114.1c0.2-0.1,0.4-0.1,0.5-0.2c0.2,0,0.4-0.1,0.6-0.1c0.2,0,0.4-0.1,0.6-0.1c0.2,0,0.4-0.1,0.6-0.1
			c0.2,0,0.4-0.1,0.6-0.1c0.2,0,0.4-0.1,0.6-0.1c0.2,0,0.4,0,0.6-0.1c0.2,0,0.4,0,0.6-0.1c0.2,0,0.4,0,0.7,0c0.9,0,1.9,0,2.9,0
			c1,0,2,0.1,3.1,0.2c1.2,0.1,2.4,0.3,3.6,0.6c1.2,0.2,2.5,0.5,3.7,0.9c0.8,0.2,1.5,0.4,2.3,0.7c0.7,0.2,1.5,0.5,2.2,0.8
			c0.4,0.1,0.7,0.3,1.1,0.4c0.3,0.1,0.7,0.3,1,0.4c0.3,0.1,0.6,0.3,1,0.4c0.3,0.1,0.6,0.3,0.9,0.4"/>
	</g>
	<g id="SPLINE_100_">
		<path class="st0" d="M101.2,149.6c-1.1-0.6-2.2-1.3-3.2-1.9c-1.1-0.6-2.2-1.3-3.2-1.9c-1.1-0.6-2.2-1.3-3.3-1.9
			c-1.1-0.6-2.2-1.2-3.3-1.9c-1.1-0.6-2.2-1.2-3.3-1.8c-1.1-0.6-2.2-1.2-3.3-1.8c-1.1-0.6-2.2-1.2-3.3-1.8c-1.1-0.6-2.2-1.2-3.3-1.8
			c-1.1-0.6-2.2-1.2-3.3-1.7"/>
	</g>
	<g id="SPLINE_101_">
		<path class="st0" d="M133.1,151.1c-0.1,0.1-0.1,0.2-0.2,0.4c-0.1,0.1-0.2,0.2-0.3,0.3c-0.1,0.1-0.2,0.2-0.3,0.3
			c-0.1,0.1-0.2,0.2-0.3,0.3c-0.1,0.1-0.2,0.2-0.3,0.3c-0.1,0.1-0.2,0.2-0.4,0.3c-0.4,0.3-0.8,0.5-1.2,0.8c-0.4,0.2-0.9,0.4-1.4,0.6
			c-0.5,0.2-1,0.3-1.6,0.5c-0.6,0.1-1.1,0.3-1.8,0.3c-1.2,0.2-2.6,0.3-4,0.2c-1.1,0-2.3-0.1-3.5-0.3c-1.2-0.1-2.4-0.4-3.7-0.6
			c-1.4-0.3-2.9-0.7-4.3-1.2c-0.6-0.2-1.2-0.4-1.8-0.6c-0.6-0.2-1.2-0.5-1.8-0.7c-0.4-0.2-0.8-0.3-1.2-0.5c-0.4-0.2-0.8-0.4-1.2-0.5
			c-0.3-0.2-0.7-0.3-1-0.5c-0.3-0.2-0.6-0.3-0.9-0.5c-0.3-0.2-0.6-0.3-0.8-0.5"/>
	</g>
	<g id="SPLINE_102_">
		<path class="st0" d="M123.4,134.7c0.2,0.1,0.3,0.2,0.5,0.3c0.2,0.1,0.3,0.2,0.5,0.3c0.2,0.1,0.3,0.2,0.5,0.3
			c0.2,0.1,0.3,0.2,0.5,0.3c0.2,0.1,0.3,0.2,0.5,0.4c0.2,0.1,0.3,0.3,0.5,0.4c0.5,0.4,1.1,0.9,1.6,1.3c0.5,0.4,1,0.9,1.4,1.3
			c0.4,0.4,0.7,0.8,1.1,1.1c0.3,0.4,0.6,0.8,0.9,1.2c0.3,0.4,0.6,0.9,0.9,1.3c0.3,0.4,0.5,0.9,0.7,1.3c0.3,0.6,0.5,1.1,0.6,1.6
			c0.2,0.5,0.3,1.1,0.3,1.6c0,0.3,0,0.5,0,0.8c0,0.3,0,0.5-0.1,0.8c0,0.3-0.1,0.5-0.2,0.7c-0.1,0.2-0.1,0.5-0.2,0.7
			c-0.1,0.2-0.2,0.5-0.3,0.7"/>
	</g>
	<g id="SPLINE_103_">
		<path class="st0" d="M93.9,118.2c1.1,0.6,2.2,1.1,3.3,1.7c1.1,0.6,2.2,1.2,3.3,1.7c1.1,0.6,2.2,1.2,3.3,1.8
			c1.1,0.6,2.2,1.2,3.3,1.8c1.1,0.6,2.2,1.2,3.3,1.8c1.1,0.6,2.2,1.2,3.3,1.9c1.1,0.6,2.2,1.3,3.3,1.9c1.1,0.6,2.2,1.3,3.3,1.9
			c1.1,0.6,2.2,1.3,3.3,1.9"/>
	</g>
	<g id="SPLINE_104_">
		<path class="st0" d="M121.2,117.4c-0.4,0.2-0.9,0.3-1.4,0.5c-0.4,0.1-0.8,0.1-1.3,0.1c-0.6,0-1.1,0-1.8-0.1
			c-0.6-0.1-1.2-0.1-1.8-0.3c-1.2-0.2-2.4-0.6-3.6-1c-1.1-0.4-2.2-0.9-3.3-1.4c-1-0.5-1.9-1.1-2.7-1.7c-0.8-0.6-1.4-1.3-1.8-1.9
			c-0.2-0.3-0.4-0.6-0.5-0.9c-0.1-0.3-0.2-0.7-0.1-0.9c0-0.1,0.1-0.2,0.1-0.3"/>
	</g>
	<g id="SPLINE_105_">
		<path class="st0" d="M122.2,116.2c0,0.1-0.1,0.2-0.1,0.3c-0.1,0.2-0.2,0.3-0.3,0.4c-0.2,0.2-0.4,0.3-0.6,0.4"/>
	</g>
	<g id="SPLINE_106_">
		<path class="st0" d="M88.2,90c-0.5-0.1-1-0.2-1.5-0.3c-0.5-0.1-1-0.2-1.5-0.3c-0.5-0.1-1-0.2-1.5-0.3c-0.5-0.1-1-0.2-1.5-0.3
			c-0.5-0.1-1-0.2-1.5-0.3c-0.5-0.1-1-0.2-1.5-0.3c-0.5-0.1-1-0.2-1.5-0.3c-1.8-0.3-3.5-0.6-5.3-0.8c-1.7-0.2-3.5-0.5-5.2-0.6
			c-1.8-0.2-3.5-0.3-5.2-0.4c-1.7-0.1-3.4-0.2-5.1-0.2c-3.4-0.1-6.7,0-9.8,0.1c-3.2,0.2-6.2,0.5-9.1,1c-1.4,0.2-2.8,0.5-4.2,0.8
			c-1.4,0.3-2.7,0.6-3.9,1c-1.2,0.4-2.5,0.7-3.6,1.1c-1.2,0.4-2.3,0.9-3.4,1.3c-0.5,0.2-1,0.5-1.5,0.7c-0.5,0.2-1,0.5-1.5,0.8
			c-0.5,0.3-0.9,0.5-1.4,0.8c-0.5,0.3-0.9,0.6-1.3,0.8"/>
	</g>
	<g id="LINE_96_">
		<line class="st0" x1="88.3" y1="90" x2="88.2" y2="90"/>
	</g>
	<g id="SPLINE_107_">
		<path class="st0" d="M88.3,90c2.9,0.7,5.8,1.4,8.6,2.3c0.7,0.2,1.3,0.4,2,0.6"/>
	</g>
	<g id="SPLINE_108_">
		<path class="st0" d="M133.6,107.8c1.8,1.1,3.7,2.1,5.5,3.2c2.5,1.6,4.8,3.2,7.1,4.9c2.2,1.7,4.3,3.3,6.3,5.1
			c1.9,1.7,3.7,3.4,5.4,5.2c1.6,1.7,3.1,3.4,4.4,5.1c1.3,1.7,2.5,3.3,3.4,5c1,1.6,1.7,3.2,2.5,4.8"/>
	</g>
	<g id="SPLINE_109_">
		<path class="st0" d="M168.1,141c0.1,0.2,0.2,0.5,0.3,0.7"/>
	</g>
	<g id="SPLINE_110_">
		<path class="st0" d="M159.8,169.8c0.2-0.2,0.5-0.3,0.7-0.5c0.2-0.2,0.5-0.3,0.7-0.5c0.2-0.2,0.5-0.3,0.7-0.5
			c0.2-0.2,0.4-0.4,0.7-0.5c0.2-0.2,0.4-0.4,0.6-0.5s0.4-0.4,0.6-0.6c0.2-0.2,0.4-0.4,0.6-0.6c0.2-0.2,0.4-0.4,0.6-0.6
			c0.2-0.2,0.4-0.4,0.5-0.6c0.2-0.2,0.3-0.4,0.5-0.6c0.8-1,1.6-2.1,2.2-3.2c0.6-1.1,1.1-2.3,1.5-3.5c0.4-1.2,0.6-2.4,0.8-3.7
			c0.1-1.3,0.1-2.6,0-3.9c0-0.5-0.1-1.1-0.2-1.6c-0.1-0.5-0.2-1.1-0.3-1.6c-0.1-0.5-0.2-1.1-0.4-1.6c-0.2-0.5-0.3-1.1-0.5-1.6
			c-0.2-0.6-0.4-1.1-0.6-1.7"/>
	</g>
	<g id="SPLINE_111_">
		<path class="st0" d="M159.8,169.8c-10.8,7.1-28.6,9.9-49.6,7.8s-43.4-8.9-62.3-18.9c-18.9-10-32.7-22.5-38.5-34.6
			s-2.9-22.9,7.8-30"/>
	</g>
	<g id="SPLINE_112_">
		<path class="st0" d="M161.4,175.6c1.3-0.9,2.6-1.9,3.8-2.9c1.2-1,2.2-2.1,3-3.2s1.6-2.3,2.3-3.6s1.2-2.5,1.5-3.8
			c0-0.1,0-0.2,0.1-0.4"/>
	</g>
	<g id="SPLINE_113_">
		<path class="st0" d="M3.3,108.4c-0.3,0.7-0.6,1.4-0.8,2c-0.6,1.7-0.7,3.6-0.7,5.5c0.1,1.9,0.3,3.9,0.8,5.9s1.3,4.1,2.2,6.1
			s2.2,4.2,3.7,6.3c1.4,2.1,3.1,4.2,5,6.3c1.9,2.1,4,4.2,6.3,6.2c2.3,2.1,4.8,4.1,7.4,6c2.6,2,5.5,3.9,8.4,5.8
			c3,1.9,6.1,3.7,9.3,5.4s6.6,3.4,10,4.9c3.5,1.5,7,3,10.6,4.3c3.6,1.3,7.3,2.6,11,3.7c3.7,1.1,7.4,2.1,11.1,3s7.5,1.6,11.1,2.3
			c3.7,0.6,7.3,1.1,10.9,1.5c3.6,0.4,7.1,0.6,10.6,0.7c3.4,0.1,6.8,0,10-0.2c3.2-0.2,6.3-0.5,9.3-1c2.9-0.5,5.7-1.1,8.4-1.8
			c2.6-0.7,5.1-1.6,7.3-2.6s4.2-2.1,6.2-3.3"/>
	</g>
	<g id="LINE_97_">
		<line class="st0" x1="161.3" y1="175.8" x2="161.4" y2="175.6"/>
	</g>
	<g id="SPLINE_114_">
		<path class="st0" d="M161.3,175.8c-2,1.1-3.9,2.3-6.2,3.3s-4.7,1.8-7.3,2.6c-2.6,0.7-5.4,1.3-8.4,1.8c-2.9,0.5-6,0.8-9.3,1
			c-3.2,0.2-6.6,0.2-10,0.2c-3.4-0.1-7-0.3-10.6-0.7c-3.6-0.4-7.3-0.9-10.9-1.5c-3.7-0.6-7.4-1.4-11.1-2.3c-3.7-0.9-7.5-1.9-11.2-3
			c-3.7-1.1-7.4-2.4-11-3.7c-3.6-1.3-7.1-2.8-10.6-4.3c-3.5-1.5-6.8-3.2-10-4.9s-6.4-3.5-9.3-5.4c-3-1.9-5.8-3.8-8.4-5.8
			c-2.7-2-5.1-4-7.4-6.1s-4.4-4.1-6.3-6.2s-3.6-4.2-5-6.3c-1.4-2.1-2.7-4.2-3.7-6.3c-1-2.1-1.7-4.1-2.2-6.1s-0.7-4-0.8-5.9
			c-0.1-1.9,0.1-3.8,0.7-5.5c0.2-0.7,0.5-1.4,0.8-2"/>
	</g>
	<g id="SPLINE_115_">
		<path class="st0" d="M171.9,162c0,0.1,0,0.1,0,0.2c-0.2,1.8-1.1,3.5-2.1,5.1c-1,1.6-2.1,3.2-3.5,4.6c-1.4,1.4-3.2,2.7-4.9,4"/>
	</g>
	<g id="LWPOLYLINE_1_">
		<polyline class="st0" points="2,112 1.6,114.1 1.4,117.4 1.7,120.7 2.4,124.1 3.7,127.6 5.4,131.2 7.5,134.7 10.1,138.3 
			13.1,141.9 16.5,145.5 20.3,149.1 24.5,152.5 29.1,155.9 33.9,159.2 39.1,162.3 44.5,165.4 50.2,168.2 56,170.9 62.1,173.4 
			68.2,175.7 74.5,177.8 80.9,179.7 87.2,181.3 93.6,182.7 100,183.8 106.2,184.7 112.4,185.3 118.4,185.7 124.2,185.8 129.8,185.6 
			135.2,185.1 140.3,184.4 145.1,183.4 149.6,182.1 153.8,180.6 157.5,178.9 160.9,176.9 163.8,174.8 166.4,172.4 168.4,169.8 
			170,167 170.7,165.4 		"/>
	</g>
	<g id="SPLINE_116_">
		<path class="st0" d="M44.3,211.6c-0.2-0.5-0.4-1-0.7-1.5c-0.3-0.6-0.6-1.3-0.9-1.9c-0.2-0.4-0.4-0.8-0.6-1.1
			c-0.4-0.7-0.7-1.4-1.1-2.1c-0.6-1-1.2-2-1.9-3.1c-0.6-0.9-1.2-1.7-1.8-2.6c-0.7-0.9-1.4-1.9-2.1-2.9c-0.7-0.9-1.4-1.8-2.1-2.7
			c-1.4-1.7-2.8-3.5-4.3-5.1c-0.9-1-1.8-2-2.7-3c-0.7-0.8-1.5-1.6-2.2-2.3c-0.5-0.5-0.9-1-1.3-1.4c-0.3-0.3-0.6-0.7-1-1
			c-0.3-0.4-0.7-0.7-1-1.1c-0.3-0.3-0.5-0.6-0.8-0.9"/>
	</g>
	<g id="LINE_98_">
		<line class="st0" x1="12.6" y1="166" x2="12.5" y2="165.9"/>
	</g>
	<g id="LINE_99_">
		<line class="st0" x1="63.4" y1="235.5" x2="63.1" y2="235.4"/>
	</g>
	<g id="SPLINE_117_">
		<path class="st0" d="M268.2,422.4c-0.1,0-0.3,0.1-0.4,0.1c-0.1,0-0.3,0.1-0.4,0.1c-0.1,0.1-0.3,0.1-0.4,0.2
			c-0.1,0.1-0.3,0.1-0.4,0.2c-0.1,0.1-0.3,0.1-0.4,0.2c-0.1,0.1-0.3,0.2-0.4,0.2c-0.1,0.1-0.3,0.2-0.4,0.3c-0.1,0.1-0.3,0.2-0.4,0.3
			c-0.1,0.1-0.3,0.2-0.4,0.3c-0.1,0.1-0.3,0.2-0.4,0.4c-0.2,0.1-0.3,0.2-0.5,0.4c-0.2,0.1-0.3,0.3-0.5,0.4c-0.5,0.4-1,0.9-1.4,1.4
			c-0.5,0.5-1,1.1-1.4,1.7c-0.5,0.6-1,1.3-1.5,2c-0.5,0.7-1,1.5-1.5,2.3c-1,1.7-2,3.5-2.8,5.4c-0.8,1.8-1.4,3.7-1.9,5.7
			c-0.4,1.7-0.7,3.4-0.7,5.1c-0.1,1.5,0,3.1,0.3,4.6c0.3,1.5,0.7,2.9,1.3,4.3c0.7,1.6,1.6,3,2.6,4.4c1.2,1.6,2.6,3.1,4,4.5
			c1.5,1.4,3.2,2.7,4.8,3.8c0.7,0.5,1.5,1,2.3,1.4c0.7,0.4,1.5,0.8,2.2,1.2c0.7,0.3,1.3,0.6,2,0.8c0.6,0.2,1.2,0.5,1.9,0.6
			c0.4,0.1,0.7,0.2,1.1,0.3c0.4,0.1,0.7,0.1,1.1,0.2c0.3,0.1,0.7,0.1,1,0.1c0.3,0,0.6,0,0.9,0c0.3,0,0.6,0,0.9-0.1
			c0.3,0,0.5-0.1,0.8-0.2"/>
	</g>
	<g id="SPLINE_118_">
		<path class="st0" d="M278.8,475.1c0.7-0.3,1.4-0.5,1.9-0.9c0.3-0.2,0.5-0.5,0.8-0.7c0.2-0.3,0.5-0.6,0.6-1
			c0.1-0.2,0.2-0.5,0.3-0.7c0.1-0.3,0.2-0.6,0.3-0.8c0.1-0.3,0.2-0.6,0.2-1c0-0.2,0.1-0.3,0.1-0.5c0-0.2,0.1-0.4,0.1-0.6
			c0-0.2,0-0.5,0.1-0.7c0-0.3,0-0.5,0-0.8c0-0.3,0-0.6,0-0.9c0-0.5,0-1.1-0.1-1.7c0-0.1,0-0.1,0-0.2"/>
	</g>
	<g id="SPLINE_119_">
		<path class="st0" d="M277.3,432.3c-0.1-0.2-0.1-0.4-0.2-0.7c-0.2-0.7-0.4-1.4-0.7-2.1c-0.2-0.6-0.5-1.3-0.7-1.8
			c-0.3-0.6-0.5-1.1-0.8-1.6c-0.2-0.4-0.5-0.8-0.8-1.2c-0.3-0.4-0.6-0.7-0.9-1c-0.3-0.3-0.6-0.5-0.9-0.7c-0.6-0.4-1.3-0.7-2-0.8
			c-0.4,0-0.8,0-1.2,0.1"/>
	</g>
	<g id="LINE_100_">
		<line class="st0" x1="268.6" y1="422.4" x2="268.2" y2="422.4"/>
	</g>
	<g id="SPLINE_120_">
		<path class="st0" d="M277.5,433.7c0.1,0.4,0.2,0.7,0.3,1.1c0.1,0.5,0.3,1.1,0.4,1.6c0.1,0.6,0.3,1.1,0.4,1.7
			c0.2,0.7,0.3,1.5,0.5,2.2c0.1,0.7,0.3,1.5,0.4,2.2c0,0.2,0.1,0.4,0.1,0.6"/>
	</g>
	<g id="SPLINE_121_">
		<path class="st0" d="M281,450.5c0.1,0.8,0.3,1.6,0.4,2.4c0.1,0.8,0.3,1.7,0.4,2.5c0.1,0.6,0.2,1.1,0.3,1.7
			c0.1,0.6,0.2,1.1,0.2,1.7c0.1,0.6,0.1,1.1,0.2,1.6c0.1,0.5,0.1,1,0.2,1.5c0,0,0,0.1,0,0.1"/>
	</g>
	<g id="SPLINE_122_">
		<path class="st0" d="M278.5,473.3c-0.1,0-0.2,0.1-0.4,0.1c-0.1,0-0.2,0-0.4,0.1c-0.1,0-0.3,0-0.4,0c-0.1,0-0.3,0-0.4,0
			c-0.1,0-0.3,0-0.4,0c-0.1,0-0.3,0-0.4,0c-0.1,0-0.3,0-0.4,0c-0.4,0-0.7-0.1-1.1-0.2c-0.4-0.1-0.8-0.2-1.2-0.3
			c-0.7-0.2-1.5-0.5-2.2-0.8c-0.8-0.3-1.6-0.7-2.4-1.1c-1.3-0.7-2.6-1.4-3.8-2.3c-0.7-0.5-1.3-0.9-2-1.5c-0.6-0.5-1.3-1-1.9-1.6
			c-0.8-0.8-1.6-1.6-2.3-2.4c-0.7-0.8-1.4-1.7-2-2.6c-0.9-1.4-1.7-3-2.3-4.6c-0.5-1.6-0.9-3.3-1-5c-0.1-1.2,0-2.4,0.1-3.6
			c0.1-1.3,0.4-2.5,0.7-3.7c0.4-1.7,1-3.3,1.6-4.9c0.5-1.3,1.1-2.5,1.8-3.7c0.4-0.8,0.9-1.5,1.3-2.2c0.4-0.7,0.9-1.4,1.4-2
			c0.7-0.9,1.4-1.8,2.1-2.6c0.7-0.8,1.4-1.4,2.1-2c0.3-0.2,0.5-0.4,0.8-0.6c0.3-0.2,0.5-0.4,0.8-0.5c0.3-0.2,0.5-0.3,0.8-0.4
			c0.3-0.1,0.5-0.2,0.8-0.3c0.3-0.1,0.5-0.2,0.7-0.2"/>
	</g>
	<g id="LINE_101_">
		<line class="st0" x1="268" y1="422.5" x2="268.2" y2="422.4"/>
	</g>
	<g id="SPLINE_123_">
		<path class="st0" d="M278.3,472.9c-0.9,0.2-1.8,0.3-2.9,0.1s-2.2-0.4-3.4-0.9c-1.2-0.4-2.4-1-3.7-1.7c-1.2-0.7-2.5-1.5-3.7-2.4
			c-1.2-0.9-2.4-1.9-3.5-2.9c-1.1-1.1-2.2-2.2-3.1-3.5s-1.8-2.6-2.4-4c-0.7-1.4-1.1-2.9-1.4-4.5c-0.3-1.5-0.3-3.1-0.3-4.7
			c0.1-1.6,0.4-3.1,0.7-4.7c0.8-3.1,2-6,3.5-8.6c0.7-1.3,1.5-2.6,2.4-3.8c0.8-1.2,1.7-2.2,2.6-3.2c0.9-0.9,1.8-1.7,2.7-2.3
			s1.8-1,2.7-1.3"/>
	</g>
	<g id="SPLINE_124_">
		<path class="st0" d="M278.3,472.9c0.1,0.1,0.2,0.2,0.2,0.4"/>
	</g>
	<g id="SPLINE_125_">
		<path class="st0" d="M268.6,424.2c0,0.1,0,0.3,0,0.4"/>
	</g>
	<g id="SPLINE_126_">
		<path class="st0" d="M258.6,452c-0.1-0.5-0.2-1-0.2-1.4s-0.1-1-0.2-1.4c0-0.5-0.1-1-0.1-1.4c0-0.5,0-0.9,0-1.4s0-0.9,0.1-1.4
			c0-0.5,0.1-0.9,0.1-1.3s0.1-0.9,0.2-1.3c0-0.2,0.1-0.4,0.1-0.6c0-0.2,0.1-0.4,0.2-0.6s0.1-0.4,0.2-0.6c0.1-0.2,0.1-0.4,0.2-0.5
			c0.1-0.4,0.3-0.7,0.4-1s0.3-0.6,0.5-0.9c0.2-0.3,0.4-0.6,0.6-0.8c0.2-0.2,0.4-0.5,0.6-0.7c0.2-0.2,0.4-0.4,0.7-0.5
			s0.5-0.3,0.7-0.4s0.5-0.2,0.8-0.3"/>
	</g>
	<g id="SPLINE_127_">
		<path class="st0" d="M268.9,464.6c-0.4,0.1-0.8,0.1-1.2,0.1c-0.5,0-1.1-0.2-1.6-0.5c-0.5-0.2-1.1-0.6-1.6-1s-1-0.9-1.5-1.5
			s-1-1.2-1.4-2s-0.9-1.5-1.2-2.3s-0.7-1.7-1-2.6s-0.5-1.9-0.7-2.8"/>
	</g>
	<g id="LINE_102_">
		<line class="st0" x1="269.2" y1="464.6" x2="278.3" y2="472.9"/>
	</g>
	<g id="LINE_103_">
		<line class="st0" x1="268.5" y1="424.6" x2="263.4" y2="435.5"/>
	</g>
	<g id="LWPOLYLINE_2_">
		<polyline class="st0" points="205.3,421.9 205.4,421.8 205.5,421.6 205.5,421.4 205.5,421.1 205.3,420.9 205.1,420.7 204.9,420.6 
			204.6,420.7 		"/>
	</g>
	<g id="SPLINE_128_">
		<path class="st0" d="M271.1,463.6c-0.1,0.1-0.3,0.3-0.4,0.4c-0.4,0.4-1,0.5-1.5,0.7"/>
	</g>
	<g id="LINE_104_">
		<line class="st0" x1="263.4" y1="435.5" x2="263.7" y2="435.4"/>
	</g>
	<g id="SPLINE_129_">
		<path class="st0" d="M264.2,435.4c0.2,0,0.5-0.1,0.7-0.1c0.4,0,0.8,0.2,1.2,0.3"/>
	</g>
	<g id="SPLINE_130_">
		<path class="st0" d="M84.6,146.9c2.8-1.8,9-1.2,13.8,1.4c4.9,2.6,6.6,6.2,3.8,8"/>
	</g>
	<g id="SPLINE_131_">
		<path class="st0" d="M102.2,156.3c-1.3,0.9-3.5,1.2-6.1,1c-2.6-0.3-5.4-1.1-7.7-2.3c-2.3-1.2-4.1-2.8-4.8-4.3s-0.4-2.8,1-3.7"/>
	</g>
	<g id="ARC_8_">
		<path class="st0" d="M221.8,454.4c1.4-0.2,2.7-0.5,4-1"/>
	</g>
	<g id="ARC_9_">
		<path class="st0" d="M223.7,462.4c1.4-0.2,2.7-0.5,4-1"/>
	</g>
	<g id="SPLINE_132_">
		<path class="st0" d="M227.7,461.4c-0.7-2.6-1.3-5.3-2-8"/>
	</g>
	<g id="SPLINE_133_">
		<path class="st0" d="M54.1,129.3c2.8-1.8,9-1.2,13.8,1.4c4.9,2.6,6.6,6.2,3.8,8"/>
	</g>
	<g id="SPLINE_134_">
		<path class="st0" d="M71.7,138.7c-1.3,0.9-3.5,1.2-6.1,1c-2.6-0.3-5.4-1.1-7.7-2.3s-4.1-2.8-4.8-4.3s-0.4-2.8,1-3.7"/>
	</g>
	<g id="ARC_10_">
		<path class="st0" d="M120.7,165.9c-0.5,0.4-0.9,0.9-1.1,1.5"/>
	</g>
	<g id="SPLINE_135_">
		<path class="st0" d="M120.7,158.7c1-0.1,2.2,0,3.4,0.4c1.2,0.3,2.4,0.9,3.4,1.5s1.9,1.5,2.5,2.3c0.6,0.8,0.9,1.6,0.9,2.4
			c0,0.7-0.3,1.4-0.9,1.9s-1.5,0.8-2.5,0.8s-2.2-0.1-3.4-0.5c-1.2-0.4-2.4-0.9-3.4-1.6"/>
	</g>
	<g id="SPLINE_136_">
		<path class="st0" d="M116.4,164.4c0.7,1.1,1.8,2.1,3.1,3"/>
	</g>
	<g id="SPLINE_137_">
		<path class="st0" d="M120.7,165.9c-1-0.7-1.8-1.4-2.4-2.2c-0.6-0.8-0.9-1.6-0.9-2.3s0.3-1.4,0.9-1.8c0.6-0.5,1.4-0.8,2.4-0.8"/>
	</g>
	<g id="SPLINE_138_">
		<path class="st0" d="M101.2,149.6c0.3-0.2,0.5-0.3,0.7-0.4c0.2-0.1,0.4-0.1,0.5,0"/>
	</g>
	<g id="SPLINE_139_">
		<path class="st0" d="M102.5,149.2c0.1,0.1,0.2,0.1,0.3,0.2c0.1,0.1,0.2,0.1,0.3,0.2c0.1,0.1,0.3,0.1,0.4,0.2
			c0.2,0.1,0.4,0.2,0.6,0.3c0.2,0.1,0.5,0.2,0.7,0.3c0.7,0.3,1.4,0.6,2.1,0.9c1,0.4,2.1,0.8,3.2,1.2c1.3,0.4,2.5,0.8,3.8,1
			c1,0.2,1.9,0.4,2.9,0.5c1.2,0.2,2.3,0.3,3.4,0.3c1.1,0,2.2,0,3.2-0.2c1.2-0.2,2.3-0.4,3.2-0.8c0.3-0.1,0.6-0.2,0.9-0.4
			c0.3-0.1,0.5-0.3,0.8-0.4c0.2-0.1,0.5-0.3,0.7-0.5c0.2-0.2,0.4-0.3,0.6-0.5c0.2-0.2,0.4-0.4,0.5-0.6c0.2-0.2,0.3-0.4,0.4-0.6"/>
	</g>
	<g id="ARC_11_">
		<path class="st0" d="M133.1,151.1c-0.8-0.4-1.7-0.6-2.6-0.6"/>
	</g>
	<g id="SPLINE_140_">
		<path class="st0" d="M121.7,136.3c-0.5,0.6-0.9,1.2-1.4,1.7c-0.5,0.5-0.9,1-1.4,1.5c-0.9,0.9-1.8,1.7-2.7,2.4
			c-0.9,0.7-1.7,1.4-2.6,2c-0.8,0.6-1.7,1.2-2.5,1.7s-1.6,1.1-2.4,1.6s-1.6,1-2.4,1.3c-0.8,0.4-1.5,0.7-2.2,0.8
			c-0.7,0.1-1.3,0.1-1.7-0.1"/>
	</g>
	<g id="SPLINE_141_">
		<path class="st0" d="M121.7,136.3c0.4,0.2,0.8,0.5,1.2,0.8c0.4,0.3,0.8,0.5,1.2,0.8c0.8,0.6,1.6,1.1,2.3,1.7
			c1.4,1.2,2.6,2.5,3.4,3.8c0.8,1.3,1.3,2.6,1.4,3.8c0.1,1.2-0.1,2.3-0.7,3.3"/>
	</g>
	<g id="LINE_105_">
		<line class="st0" x1="72.9" y1="132.7" x2="73.1" y2="132.8"/>
	</g>
	<g id="SPLINE_142_">
		<path class="st0" d="M94.8,144.7c-2.3-1.3-4.6-2.7-6.9-4c-4.9-2.8-9.9-5.4-14.8-8"/>
	</g>
	<g id="SPLINE_143_">
		<path class="st0" d="M92.2,119.8c-0.5,0.6-0.9,1.2-1.4,1.7c-0.5,0.5-0.9,1-1.4,1.5c-0.9,0.9-1.8,1.7-2.7,2.4s-1.7,1.4-2.5,2
			c-0.8,0.6-1.7,1.2-2.5,1.7s-1.6,1.1-2.4,1.6s-1.6,1-2.4,1.3c-0.8,0.4-1.5,0.7-2.2,0.8c-0.7,0.1-1.3,0.1-1.8-0.1"/>
	</g>
	<g id="SPLINE_144_">
		<path class="st0" d="M92.2,119.8c9.9,5.1,19.8,10.6,29.4,16.5"/>
	</g>
	<g id="ARC_12_">
		<path class="st0" d="M68.7,116.3c-0.5-0.9-1.1-1.6-2-2.2"/>
	</g>
	<g id="LINE_106_">
		<line class="st0" x1="73.1" y1="132.8" x2="71.8" y2="132"/>
	</g>
	<g id="SPLINE_145_">
		<path class="st0" d="M68.7,116.3c1.5-0.5,3.2-0.8,5.1-0.8c1.9-0.1,4,0,6.1,0.3s4.3,0.8,6.4,1.6c1.1,0.4,2.1,0.8,3.1,1.2
			c0.5,0.2,1,0.4,1.5,0.7c0.5,0.2,0.9,0.4,1.4,0.7"/>
	</g>
	<g id="LINE_107_">
		<line class="st0" x1="37.6" y1="225.9" x2="37.5" y2="225.9"/>
	</g>
	<g id="SPLINE_146_">
		<path class="st0" d="M123.4,134.7c-0.3,0.2-0.5,0.4-0.8,0.7c-0.3,0.3-0.6,0.6-0.9,1"/>
	</g>
	<g id="SPLINE_147_">
		<path class="st0" d="M139.3,87.9c-0.4,0.1-0.8,0.3-1.1,0.4"/>
	</g>
	<g id="SPLINE_148_">
		<path class="st0" d="M220.5,59.8c-2,0.7-4,1.4-6,2.2c-2.2,0.8-4.5,1.6-6.7,2.4c-2.5,0.9-5,1.8-7.5,2.7c-2.9,1-5.8,2-8.7,3.1
			c-3.9,1.4-7.7,2.7-11.6,4c-4,1.4-7.9,2.7-11.9,4c-2.8,1-5.7,1.9-8.5,2.9c-3.7,1.2-7.3,2.4-11,3.7c-3.2,1.1-6.3,2.1-9.5,3.2"/>
	</g>
	<g id="SPLINE_149_">
		<path class="st0" d="M264.1,75.6c-7.1-2.3-14.3-4.7-21.6-7.3c-3.6-1.3-7.3-2.7-11-4.1s-7.3-2.8-11-4.3"/>
	</g>
	<g id="SPLINE_150_">
		<path class="st0" d="M264.1,75.6c-8.4,4.4-16.2,8.5-23.7,12.4s-14.7,7.7-21.6,11.4s-13.6,7.3-20.2,10.9c-6.6,3.6-13,7.2-19.4,10.9
			"/>
	</g>
	<g id="SPLINE_151_">
		<path class="st0" d="M168.1,141c-0.1-0.3-0.2-0.5-0.3-0.8c-0.1-0.3-0.2-0.5-0.3-0.8c-0.1-0.2-0.2-0.5-0.2-0.7
			c-0.1-0.2-0.1-0.5-0.2-0.7c-0.1-0.4-0.2-0.8-0.2-1.2c-0.1-0.4-0.1-0.8-0.1-1.2c0-0.7,0.1-1.4,0.2-2.1c0.2-0.7,0.4-1.4,0.7-2.2
			c0.4-0.8,0.8-1.5,1.4-2.3c0.6-0.8,1.3-1.5,2-2.2c0.5-0.4,1-0.9,1.5-1.3c0.5-0.4,1.1-0.9,1.7-1.3c0.7-0.5,1.4-1,2.2-1.4
			c0.9-0.6,1.8-1.1,2.7-1.6"/>
	</g>
	<g id="SPLINE_152_">
		<path class="st0" d="M138.1,88.3c-2,0.6-4,1.3-6,1.8c-2,0.5-4.1,0.8-6.2,1.2"/>
	</g>
	<g id="SPLINE_153_">
		<path class="st0" d="M99.6,91.7c-1.7-0.2-3.4-0.3-5.1-0.6c-2.1-0.3-4.1-0.7-6.1-1.2"/>
	</g>
	<g id="SPLINE_154_">
		<path class="st0" d="M93.9,118.2c-0.3,0.2-0.5,0.4-0.8,0.7c-0.3,0.3-0.6,0.6-0.9,1"/>
	</g>
	<g id="SPLINE_155_">
		<path class="st0" d="M265.9,79c0,0,0.1,0,0.1,0c0.1-0.1,0.2-0.2,0.2-0.3c0.1-0.1,0.1-0.3,0.1-0.4c0-0.2,0-0.3-0.1-0.5
			c0-0.2-0.1-0.4-0.2-0.5c-0.1-0.2-0.2-0.4-0.3-0.5c-0.1-0.2-0.2-0.3-0.4-0.4c-0.1-0.1-0.3-0.2-0.4-0.3c-0.3-0.2-0.6-0.3-0.9-0.4"/>
	</g>
	<g id="SPLINE_156_">
		<path class="st0" d="M104.1,89.1c2.1-1.4,5.5-1.9,9.5-1.5c4,0.4,8.4,1.7,12,3.6s6.3,4.3,7.4,6.7s0.6,4.4-1.5,5.8"/>
	</g>
	<g id="SPLINE_157_">
		<path class="st0" d="M131.6,103.7c-2.1,1.4-5.5,1.9-9.5,1.5c-4-0.4-8.4-1.7-12-3.6s-6.3-4.3-7.4-6.7c-1.1-2.3-0.6-4.4,1.5-5.8"/>
	</g>
	<g id="LWPOLYLINE_3_">
		<polyline class="st0" points="119.6,111.1 119.5,111.1 117.2,110.7 		"/>
	</g>
	<g id="LWPOLYLINE_4_">
		<polyline class="st0" points="110.8,108.7 108.5,107.7 107.9,107.4 		"/>
	</g>
	<g id="ARC_13_">
		<path class="st0" d="M109.5,108.2c2.6,1.4,5.4,2.3,8.4,2.6"/>
	</g>
	<g id="SPLINE_158_">
		<path class="st0" d="M265.6,32.8c-0.2-0.2-0.4-0.3-0.6-0.5c-0.2-0.2-0.4-0.3-0.6-0.5c-0.2-0.2-0.4-0.3-0.6-0.5
			c-0.3-0.2-0.6-0.4-0.8-0.7c-0.6-0.5-1.3-1-2-1.5c-0.4-0.3-0.7-0.5-1.1-0.8c-0.4-0.3-0.9-0.6-1.3-1c-0.6-0.4-1.2-0.9-1.8-1.3
			c-0.7-0.5-1.5-1.1-2.2-1.6c-1.1-0.8-2.3-1.7-3.5-2.5c-1.5-1-3-2.1-4.5-3.1c-1.9-1.2-3.9-2.4-5.9-3.5c-2.4-1.3-4.8-2.5-7.2-3.4
			c-0.8-0.3-1.5-0.6-2.3-0.8c-0.9-0.3-1.8-0.6-2.7-0.8c-0.4-0.1-0.8-0.2-1.2-0.3c-0.4-0.1-0.7-0.2-1.1-0.3c-0.3-0.1-0.6-0.1-0.9-0.2
			c-0.3-0.1-0.6-0.1-0.9-0.2c-0.6-0.1-1.1-0.2-1.7-0.2c-0.9-0.1-1.7-0.2-2.6-0.2c-1.2,0-2.3,0-3.5,0.1c-1.2,0.1-2.3,0.3-3.4,0.5
			c-1.1,0.2-2.2,0.5-3.3,0.9c-0.6,0.2-1.3,0.5-1.9,0.7c-0.6,0.3-1.1,0.5-1.7,0.8c-0.5,0.3-1,0.6-1.5,0.9c-0.4,0.3-0.8,0.5-1.2,0.8
			c-0.2,0.2-0.4,0.3-0.6,0.5c-0.1,0.1-0.2,0.1-0.3,0.2c-0.2,0.1-0.3,0.2-0.4,0.4c-0.1,0.1-0.2,0.1-0.2,0.2c-0.1,0.1-0.3,0.3-0.4,0.4
			c-0.4,0.4-0.8,0.8-1.2,1.2c-0.3,0.4-0.6,0.7-0.9,1.1c-1.1,1.4-2.1,3-2.8,4.7c-0.6,1.4-1,2.9-1.3,4.5c-0.2,1.6-0.3,3.2-0.1,4.7
			c0.1,1.2,0.4,2.5,0.8,3.6c0.3,0.8,0.6,1.6,0.9,2.3c0.3,0.6,0.6,1.2,1,1.8c0.2,0.4,0.5,0.8,0.8,1.1c0.2,0.3,0.5,0.6,0.7,0.9
			c0.5,0.6,1,1.1,1.5,1.6c0.3,0.3,0.5,0.6,0.8,0.8c0.1,0.1,0.3,0.3,0.4,0.4c0.2,0.2,0.4,0.4,0.5,0.5c0.2,0.2,0.4,0.3,0.5,0.5"/>
	</g>
	<g id="SPLINE_159_">
		<path class="st0" d="M269.2,29.9c-0.4-0.4-0.8-0.7-1.2-1.1c-0.4-0.4-0.9-0.8-1.3-1.2c-0.5-0.4-1-0.8-1.5-1.2
			c-0.5-0.3-0.9-0.7-1.4-1c-0.4-0.3-0.8-0.6-1.2-0.8c-0.4-0.3-0.8-0.6-1.2-0.9c-0.5-0.3-0.9-0.7-1.4-1c-0.3-0.2-0.5-0.4-0.8-0.6
			c-0.3-0.2-0.6-0.4-0.8-0.6c-0.3-0.2-0.6-0.4-0.8-0.6c-0.3-0.2-0.6-0.4-0.9-0.6c-0.3-0.2-0.6-0.4-0.9-0.6c-0.6-0.4-1.1-0.8-1.7-1.2
			c-0.6-0.4-1.2-0.8-1.8-1.2c-0.6-0.4-1.2-0.8-1.9-1.2c-0.6-0.4-1.3-0.8-1.9-1.2c-0.7-0.4-1.3-0.8-2-1.2c-1.2-0.7-2.5-1.4-3.7-2
			c-1.3-0.7-2.7-1.3-4-1.9c-0.9-0.4-1.8-0.7-2.6-1.1c-0.9-0.4-1.9-0.7-2.8-1c-0.9-0.3-1.7-0.5-2.5-0.7c-0.9-0.2-1.9-0.4-2.8-0.6
			c-0.8-0.2-1.7-0.3-2.5-0.4c-0.9-0.1-1.8-0.2-2.7-0.2c-1.5,0-2.9,0-4.3,0.2c-1.3,0.1-2.5,0.4-3.7,0.7c-0.8,0.2-1.6,0.4-2.4,0.7
			c-0.8,0.3-1.5,0.6-2.3,0.9c-0.7,0.3-1.4,0.7-2.1,1.1c-0.6,0.3-1.1,0.7-1.7,1.1c-0.5,0.4-0.9,0.7-1.4,1.1"/>
	</g>
	<g id="SPLINE_160_">
		<path class="st0" d="M266.4,31.7c0.1,0.1,0.2,0.2,0.3,0.3"/>
	</g>
	<g id="LINE_108_">
		<line class="st0" x1="203.2" y1="13.1" x2="202.7" y2="13.6"/>
	</g>
	<g id="ARC_14_">
		<path class="st0" d="M203.4,45.1c0.1,0.1,0.1,0.2,0.2,0.2"/>
	</g>
	<g id="ARC_15_">
		<path class="st0" d="M265.6,32.8c0.4-0.3,0.7-0.7,0.8-1.1"/>
	</g>
	<g id="ARC_16_">
		<path class="st0" d="M107.4,107.2c3.8,2.6,8.3,4,12.9,4.1"/>
	</g>
	<g id="SPLINE_161_">
		<path class="st0" d="M122.4,111.3c-0.3,0.1-0.7,0.3-1,0.4c-1,0.2-2.3,0.2-3.7,0.1c-1.4-0.2-2.8-0.4-4.1-0.8s-2.7-1-3.9-1.6
			c-1.2-0.6-2.4-1.4-3.1-2.1c-0.4-0.4-0.6-0.8-0.9-1.1"/>
	</g>
	<g id="SPLINE_162_">
		<path class="st0" d="M210.3,8.2c-0.1,0-0.2,0-0.2,0.1c-0.1,0-0.1,0.1-0.2,0.1"/>
	</g>
	<g id="ARC_17_">
		<path class="st0" d="M269.2,29.9c0.1-0.2,0.1-0.5-0.1-0.7"/>
	</g>
	<g id="SPLINE_163_">
		<path class="st0" d="M256.8,14.2c-0.4-0.3-0.7-0.7-1.1-1c-0.4-0.4-0.8-0.7-1.2-1.1c-0.4-0.4-0.9-0.8-1.3-1.2
			c-0.4-0.3-0.7-0.6-1.1-0.9c-0.4-0.3-0.8-0.6-1.1-0.9c-0.4-0.3-0.8-0.6-1.2-0.9c-0.9-0.7-1.9-1.4-3-2.1c-0.4-0.2-0.8-0.5-1.2-0.7
			c-0.4-0.2-0.9-0.5-1.3-0.7c-0.5-0.2-1-0.5-1.5-0.7c-0.2-0.1-0.4-0.2-0.7-0.3c-0.3-0.1-0.6-0.2-0.9-0.3c-0.4-0.1-0.7-0.3-1.1-0.4
			c-0.4-0.1-0.8-0.2-1.2-0.3c-0.3-0.1-0.7-0.2-1-0.3c-0.3-0.1-0.6-0.1-0.9-0.2c-0.2,0-0.5-0.1-0.7-0.1c-0.5-0.1-1.1-0.2-1.6-0.2
			c-0.5-0.1-1-0.1-1.5-0.1c-0.4,0-0.9,0-1.3-0.1c-1.5,0-3,0.1-4.3,0.3c-0.7,0.1-1.3,0.2-1.9,0.4c-0.2,0.1-0.4,0.1-0.7,0.2"/>
	</g>
	<g id="SPLINE_164_">
		<path class="st0" d="M269.1,29.1c0.1,0.1,0.1,0.1,0.2,0.2"/>
	</g>
	<g id="SPLINE_165_">
		<path class="st0" d="M220.5,59.8c-0.3-0.1-0.6-0.3-0.8-0.4c-0.1-0.1-0.2-0.2-0.3-0.2c-0.1-0.1-0.2-0.1-0.3-0.2
			c-0.1,0-0.2-0.1-0.2-0.1c0,0,0,0-0.1,0"/>
	</g>
	<g id="SPLINE_166_">
		<path class="st0" d="M228.8,55.8c-2.8,1.3-5.5,2.7-8.3,4"/>
	</g>
	<g id="SPLINE_167_">
		<path class="st0" d="M272,68c-7.3-1.6-14.6-3.5-21.8-5.5c-7.2-2-14.4-4.2-21.4-6.7"/>
	</g>
	<g id="LINE_109_">
		<line class="st0" x1="264.1" y1="75.6" x2="272" y2="68"/>
	</g>
	<g id="LINE_110_">
		<line class="st0" x1="228.8" y1="55.8" x2="228.9" y2="55.4"/>
	</g>
	<g id="LINE_111_">
		<line class="st0" x1="272" y1="68" x2="272.1" y2="67.6"/>
	</g>
	<g id="SPLINE_168_">
		<path class="st0" d="M272.6,79.2c0.3,0,0.6,0,0.8,0c0.4,0,0.8-0.1,1.2-0.2c0.4-0.1,0.8-0.2,1.1-0.4c0.4-0.1,0.7-0.3,1-0.5
			c0.3-0.2,0.6-0.4,0.8-0.6c0.3-0.2,0.5-0.5,0.7-0.8c0.2-0.3,0.4-0.6,0.5-0.9c0.1-0.3,0.3-0.7,0.3-1c0.1-0.4,0.1-0.7,0.1-1.1
			c0-0.4,0-0.8-0.1-1.1c-0.1-0.3-0.2-0.5-0.3-0.8c-0.1-0.3-0.3-0.5-0.4-0.8c-0.2-0.2-0.4-0.5-0.6-0.7c-0.2-0.2-0.5-0.4-0.8-0.6
			c-0.3-0.2-0.7-0.4-1-0.6c-0.4-0.2-0.8-0.3-1.2-0.5c-0.5-0.2-1-0.3-1.5-0.4c-0.5-0.1-1-0.2-1.5-0.3"/>
	</g>
	<g id="SPLINE_169_">
		<path class="st0" d="M228.8,55.8c-1.3-0.5-2.5-0.9-3.8-1.3c-0.6-0.2-1.1-0.3-1.6-0.4c-0.5-0.1-1-0.2-1.4-0.2c-0.4,0-0.8,0-1.1,0
			c-0.3,0-0.6,0.1-0.8,0.2c-0.2,0.1-0.4,0.2-0.4,0.4c0,0.1,0,0.2,0,0.2"/>
	</g>
	<g id="SPLINE_170_">
		<path class="st0" d="M275.4,462.8c-0.4,0.1-0.9,0.1-1.3,0.1c-0.3,0-0.6-0.1-0.9-0.1c-0.3-0.1-0.6-0.2-0.9-0.3
			c-0.4-0.1-0.8-0.3-1.2-0.6c-0.4-0.2-0.8-0.5-1.2-0.7c-0.5-0.3-0.9-0.7-1.4-1.1c-0.4-0.4-0.9-0.9-1.3-1.4c-0.3-0.4-0.7-0.8-1-1.3
			c-0.3-0.5-0.6-0.9-0.9-1.4c-0.4-0.8-0.8-1.6-1.1-2.4c-0.3-0.8-0.5-1.6-0.7-2.5"/>
	</g>
	<g id="SPLINE_171_">
		<path class="st0" d="M263.6,451.1c-0.1-0.8-0.3-1.7-0.3-2.5c-0.1-0.9,0-1.8,0.1-2.7c0.1-0.6,0.1-1.2,0.3-1.7
			c0.1-0.5,0.2-1.1,0.4-1.6c0.2-0.6,0.4-1.2,0.7-1.8c0.2-0.6,0.5-1.1,0.8-1.6c0.2-0.4,0.5-0.8,0.8-1.2c0.3-0.4,0.6-0.7,0.9-1.1
			c0.5-0.5,1-0.9,1.5-1.2c0.5-0.3,1-0.6,1.5-0.7c0.1,0,0.3,0,0.4,0"/>
	</g>
	<g id="LWPOLYLINE_5_">
		<polyline class="st0" points="280.4,447 280.5,447 280.5,447 		"/>
	</g>
	<g id="SPLINE_172_">
		<path class="st0" d="M244.5,541.8c0.7-0.2,1.4-0.3,2.2-0.5c1.4-0.3,2.8-0.7,4.2-1.1c1.4-0.4,2.7-0.7,3.8-1.1
			c0.4-0.1,0.8-0.2,1.2-0.4"/>
	</g>
	<g id="SPLINE_173_">
		<path class="st0" d="M267.1,534.3c3.9-1.7,7.8-3.4,11.5-5.5c3.8-2,7.5-4.4,11.1-6.9c3.6-2.6,7.1-5.3,10.6-8.4s6.8-6.3,10-9.7
			c3.2-3.5,6.4-7.1,9.4-11c3-3.9,5.9-8,8.7-12.3c2.8-4.3,5.5-8.8,8-13.5c2.5-4.7,4.8-9.7,7.2-14.6"/>
	</g>
	<g id="LINE_112_">
		<line class="st0" x1="264.5" y1="22.1" x2="256.8" y2="14.2"/>
	</g>
	<g id="ARC_18_">
		<path class="st0" d="M278.8,508.9c17.4-7.4,32.7-18.9,44.6-33.5"/>
	</g>
	<g id="SPLINE_174_">
		<path class="st0" d="M233.5,501.2c2.5-0.8,5-1.7,7.6-2.2c2.7-0.6,5.5-0.9,8.3-1c2.8-0.1,5.7,0.1,8.5,0.4c2.9,0.4,5.7,0.9,8.6,1.8
			c2.8,0.9,5.6,2,8.4,3.2"/>
	</g>
	<g id="SPLINE_175_">
		<path class="st0" d="M244.9,95.6c3.1,4.9,6.1,9.8,9.1,14.9c2.9,5.1,5.8,10.4,8.5,15.8c2.7,5.4,5.3,10.9,7.9,16.5
			c2.5,5.6,4.9,11.3,7.2,17.2c2.3,5.8,4.4,11.7,6.5,17.7c2,6,4,12,5.7,18.2c1.8,6.1,3.4,12.3,5,18.5s2.9,12.5,4.2,18.8
			c1.3,6.3,2.4,12.6,3.4,19c1,6.3,1.8,12.7,2.5,19c0.7,6.3,1.3,12.7,1.7,19c0.4,6.3,0.7,12.6,0.8,18.8c0.1,6.2,0.1,12.4-0.1,18.6
			s-0.5,12.2-0.9,18.2c-0.5,6-1.1,11.9-1.8,17.8s-1.6,11.6-2.6,17.2c-0.8,4.4-1.8,8.8-2.7,13.1"/>
	</g>
	<g id="SPLINE_176_">
		<path class="st0" d="M267.1,534.3c-0.1,0.2-0.3,0.5-0.5,0.6c-0.1,0.1-0.2,0.1-0.3,0.2"/>
	</g>
	<g id="SPLINE_177_">
		<path class="st0" d="M206.1,526c0,0,0,0.1,0.1,0.1c0.2,0.3,0.5,0.5,0.7,0.8c0.4,0.4,0.9,0.7,1.4,1.1c0.6,0.4,1.3,0.7,2,0.9
			c0.4,0.2,0.9,0.3,1.4,0.4c0.5,0.1,1.1,0.3,1.7,0.4c0.6,0.1,1.3,0.2,2,0.2c0.4,0,0.8,0,1.2,0.1c0.5,0,1,0,1.4,0
			c0.6,0,1.1,0,1.7-0.1c0.7-0.1,1.3-0.1,2-0.2c0.8-0.1,1.7-0.3,2.5-0.4c0.8-0.2,1.6-0.3,2.4-0.6c0.7-0.2,1.5-0.4,2.2-0.6
			c0.7-0.2,1.4-0.5,2.2-0.7c0.7-0.2,1.3-0.5,2-0.7c0.6-0.2,1.2-0.5,1.8-0.7c0.5-0.2,1.1-0.5,1.6-0.7c0.7-0.3,1.4-0.6,2.1-1
			c0.7-0.3,1.3-0.6,2-1c0.6-0.3,1.3-0.6,1.9-1c0.6-0.3,1.2-0.6,1.8-0.9c0.9-0.5,1.8-1,2.6-1.5c0.8-0.5,1.7-1,2.5-1.4
			c0.8-0.5,1.6-0.9,2.3-1.4c1.4-0.8,2.7-1.7,4.1-2.5c1.3-0.8,2.5-1.5,3.7-2.3c1.2-0.7,2.3-1.4,3.4-2c0.4-0.2,0.7-0.4,1.1-0.6
			c0.4-0.2,0.7-0.4,1-0.6c0.3-0.2,0.7-0.4,1-0.5c0.3-0.2,0.7-0.3,1-0.5c0.3-0.2,0.7-0.3,1-0.5c0.5-0.2,1-0.4,1.4-0.6
			c0.5-0.2,0.9-0.4,1.4-0.6c0.3-0.1,0.7-0.2,1-0.4c0.4-0.1,0.8-0.3,1.2-0.4c0.3-0.1,0.6-0.2,0.9-0.3c0.3-0.1,0.6-0.2,0.8-0.3
			c0.3-0.1,0.5-0.2,0.8-0.3"/>
	</g>
	<g id="SPLINE_178_">
		<path class="st0" d="M274.9,503.5c-1.6,0.5-3.3,1-5,1.7c-1.8,0.7-3.7,1.6-5.7,2.6c-2,1.1-4.1,2.3-6.2,3.6
			c-2.2,1.3-4.4,2.7-6.7,4.1c-2.3,1.4-4.6,2.8-6.9,4.1c-2.3,1.3-4.7,2.6-7,3.7c-2.3,1.1-4.6,2.1-6.9,2.9c-2.3,0.8-4.5,1.4-6.6,1.8
			c-2.1,0.4-4.1,0.7-6,0.7c-1.9,0-3.6-0.1-5.2-0.4c-1.5-0.3-2.9-0.8-4-1.4c-1.1-0.6-2-1.4-2.6-2.2c-0.6-0.8-0.8-1.7-0.8-2.6
			c0-0.9,0.1-1.9,1-2.6c0,0,0,0,0.1,0"/>
	</g>
	<g id="SPLINE_179_">
		<path class="st0" d="M230.5,543.6c0,0,0.1,0,0.1,0.1c0.1,0,0.1,0,0.2,0c0.1,0,0.2,0,0.3,0c0.1,0,0.2,0,0.3,0c0.1,0,0.2,0,0.3,0
			c0.2,0,0.5,0,0.8-0.1c0.3,0,0.6-0.1,0.9-0.1c0.3,0,0.6-0.1,0.9-0.1c0.6-0.1,1.2-0.2,1.9-0.3c0.7-0.1,1.4-0.3,2.2-0.4
			c0.5-0.1,1-0.2,1.5-0.3c0.5-0.1,1.1-0.2,1.7-0.4c0.6-0.1,1.2-0.3,1.8-0.4c0.4-0.1,0.7-0.2,1.1-0.3c0.4-0.1,0.8-0.2,1.2-0.3
			c0.4-0.1,0.9-0.2,1.3-0.3c0.5-0.1,0.9-0.2,1.4-0.4c0.3-0.1,0.7-0.2,1-0.3c0.4-0.1,0.9-0.2,1.3-0.4c0.5-0.1,0.9-0.3,1.3-0.4
			c0.3-0.1,0.5-0.2,0.8-0.2c0.7-0.2,1.5-0.4,2.1-0.6c0.6-0.2,1.2-0.4,1.7-0.5c0.9-0.3,1.7-0.5,2.5-0.8c0.4-0.1,0.9-0.3,1.3-0.4
			c0.4-0.1,0.8-0.3,1.2-0.4c0.5-0.2,1-0.3,1.4-0.5c0.3-0.1,0.6-0.2,0.9-0.3c0.6-0.2,1.1-0.4,1.7-0.6c0.6-0.2,1.1-0.4,1.6-0.6"/>
	</g>
	<g id="LINE_113_">
		<line class="st0" x1="71.8" y1="133.1" x2="71.5" y2="133"/>
	</g>
	<g id="SPLINE_180_">
		<path class="st0" d="M67.2,130.2C67.1,130.2,67.1,130.2,67.2,130.2c-0.3-0.2-0.6-0.5-0.9-0.7c-0.3-0.2-0.5-0.4-0.8-0.6
			c-0.2-0.2-0.5-0.4-0.7-0.6c-0.2-0.2-0.5-0.4-0.7-0.7c-0.2-0.2-0.4-0.5-0.6-0.7c-0.2-0.2-0.4-0.5-0.6-0.7c-0.2-0.2-0.4-0.5-0.5-0.7
			c-0.2-0.2-0.3-0.5-0.5-0.7c-0.3-0.4-0.5-0.9-0.7-1.3c-0.2-0.5-0.4-1-0.5-1.4c-0.1-0.5-0.2-1-0.2-1.5c0-0.7,0.1-1.4,0.4-2.1
			c0.3-0.7,0.7-1.3,1.2-1.8c0.5-0.6,1.2-1.1,2-1.5c0.8-0.4,1.7-0.8,2.7-1.1"/>
	</g>
	<g id="SPLINE_181_">
		<path class="st0" d="M88.2,90c-0.3-0.3-0.5-0.6-0.9-0.7c-0.1,0-0.1,0-0.2,0"/>
	</g>
	<g id="SPLINE_182_">
		<path class="st0" d="M168.4,141.7c0.5,0,1,0.1,1.5,0.2c0.2,0,0.4,0.1,0.5,0.2c0,0.1,0.1,0.1,0.1,0.2"/>
	</g>
	<g id="LINE_114_">
		<line class="st0" x1="3.4" y1="108.3" x2="3.3" y2="108.4"/>
	</g>
	<g id="ARC_19_">
		<path class="st0" d="M12.6,166c1.4,4.8,3.9,9.2,7.4,12.8"/>
	</g>
	<g id="SPLINE_183_">
		<path class="st0" d="M63.1,235.4c-0.2,0-0.4-0.1-0.6-0.1c-0.6-0.1-1.1-0.3-1.7-0.5c-0.5-0.2-1.1-0.5-1.6-0.8c-0.5-0.3-1-0.6-1.5-1
			c-0.4-0.3-0.7-0.6-1.1-0.9c-0.4-0.3-0.7-0.7-1.1-1.1c-0.4-0.4-0.7-0.8-1.1-1.2c-0.4-0.4-0.7-0.9-1.1-1.4c-0.4-0.5-0.7-1-1.1-1.5
			c-0.4-0.5-0.7-1.1-1.1-1.7c-0.4-0.6-0.7-1.2-1.1-1.8c-0.4-0.6-0.7-1.3-1.1-2c-0.2-0.3-0.3-0.6-0.5-0.9c-0.2-0.3-0.3-0.6-0.5-0.9
			c-0.2-0.3-0.3-0.6-0.5-0.9c-0.2-0.3-0.3-0.6-0.5-1c-0.2-0.3-0.3-0.7-0.5-1c-0.1-0.3-0.3-0.6-0.4-0.9c-0.1-0.2-0.2-0.5-0.3-0.7
			c-0.1-0.3-0.3-0.6-0.4-0.9c-0.4-0.9-0.8-1.7-1.2-2.6"/>
	</g>
	<g id="SPLINE_184_">
		<path class="st0" d="M268.6,424.2c0.4-0.1,0.8-0.2,1.1-0.2c0.2,0,0.3,0,0.5,0c0.1,0,0.1,0,0.2,0c0,0,0.1,0,0.1,0c0,0,0,0,0,0
			c0,0,0,0,0,0c0,0,0,0,0,0c0,0,0,0,0,0c0.2,0,0.3,0.1,0.5,0.1c0.2,0,0.3,0.1,0.5,0.1c0.2,0.1,0.3,0.1,0.5,0.2
			c0.2,0.1,0.3,0.2,0.5,0.2c0.2,0.1,0.3,0.2,0.4,0.3c0.1,0.1,0.3,0.2,0.4,0.4c0.4,0.4,0.8,0.9,1.2,1.4c0.4,0.5,0.8,1.2,1.1,1.8
			c0.3,0.7,0.6,1.4,0.9,2.1c0.3,0.8,0.6,1.6,0.8,2.4c0,0.2,0.1,0.3,0.1,0.5"/>
	</g>
	<g id="SPLINE_185_">
		<path class="st0" d="M282.7,462c0,0.4,0.1,0.9,0.1,1.3c0,0.5,0,0.9,0,1.4c0,0.4,0,0.9,0,1.3c0,0.7-0.1,1.4-0.2,2.1
			c-0.1,0.6-0.3,1.2-0.4,1.7c-0.2,0.5-0.4,1-0.7,1.4c-0.3,0.5-0.8,1-1.3,1.4c-0.5,0.3-1.1,0.6-1.7,0.8"/>
	</g>
	<g id="SPLINE_186_">
		<path class="st0" d="M268.5,424.6c0.8-0.1,1.6-0.2,2.4-0.1c0.8,0.1,1.4,0.5,2.1,1.1c0.6,0.5,1.2,1.2,1.7,2c0.5,0.8,1,1.8,1.4,2.8
			c0.4,1.1,0.8,2.2,1.2,3.5c0.4,1.2,0.7,2.6,1,3.9c0.3,1.4,0.6,2.8,0.9,4.3c0,0.1,0,0.2,0.1,0.3"/>
	</g>
	<g id="SPLINE_187_">
		<path class="st0" d="M281.1,452.5c0.2,1.1,0.4,2.1,0.5,3.1c0.2,1.4,0.4,2.8,0.6,4.2c0.2,1.3,0.3,2.6,0.3,3.8c0,1.2,0,2.3-0.1,3.4
			c-0.1,1-0.3,2-0.7,2.8c-0.3,0.8-0.8,1.5-1.4,2c-0.6,0.5-1.4,0.8-2.1,1.1"/>
	</g>
	<g id="LWPOLYLINE_6_">
		<polyline class="st0" points="104.8,157.8 104.7,158.1 103.9,159.2 102.7,160 101,160.5 99,160.8 96.8,160.8 94.4,160.6 91.9,160 
			89.4,159.2 87.1,158.2 85,157 83.2,155.7 81.8,154.3 80.9,152.9 80.4,151.6 80.4,150.3 80.5,150.1 		"/>
	</g>
	<g id="LINE_115_">
		<line class="st0" x1="225.7" y1="453.4" x2="233" y2="451.6"/>
	</g>
	<g id="SPLINE_188_">
		<path class="st0" d="M225.7,453.4C225.7,453.4,225.7,453.4,225.7,453.4c0-0.1,0-0.1,0-0.1c-0.1-0.5-0.2-1-0.2-1.5
			c0-0.5,0.1-1,0.3-1.4c0.1-0.2,0.2-0.5,0.4-0.7c0.1-0.2,0.3-0.4,0.5-0.5c0.2-0.2,0.4-0.3,0.6-0.4c0.2-0.1,0.5-0.2,0.7-0.2"/>
	</g>
	<g id="ARC_20_">
		<path class="st0" d="M233.2,452.5c0.6,0.1,1.2,0.1,1.8-0.1"/>
	</g>
	<g id="ARC_21_">
		<path class="st0" d="M235,460.5c0.6,0.1,1.2,0.1,1.7-0.1"/>
	</g>
	<g id="ARC_22_">
		<path class="st0" d="M83.7,235c-0.3-0.1-0.7,0-0.9,0.3"/>
	</g>
	<g id="SPLINE_189_">
		<path class="st0" d="M232.8,465.2c-0.3,0-0.5,0.1-0.8,0.1c-0.3,0-0.6,0-0.8-0.1c-0.2,0-0.4-0.1-0.5-0.2c-0.3-0.1-0.7-0.4-1-0.6
			c-0.2-0.2-0.5-0.4-0.7-0.7c-0.2-0.2-0.3-0.4-0.5-0.7c-0.3-0.5-0.5-1.1-0.7-1.6"/>
	</g>
	<g id="LINE_116_">
		<line class="st0" x1="227.7" y1="461.4" x2="234.8" y2="459.6"/>
	</g>
	<g id="LWPOLYLINE_7_">
		<polyline class="st0" points="74.3,140.2 74.2,140.6 73.4,141.6 72.2,142.4 70.5,143 68.5,143.3 66.3,143.3 63.9,143 61.4,142.4 
			58.9,141.6 56.6,140.6 54.5,139.4 52.7,138.1 51.3,136.7 50.4,135.3 49.9,134 49.9,132.7 50,132.5 		"/>
	</g>
	<g id="SPLINE_190_">
		<path class="st0" d="M120.2,158.4c0,0,0.1,0,0.1,0c0.1,0,0.1,0,0.2,0.1c0.1,0.1,0.2,0.2,0.3,0.3"/>
	</g>
	<g id="SPLINE_191_">
		<path class="st0" d="M119.6,167.5c0.9,0.5,1.8,1,2.8,1.4c0.9,0.3,1.8,0.6,2.6,0.8c0.9,0.2,1.8,0.2,2.6,0.2c0.8,0,1.5-0.2,2.2-0.4
			c0.6-0.2,1.1-0.6,1.4-1c0.2-0.3,0.3-0.6,0.3-0.9"/>
	</g>
	<g id="SPLINE_192_">
		<path class="st0" d="M71.8,133.1c0.3-0.2,0.5-0.3,0.7-0.4c0.2,0,0.3,0,0.4,0"/>
	</g>
	<g id="LINE_117_">
		<line class="st0" x1="102.5" y1="149.2" x2="94.8" y2="144.7"/>
	</g>
	<g id="ARC_23_">
		<path class="st0" d="M19.9,178.8c0.1,0.5,0.3,0.9,0.6,1.3"/>
	</g>
	<g id="ARC_24_">
		<path class="st0" d="M42,209.8c0.4,0.9,1.2,1.6,2.2,1.8"/>
	</g>
	<g id="SPLINE_193_">
		<path class="st0" d="M71.8,132c-0.8-0.5-1.5-0.9-2.2-1.4c-1.1-0.8-2.1-1.6-2.9-2.4c-0.8-0.8-1.5-1.6-2.1-2.5
			c-0.5-0.8-0.9-1.6-1.1-2.4c-0.2-0.8-0.2-1.5-0.1-2.2c0.1-0.7,0.4-1.4,0.9-2c0.4-0.6,1-1.2,1.8-1.6c0.8-0.5,1.7-0.8,2.7-1.2"/>
	</g>
	<g id="SPLINE_194_">
		<path class="st0" d="M37.5,225.9c-0.1,0-0.2-0.1-0.3-0.1c-0.1,0-0.2-0.1-0.2-0.2c-0.1-0.1-0.1-0.1-0.2-0.2
			c-0.1-0.2-0.3-0.5-0.3-0.8c-0.1-0.3-0.1-0.6-0.2-0.9c-0.1-0.4-0.1-0.8-0.1-1.3c0-0.5,0-1,0-1.5c0-0.5,0-1.1,0-1.7
			c0-1.4,0.1-2.9,0.2-4.6c0.1-1.4,0.2-2.9,0.3-4.5c0.1-1.4,0.2-2.8,0.4-4.3c0.1-1.2,0.2-2.4,0.4-3.7c0-0.5,0.1-0.9,0.1-1.4"/>
	</g>
	<g id="SPLINE_195_">
		<path class="st0" d="M32.5,219.4c0-0.1-0.1-0.2-0.1-0.3c-0.1-0.4,0-1.2,0-2c0.1-0.8,0.1-1.7,0.2-2.7c0.1-1.5,0.3-3.2,0.4-4.9
			c0.2-1.8,0.3-3.7,0.6-5.7c0.1-1.3,0.3-2.7,0.4-4.1c0.1-1.1,0.1-2.3,0.2-3.4"/>
	</g>
	<g id="SPLINE_196_">
		<path class="st0" d="M179.2,121.1c0.2,0.2,0.3,0.4,0.5,0.6c0.1,0.1,0.2,0.3,0.3,0.4c0.1,0.1,0.2,0.3,0.3,0.5
			c0.1,0.2,0.2,0.3,0.3,0.5c0.1,0.2,0.2,0.3,0.3,0.5c0.1,0.2,0.2,0.3,0.3,0.5c0.1,0.1,0.1,0.3,0.2,0.4c0.1,0.2,0.2,0.4,0.2,0.4
			c0,0,0,0,0,0"/>
	</g>
	<g id="ARC_25_">
		<path class="st0" d="M110.8,108.7c2.1,0.9,4.2,1.5,6.4,2"/>
	</g>
	<g id="SPLINE_197_">
		<path class="st0" d="M266.4,31.7c-0.3-0.3-0.7-0.6-1-0.9c-0.3-0.3-0.7-0.6-1-0.9c-0.4-0.4-0.9-0.7-1.3-1.1
			c-0.6-0.4-1.1-0.9-1.7-1.3c-0.7-0.5-1.4-1-2.1-1.6c-0.3-0.2-0.5-0.4-0.8-0.6c-0.3-0.2-0.5-0.4-0.8-0.6c-0.4-0.3-0.8-0.6-1.2-0.9
			c-0.5-0.3-0.9-0.7-1.4-1c-0.5-0.4-1-0.7-1.5-1.1c-0.5-0.4-1-0.7-1.5-1.1c-0.7-0.5-1.5-1.1-2.3-1.6c-0.8-0.5-1.6-1.1-2.4-1.6
			c-0.8-0.5-1.7-1.1-2.5-1.6c-0.7-0.4-1.5-0.9-2.2-1.3c-0.5-0.3-1.1-0.6-1.6-0.9c-0.6-0.3-1.1-0.6-1.7-0.9c-0.8-0.4-1.5-0.7-2.3-1.1
			c-0.5-0.2-1-0.4-1.4-0.6c-0.5-0.2-1-0.4-1.5-0.6c-1-0.4-1.9-0.7-2.9-1c-0.6-0.2-1.3-0.4-1.9-0.6c-0.6-0.2-1.3-0.3-1.9-0.5
			c-0.4-0.1-0.8-0.2-1.2-0.3c-0.4-0.1-0.9-0.2-1.3-0.2c-0.7-0.1-1.4-0.2-2.1-0.3c-0.7-0.1-1.5-0.1-2.2-0.1c-0.7,0-1.3,0-2,0
			c-0.6,0-1.2,0.1-1.8,0.1c-0.5,0-1.1,0.1-1.6,0.2c-0.5,0.1-1,0.2-1.5,0.3c-0.4,0.1-0.9,0.2-1.3,0.3c-0.4,0.1-0.8,0.2-1.2,0.3
			c-0.3,0.1-0.7,0.2-1,0.3c-0.6,0.2-1.3,0.5-1.9,0.8c-0.5,0.2-1,0.4-1.4,0.7c-0.3,0.2-0.7,0.4-1,0.6c-0.2,0.1-0.5,0.3-0.7,0.4
			c-0.4,0.2-0.8,0.5-1.1,0.8c-0.3,0.2-0.5,0.4-0.8,0.6c0,0-0.1,0.1-0.1,0.1"/>
	</g>
	<g id="SPLINE_198_">
		<path class="st0" d="M269.1,29.1c-1.1-1-2.2-1.9-3.3-2.8c-1.2-0.9-2.4-1.8-3.7-2.6c-1.3-0.9-2.6-1.8-4-2.7
			c-2.1-1.4-4.3-2.9-6.5-4.4c-2.3-1.5-4.6-2.9-7-4.2c-2.4-1.3-4.8-2.4-7.2-3.4c-2.4-1-4.9-1.8-7.3-2.3c-2.4-0.5-4.8-0.8-7.1-0.9
			c-2.4-0.1-4.7-0.1-6.8,0.5c-0.3,0.1-0.5,0.2-0.8,0.3"/>
	</g>
	<g id="SPLINE_199_">
		<path class="st0" d="M139.3,87.9c-0.1-0.3-0.2-0.6-0.3-0.9c0-0.1-0.1-0.2-0.1-0.3c0-0.1,0-0.2,0-0.2c0-0.1,0-0.1,0.1-0.1
			c0,0,0,0,0,0"/>
	</g>
	<g id="LINE_118_">
		<line class="st1" x1="270.5" y1="434.9" x2="261.6" y2="436.5"/>
	</g>
	<g id="LINE_58_">
		<line class="st1" x1="266.4" y1="464.4" x2="275.4" y2="462.8"/>
	</g>
	<g id="SPLINE_399_">
		<path class="st1" d="M280.5,447c-0.3-1.4-0.6-2.7-1-4c-0.3-1.1-0.7-2.1-1.2-3c-0.4-0.7-0.7-1.4-1.2-2c-0.3-0.4-0.6-0.8-1-1.2
			c-0.2-0.2-0.5-0.5-0.8-0.7c-0.3-0.3-0.7-0.5-1.1-0.7c-0.5-0.3-1.1-0.4-1.6-0.5c-0.7-0.1-1.4,0-2.1,0"/>
	</g>
	<g id="SPLINE_398_">
		<path class="st1" d="M275.3,462.8c0.7-0.2,1.5-0.4,2.1-0.7c0.5-0.3,1-0.7,1.4-1.1c0.3-0.3,0.6-0.7,0.8-1.1c0.2-0.3,0.4-0.6,0.5-1
			c0.2-0.5,0.4-1,0.5-1.6c0.2-0.8,0.3-1.6,0.4-2.5c0.1-1.1,0.1-2.3,0-3.5c0-0.7-0.1-1.4-0.2-2.1c-0.1-0.8-0.2-1.5-0.4-2.3"/>
	</g>
	<g id="SPLINE_397_">
		<path class="st1" d="M244.5,541.8c0.7-0.2,1.5-0.3,2.2-0.5c1.4-0.3,2.8-0.7,4.2-1.1c1.7-0.5,3.3-1,5-1.5"/>
	</g>
	<g id="SPLINE_396_">
		<path class="st1" d="M266.3,23.8c1,1.1,2.1,2.2,3.1,3.3c3.1,3.4,6.2,6.8,9.2,10.3c3,3.5,5.9,7,8.8,10.6c2.9,3.6,5.7,7.2,8.4,10.9
			c2.8,3.7,5.5,7.4,8,11.2c0.3,0.4,0.5,0.8,0.8,1.2c1.7,2.6,3.9,6.3,5.3,8.6"/>
	</g>
	<g id="LINE_57_">
		<line class="st1" x1="234.1" y1="501" x2="233.5" y2="501.2"/>
	</g>
	<g id="SPLINE_394_">
		<path class="st1" d="M266.4,535.1c1.8-0.8,3.5-1.5,5.3-2.3c1.6-0.7,3.1-1.5,4.6-2.3c1.3-0.7,2.7-1.4,4-2.2c1.1-0.7,2.2-1.3,3.3-2
			c0.9-0.6,1.8-1.2,2.7-1.8c0.8-0.5,1.5-1,2.3-1.6c1.2-0.9,2.4-1.7,3.6-2.6c1.2-0.9,2.4-1.9,3.7-2.9c1.2-1,2.4-2,3.6-3
			c1.1-1,2.3-2,3.4-3c1-1,2-1.9,3-2.9c1.1-1.1,2.3-2.3,3.4-3.4c1.3-1.3,2.5-2.7,3.7-4.1c1.2-1.4,2.4-2.8,3.6-4.3
			c1.6-2,3.2-4.1,4.8-6.2c1.5-2.1,3-4.2,4.5-6.3c1.5-2.2,2.9-4.4,4.3-6.6c1.4-2.3,2.8-4.6,4.1-7c1.4-2.4,2.7-4.9,4-7.4
			c1.3-2.6,2.7-5.2,3.9-8c0.3-0.7,0.6-1.4,0.9-2.1"/>
	</g>
	<g id="SPLINE_393_">
		<path class="st1" d="M266.2,23.6c-1.6-1.7-3.2-3.3-4.8-4.9c-1.6-1.6-3.1-3.1-4.7-4.6"/>
	</g>
	<g id="SPLINE_391_">
		<path class="st1" d="M197.4,428.6c1.3,3.2,2.6,6.4,3.9,9.5c2.7,6.6,5.4,13.2,8.1,19.8c2.8,6.8,5.6,13.7,8.3,20.6
			c2.9,7.1,5.7,14.1,8.6,21.2c0.5,1.3,1.1,2.6,1.6,3.9"/>
	</g>
	<g id="SPLINE_390_">
		<path class="st1" d="M78.2,235.5c1.9,0.8,3.4,1.6,5.3,2.5c0.9,0.4,2.4,1.2,3.3,1.7"/>
	</g>
	<g id="SPLINE_389_">
		<path class="st1" d="M281.1,452c0.6,3.2,1.1,5.9,1.2,6.9"/>
		<path class="st1" d="M169.9,167.2c1.2,1.2,2.3,2.3,3.5,3.5c1.2,1.2,2.4,2.4,3.5,3.7c0.6,0.6,1.2,1.3,1.8,1.9
			c0.4,0.5,0.9,1,1.3,1.4c0.3,0.3,0.6,0.7,0.9,1c1,1.1,2,2.2,3,3.4c1.2,1.4,2.5,2.8,3.7,4.3c1.4,1.7,2.9,3.4,4.3,5.2
			c1.6,2,3.2,4,4.7,6c3.2,4.1,6.2,8.4,9.1,12.7c2.9,4.4,5.8,8.9,8.5,13.6c2.7,4.7,5.3,9.6,7.8,14.5c2.5,5.1,4.9,10.3,7.2,15.6
			c1.4,3.2,2.7,6.4,4,9.6c1.4,3.4,2.7,6.9,4,10.4c1.4,3.7,2.7,7.5,4,11.2c1.4,4,2.7,8.1,4,12.2c1.4,4.4,2.7,8.8,4,13.3
			c1.4,4.8,2.8,9.7,4.1,14.5c1.2,4.4,2.4,8.8,3.5,13.3c1.3,4.8,2.5,9.6,3.7,14.5c1.3,5.3,2.6,10.6,3.8,15.8
			c1.3,5.7,2.6,11.5,3.9,17.2c1.4,6.3,2.7,12.7,4,19c1.4,6.8,2.7,13.6,4,20.5c0.8,4.1,1.5,8.2,2.3,12.2c0.2,1.1,0.6,3.2,1,5.4"/>
	</g>
	<g id="SPLINE_388_">
		<path class="st1" d="M286.7,483.9c-0.8-4.5-1.6-9-2.3-13.6c-0.7-3.8-1.3-7.6-2-11.4"/>
	</g>
	<g id="SPLINE_387_">
		<path class="st1" d="M87.2,239.9c0.8,0.4,1.7,0.9,2.5,1.3c1.6,0.9,3.3,1.8,4.9,2.8c1.4,0.8,2.8,1.7,4.1,2.6
			c1.2,0.8,2.3,1.6,3.5,2.4c1.3,0.9,2.6,1.9,3.8,3c1,0.8,2,1.7,3,2.6c0.8,0.7,1.5,1.4,2.2,2.1c0.8,0.7,1.5,1.5,2.3,2.2
			c0.8,0.8,1.6,1.6,2.3,2.5c0.9,1,1.8,2,2.7,3.1c1,1.2,2.1,2.5,3.1,3.8c1.6,2,3.1,4.1,4.6,6.3c1.7,2.4,3.3,4.9,4.9,7.5
			c1.5,2.4,2.9,4.8,4.3,7.2c1.3,2.2,2.5,4.4,3.7,6.6c1,2,2.1,3.9,3.1,5.9c0.9,1.7,1.7,3.3,2.5,5c0.6,1.2,1.2,2.4,1.7,3.6
			c0.5,0.9,0.9,1.9,1.4,2.8c0.4,0.7,0.7,1.5,1.1,2.2c0.5,1,1,2,1.4,3.1c0.7,1.4,1.3,2.8,2,4.3c0.8,1.9,1.7,3.7,2.5,5.6
			c1,2.3,2.1,4.6,3.1,6.9c1.1,2.4,2.1,4.9,3.2,7.3c1.2,2.8,2.5,5.7,3.7,8.5c1.4,3.3,2.8,6.6,4.2,9.9c1.6,3.8,3.2,7.5,4.8,11.3
			c1.8,4.3,3.6,8.6,5.4,12.8c2,4.8,4,9.6,6,14.4c2.2,5.3,4.4,10.7,6.6,16c1.7,4.1,3.4,8.2,5,12.3"/>
	</g>
	<g id="SPLINE_386_">
		<path class="st1" d="M233.5,501.2c-1.6,0.6-3.2,1.2-4.7,1.9c-1.2,0.5-2.5,1.1-3.7,1.7c-0.9,0.5-1.9,1-2.8,1.5
			c-0.7,0.4-1.3,0.8-2,1.2c-0.5,0.3-1,0.6-1.5,0.9c-0.5,0.3-0.9,0.6-1.4,0.9c-0.5,0.3-0.9,0.6-1.4,0.9c-0.4,0.3-0.9,0.6-1.3,1
			c-0.6,0.5-1.3,1-1.9,1.5c-0.6,0.5-1.2,1.1-1.8,1.6c-0.7,0.6-1.3,1.3-2,1.9c-0.7,0.7-1.3,1.4-1.9,2c-0.3,0.3-0.6,0.6-0.8,0.8
			c-0.1,0.1-0.2,0.2-0.2,0.3"/>
	</g>
	<g id="SPLINE_385_">
		<path class="st1" d="M206.4,519.2c-0.4,0.6-0.8,1.1-1.1,1.7c-0.3,0.6-0.3,1.3-0.3,1.9c0,0.6,0.1,1.3,0.4,1.9
			c0.2,0.4,0.3,0.7,0.7,1.2c1.1,1.7,2.6,3.9,4.3,5"/>
	</g>
	<g id="SPLINE_384_">
		<path class="st1" d="M210.3,531c2,1.3,4,2.7,6.1,4c1.9,1.2,3.9,2.5,5.8,3.7c1.8,1.1,3.6,2.2,5.4,3.3c0.9,0.5,1.9,1.1,2.8,1.6"/>
	</g>
	<g id="SPLINE_383_">
		<path class="st1" d="M87.2,89.2c-2-0.5-4.1-1-6.1-1.4c-2.9-0.6-5.8-1.1-8.6-1.5c-2.6-0.4-5.2-0.7-7.7-0.9
			c-2.3-0.2-4.5-0.4-6.8-0.5c-2-0.1-3.9-0.1-5.8-0.1c-1.7,0-3.3,0-4.9,0.1c-1.6,0.1-3.2,0.2-4.8,0.3c-1.3,0.1-2.5,0.3-3.8,0.4
			c-1.2,0.2-2.4,0.3-3.6,0.6c-1.3,0.2-2.5,0.5-3.7,0.7c-1.3,0.3-2.6,0.6-3.8,1c-1.6,0.5-3.2,1-4.7,1.6c-1.4,0.5-2.7,1.1-4,1.7
			c-1.1,0.5-2.1,1.1-3,1.6c-0.8,0.5-1.6,1-2.3,1.5c-0.6,0.4-1.3,0.9-1.9,1.4c-0.7,0.6-1.3,1.1-1.9,1.7c-0.7,0.7-1.4,1.4-2,2.3
			c-0.8,1-1.6,2.2-2.4,3.5c-0.9,1.6-1.6,3.3-2.4,5"/>
	</g>
	<g id="SPLINE_382_">
		<path class="st1" d="M170.4,142.3c0.2,0.4,0.4,0.8,0.5,1.2c0.4,1,0.7,2,1,3.1c0.2,0.8,0.4,1.7,0.6,2.5c0.1,0.6,0.2,1.3,0.3,1.9
			c0,0.4,0.1,0.7,0.1,1.1c0,0.4,0,0.8,0,1.3c0,0.7,0,1.4-0.1,2.1c-0.1,0.9-0.2,1.9-0.3,2.8c-0.2,1.2-0.5,2.4-0.7,3.6
			c-0.6,2.4-1.4,4.5-2,5.4"/>
	</g>
	<g id="LINE_55_">
		<path class="st1" d="M3.1,108.3l-0.1,0.2c-1.5,3.9-2,9.7-0.9,14.3"/>
	</g>
	<g id="SPLINE_381_">
		<path class="st1" d="M63.1,235.4c0.9,0.1,1.8,0.3,2.8,0.4c1.1,0.1,2.2,0.2,3.4,0.2c1.2,0,2.4,0,3.7,0c1.3,0,2.6-0.1,3.8-0.3
			c0.5-0.1,1-0.2,1.5-0.2"/>
	</g>
	<g id="SPLINE_380_">
		<path class="st1" d="M2.1,122.9c1.4,6.1,2.9,12.1,4.3,18.2c1.2,5,2.4,10.1,3.7,15.2c0.8,3.2,1.6,6.4,2.5,9.6"/>
	</g>
	<g id="SPLINE_378_">
		<path class="st1" d="M256,538.7c1-0.3,2-0.6,2.9-0.9c1-0.3,1.8-0.6,2.7-0.9c1.7-0.6,3.4-1.3,5-1.9"/>
	</g>
	<g id="SPLINE_377_">
		<path class="st1" d="M230.4,543.6c0.2,0.1,0.4,0.2,0.7,0.2c0.3,0,0.7,0.1,1.2,0.1c0.9,0,2-0.1,3.4-0.3c1.3-0.2,2.7-0.4,4.2-0.7
			c1.5-0.3,3.1-0.7,4.6-1"/>
	</g>
	<g id="SPLINE_376_">
		<path class="st1" d="M104.8,157.8C104.8,157.7,104.8,157.7,104.8,157.8c0.2-0.5,0.3-1.1,0.2-1.6c0-0.5-0.1-1-0.2-1.5
			c-0.1-0.5-0.3-1-0.6-1.5c-0.3-0.5-0.6-0.9-0.9-1.4c-0.3-0.4-0.7-0.8-1.1-1.2c-0.4-0.3-0.8-0.7-1.2-1c-0.5-0.3-1-0.7-1.5-1
			c-0.4-0.2-0.8-0.5-1.2-0.7c-0.4-0.2-0.8-0.4-1.2-0.6c-0.7-0.3-1.4-0.6-2.2-0.8"/>
	</g>
	<g id="SPLINE_375_">
		<path class="st1" d="M94.9,146.7c-0.8-0.2-1.5-0.4-2.3-0.6c-0.3-0.1-0.6-0.1-0.9-0.2c-0.5-0.1-1-0.1-1.5-0.2c-0.5,0-1-0.1-1.5-0.1
			c-0.5,0-1,0-1.5,0.1c-0.5,0-1,0.1-1.5,0.2c-0.5,0.1-1,0.2-1.4,0.4c-0.5,0.2-0.9,0.4-1.3,0.6c-0.4,0.2-0.8,0.5-1.1,0.8
			c-0.3,0.3-0.6,0.7-0.9,1.1c-0.2,0.4-0.4,0.8-0.6,1.2"/>
	</g>
	<g id="LINE_48_">
		<line class="st1" x1="103.5" y1="162.1" x2="104.8" y2="157.8"/>
	</g>
	<g id="LINE_47_">
		<line class="st1" x1="80.5" y1="150.1" x2="79.3" y2="153.9"/>
	</g>
	<g id="SPLINE_372_">
		<path class="st1" d="M74.3,140.2C74.3,140.2,74.3,140.1,74.3,140.2c0.2-0.5,0.3-1.1,0.2-1.6c0-0.5-0.1-1-0.2-1.5
			c-0.1-0.5-0.3-1-0.6-1.5c-0.3-0.5-0.6-0.9-0.9-1.4c-0.3-0.4-0.7-0.8-1.1-1.2c-0.4-0.3-0.8-0.7-1.2-1c-0.5-0.3-1-0.7-1.5-1
			c-0.4-0.2-0.8-0.5-1.2-0.7c-0.4-0.2-0.8-0.4-1.2-0.6c-0.7-0.3-1.4-0.6-2.2-0.8"/>
	</g>
	<g id="SPLINE_371_">
		<path class="st1" d="M64.4,129.1c-0.8-0.2-1.5-0.4-2.3-0.6c-0.3-0.1-0.6-0.1-0.9-0.2c-0.5-0.1-1-0.1-1.5-0.2c-0.5,0-1-0.1-1.5-0.1
			c-0.5,0-1,0-1.5,0.1c-0.5,0-1,0.1-1.5,0.2c-0.5,0.1-1,0.2-1.4,0.4c-0.5,0.2-0.9,0.4-1.3,0.6c-0.4,0.2-0.8,0.5-1.1,0.8
			c-0.3,0.3-0.6,0.7-0.9,1.1c-0.2,0.4-0.4,0.8-0.6,1.2"/>
	</g>
	<g id="LINE_45_">
		<line class="st1" x1="73" y1="144.2" x2="74.3" y2="140.2"/>
	</g>
	<g id="LINE_44_">
		<line class="st1" x1="50" y1="132.5" x2="48.4" y2="137.5"/>
	</g>
	<g id="SPLINE_370_">
		<path class="st1" d="M131.7,167.4c0.1-0.2,0.1-0.4,0.2-0.5c0.1-0.3,0-0.7,0-1c-0.1-0.6-0.2-1.1-0.5-1.7c-0.4-0.8-1-1.6-1.8-2.3
			c-0.3-0.3-0.7-0.6-1.1-0.9c-0.6-0.4-1.2-0.8-1.9-1.1c-0.9-0.5-1.9-0.8-2.9-1.1c-0.6-0.2-1.2-0.3-1.8-0.3c-0.6-0.1-1.3,0-1.9,0"/>
	</g>
	<g id="LINE_43_">
		<line class="st1" x1="131.6" y1="167.6" x2="131.7" y2="167.5"/>
	</g>
	<g id="LINE_42_">
		<line class="st1" x1="116" y1="160.9" x2="115.9" y2="161.1"/>
	</g>
	<g id="SPLINE_369_">
		<path class="st1" d="M120.2,158.4c-0.5,0.1-1,0.1-1.5,0.3c-0.5,0.1-0.9,0.3-1.3,0.6c-0.4,0.2-0.7,0.5-1,0.8
			c-0.2,0.2-0.3,0.5-0.5,0.8"/>
	</g>
	<g id="SPLINE_368_">
		<path class="st1" d="M20.6,180.1c0.6,0.7,1.2,1.4,1.9,2.1c0.6,0.7,1.2,1.3,1.9,2.1c0.6,0.7,1.3,1.4,1.9,2.1
			c0.6,0.7,1.2,1.4,1.8,2.1c0.6,0.7,1.1,1.3,1.7,2c0.5,0.6,1,1.2,1.5,1.9c0.8,1,1.7,2.1,2.4,3.1c0.7,0.9,1.4,1.9,2,2.8
			c0.8,1.2,1.5,2.3,2.2,3.4c0.8,1.3,1.5,2.6,2.1,3.8c0.7,1.5,1.3,2.9,1.9,4.3"/>
	</g>
	<g id="SPLINE_366_">
		<path class="st1" d="M37.5,225.9c0.9,0.2,1.8,0.5,2.8,0.7c1.6,0.4,3.2,0.6,4.8,0.8c1.6,0.2,3.2,0.4,4.8,0.4c0.6,0,1.1,0,1.7,0"/>
	</g>
	<g id="SPLINE_365_">
		<path class="st1" d="M25.5,185.5c0.4,1.4,0.8,2.8,1.2,4.1c0.7,2.3,1.2,4.7,1.8,7c0.4,1.9,0.9,3.7,1.2,5.6c0.3,1.4,0.6,2.8,0.8,4.1
			c0.1,0.7,0.3,1.4,0.4,2.1c0.1,0.5,0.2,1,0.2,1.4c0.1,0.7,0.2,1.3,0.3,1.9c0.1,0.9,0.3,1.8,0.4,2.7c0.2,1.2,0.3,2.4,0.4,3.5
			c0,0.4,0.1,0.9,0.1,1.3"/>
	</g>
	<g id="SPLINE_364_">
		<path class="st1" d="M32.5,219.4c0.2,1,0.4,2,0.8,2.9c0.4,0.8,0.9,1.5,1.6,2.2c0.5,0.5,1.1,1,1.9,1.2c0.3,0.1,0.6,0.2,0.9,0.2"/>
	</g>
	<g id="SPLINE_363_">
		<path class="st1" d="M42,209.8c1.1,2.5,2.1,5,3.2,7.3c0.9,2,1.9,3.9,3,5.7c0.8,1.4,1.7,2.8,2.6,4c0.7,0.9,1.4,1.8,2.1,2.6
			c0.3,0.4,0.7,0.7,1.1,1.1c0.3,0.3,0.5,0.5,0.8,0.8c0.4,0.3,0.8,0.7,1.2,1c0.6,0.4,1.2,0.8,1.8,1.2c0.8,0.5,1.6,0.9,2.5,1.2
			c1,0.4,2.1,0.6,3.1,0.8"/>
	</g>
	<g id="SPLINE_362_">
		<path class="st1" d="M12.6,165.9c0,0.1,0.3,1.1,0.3,1.2c0.3,1,0.7,2,1.1,3c0.5,1,1,2,1.5,3c0.6,1,1.2,2,1.9,3c0.7,1,1.4,2,2.3,3
			c0.3,0.3,0.6,0.6,0.9,1"/>
	</g>
	<g id="SPLINE_361_">
		<path class="st1" d="M181.6,124.9c3.6-2.1,7.2-4.2,10.9-6.3c3.4-1.9,6.8-3.9,10.2-5.8c2.9-1.6,5.8-3.2,8.7-4.8
			c2.4-1.3,4.7-2.6,7.1-3.9c1.9-1,3.8-2.1,5.7-3.1c0.8-0.4,1.6-0.9,2.4-1.3c0.7-0.4,1.4-0.7,2.1-1.1c0.6-0.3,1.2-0.6,1.7-0.9
			c0.7-0.4,1.3-0.7,2-1.1c1-0.5,2-1,3-1.6c1.3-0.7,2.6-1.4,4-2.1c1.7-0.9,2-1,2.9-1.6"/>
	</g>
	<g id="SPLINE_360_">
		<path class="st1" d="M123.8,111.3c0.5,0,0.9,0,1.4-0.1c0.6-0.1,1.3-0.1,1.9-0.2c0.6-0.1,1.2-0.3,1.8-0.4c0.6-0.2,1.1-0.4,1.7-0.6
			c0.5-0.2,1-0.5,1.5-0.8c0.5-0.3,0.9-0.7,1.3-1.1c0.4-0.4,0.7-0.8,1-1.3c0.3-0.5,0.5-1,0.7-1.5c0.2-0.6,0.3-1.1,0.4-1.7
			c0-0.6,0-1.1-0.1-1.7c-0.1-0.6-0.2-1.2-0.5-1.7c-0.2-0.6-0.5-1.2-0.8-1.7c-0.3-0.6-0.7-1.1-1.2-1.7c-0.4-0.5-0.9-1-1.4-1.5
			c-0.5-0.5-1-0.9-1.6-1.4c-0.6-0.4-1.1-0.8-1.7-1.2c-0.6-0.4-1.3-0.8-2-1.2c-0.5-0.3-1.1-0.5-1.6-0.8c-0.5-0.2-1-0.4-1.5-0.7
			c-0.9-0.4-1.8-0.7-2.8-1"/>
	</g>
	<g id="SPLINE_359_">
		<path class="st1" d="M120.2,88.9c-0.9-0.3-1.9-0.5-2.8-0.8c-0.4-0.1-0.8-0.2-1.1-0.2c-0.6-0.1-1.3-0.2-1.9-0.3
			c-0.6-0.1-1.3-0.2-1.9-0.2c-0.7,0-1.3-0.1-1.9-0.1c-0.7,0-1.3,0-1.9,0.1c-0.6,0.1-1.3,0.1-1.9,0.2c-0.6,0.1-1.2,0.3-1.8,0.4
			c-0.6,0.2-1.1,0.4-1.7,0.6c-0.5,0.2-1,0.5-1.5,0.8c-0.5,0.3-0.9,0.7-1.3,1.1c-0.4,0.4-0.7,0.8-1,1.3c-0.3,0.5-0.5,1-0.7,1.5
			c-0.2,0.6-0.3,1.1-0.4,1.7c0,0.6,0,1.1,0.1,1.7c0.1,0.6,0.2,1.2,0.5,1.7c0.2,0.6,0.5,1.2,0.8,1.7c0.3,0.6,0.7,1.1,1.2,1.7
			c0.4,0.5,0.9,1,1.4,1.5c0.5,0.5,1.5,1.2,2,1.7"/>
	</g>
	<g id="SPLINE_358_">
		<path class="st1" d="M203.3,13.1c-0.1,0.1-0.2,0.2-0.3,0.2c-1,0.7-1.8,1.6-2.5,2.4c-0.9,1-1.7,2.2-2.4,3.3
			c-0.8,1.4-1.5,2.8-1.9,4.3c-0.5,1.7-0.8,3.5-0.9,5.2c0,1,0,1.9,0.1,2.9c0.1,1,0.3,2,0.6,2.9c0.3,1,0.7,2,1.2,2.9
			c0.5,1,1.1,1.9,1.7,2.8c0.7,0.9,1.4,1.8,2.3,2.6c0.7,0.7,1.4,1.4,2.1,2.1"/>
	</g>
	<g id="SPLINE_357_">
		<path class="st1" d="M225,2.7c-1.7,0.6-3.5,1.1-5.2,1.7c-3,1.1-5.8,2.4-8.7,3.6"/>
	</g>
	<g id="LINE_38_">
		<line class="st1" x1="122.3" y1="116.2" x2="123.8" y2="111.3"/>
	</g>
	<g id="LINE_37_">
		<line class="st1" x1="104.4" y1="105.2" x2="103" y2="109.5"/>
	</g>
	<g id="SPLINE_356_">
		<path class="st1" d="M170.5,142.3c-0.4-0.8-0.8-1.6-1-2.4c-0.2-0.7-0.3-1.5-0.2-2.4c0.1-0.7,0.3-1.5,0.7-2.3
			c0.3-0.7,0.7-1.3,1.2-2c0.4-0.6,0.9-1.2,1.5-1.8c0.7-0.7,1.4-1.4,2.2-2.1c0.9-0.8,2-1.5,3-2.2c1.2-0.8,2.4-1.5,3.6-2.2"/>
	</g>
	<g id="SPLINE_355_">
		<path class="st1" d="M217.4,59.5c-2.7,1-4,1.5-6.6,2.5c-2.9,1-5.7,2.1-8.6,3.1c-2.4,0.9-4.8,1.7-7.2,2.5c-2.2,0.8-4.3,1.5-6.5,2.3
			c-2.1,0.7-4.2,1.4-6.3,2.2c-1.4,0.5-2.9,1-4.4,1.5c-1.4,0.5-2.9,1-4.3,1.4c-1.7,0.6-3.4,1.1-5.1,1.7c-2,0.7-4.1,1.4-6.1,2
			c-2.4,0.8-4.8,1.6-7.2,2.4c-2.8,0.9-5.6,1.8-8.3,2.8c-2.6,0.9-5.2,1.7-7.8,2.6"/>
	</g>
	<g id="SPLINE_353_">
		<path class="st1" d="M139.2,86.3c-2.6,0.9-5.3,1.7-7.9,2.4c-2.3,0.6-4.6,1.2-7,1.5c-0.1,0-0.2,0-0.3,0"/>
	</g>
	<g id="SPLINE_352_">
		<path class="st1" d="M100,91.1c-1.8-0.2-3.5-0.3-5.3-0.5c-2.6-0.4-5.1-0.9-7.6-1.4"/>
	</g>
	<g id="LINE_32_">
		<line class="st1" x1="243.5" y1="542.1" x2="244.5" y2="541.8"/>
	</g>
	<g id="LINE_31_">
		<line class="st1" x1="255.8" y1="538.8" x2="256.9" y2="538.4"/>
	</g>
	<g id="SPLINE_346_">
		<path class="st1" d="M309.8,79.9c3.2,5,6.3,10.1,9.3,15.4c3,5.3,5.9,10.7,8.7,16.2c2.8,5.6,5.5,11.3,8.1,17.2
			c2.6,5.8,5.1,11.8,7.4,17.9c2.4,6.1,4.6,12.2,6.7,18.4c2.1,6.2,4.1,12.5,5.9,18.9c1.8,6.3,3.5,12.7,5,19.1
			c1.5,6.4,2.9,12.9,4.2,19.3c1.2,6.3,2.3,12.7,3.3,19.1c1,6.4,1.8,12.7,2.4,19.1c0.7,6.2,1.2,12.3,1.6,18.5
			c0.4,6.1,0.6,12.2,0.8,18.3c0.1,6.1,0.1,12.1,0,18.1c-0.1,6-0.4,11.9-0.8,17.8c-0.4,6.1-1,12-1.7,17.9
			c-4.2,35.9-13.4,70.5-27.5,101.8"/>
	</g>
	<g id="SPLINE_343_">
		<path class="st1" d="M203.6,45.3c0.1,0.1,0.2,0.2,0.3,0.3"/>
	</g>
	<g id="SPLINE_339_">
		<path class="st1" d="M203.9,45.6c3.7,3.5,7.3,7,10.9,10.9c0.9,1,1.8,2,2.6,3"/>
	</g>
	<g id="LINE_25_">
		<line class="st1" x1="242.1" y1="91.4" x2="244.9" y2="95.6"/>
	</g>
	<g id="SPLINE_338_">
		<path class="st1" d="M299.1,393.8c-0.2,1.2-0.5,2.4-0.7,3.5c-1.2,5.5-2.7,10.7-4.3,15.9c-1.6,5.1-3.3,10.2-5.1,15.1
			s-3.7,9.7-5.9,14.2c-0.8,1.7-1.7,3.4-2.5,5.1"/>
	</g>
	<g id="SPLINE_337_">
		<path class="st1" d="M281.9,492.4c-0.8,0.4-1.5,0.9-2.4,1.3c-0.9,0.4-1.9,0.8-3,1.1c-1.1,0.3-2.2,0.6-3.4,0.8
			c-1.3,0.2-2.6,0.4-4,0.6c-1.2,0.1-2.4,0.2-3.6,0.3c-1.3,0.1-2.5,0.2-3.8,0.3c-1.4,0.1-2.8,0.2-4.2,0.2c-1.4,0.1-2.8,0.2-4.2,0.3
			c-1.6,0.1-3.2,0.3-4.8,0.4c-1.6,0.2-3.1,0.4-4.6,0.6c-1.6,0.3-3.2,0.6-4.6,0.9c-1.5,0.4-2.9,0.7-4.1,1.2c-0.4,0.2-0.9,0.3-1.2,0.5
			"/>
	</g>
	<g id="SPLINE_336_">
		<path class="st1" d="M286.7,483.9c0.1,0.2,0.1,0.5,0.1,0.7c0.1,0.7-0.1,1.5-0.4,2.2c-0.3,0.8-0.7,1.6-1.3,2.4
			c-0.6,0.8-1.3,1.6-2.2,2.3c-0.3,0.3-0.6,0.5-1,0.8"/>
	</g>
	<g id="ARC_46_">
		<path class="st1" d="M203.7,45.4c0.1,0.1,0.1,0.2,0.2,0.2"/>
	</g>
	<g id="SPLINE_317_">
		<path class="st1" d="M197.3,428c-0.4,0-0.5-0.2-0.4-0.5c0-0.3,0.2-0.6,0.5-1c0.3-0.4,0.8-0.9,1.4-1.5c0.7-0.6,1.5-1.3,2.4-2
			c1-0.7,2.3-1.6,3.5-2.4"/>
	</g>
	<g id="SPLINE_316_">
		<path class="st1" d="M84,236c0.1,0.3,0.3,0.7,0.4,1c0.2,0.3,0.3,0.6,0.5,0.9c0.2,0.3,0.5,0.6,0.7,0.9c0.3,0.4,0.5,0.5,0.9,0.8
			c0.1,0.1,0.4,0.2,0.5,0.3"/>
	</g>
	<g id="SPLINE_315_">
		<path class="st1" d="M84,236c-0.1-0.1-0.1-0.3-0.2-0.4c-0.1-0.2-0.1-0.3-0.2-0.5c-0.1-0.2-0.1-0.4-0.1-0.6c-0.1-0.3-0.2-0.7-0.2-1
			c0-0.2-0.1-0.5-0.1-0.7c-0.1-0.7-0.1-1.4-0.1-2.1c0-0.6,0.1-1.3,0.2-1.9c0.2-1.4,0.6-2.9,1.1-4.4c0.5-1.4,1.3-2.9,2.2-4.3
			c0.8-1.3,1.8-2.5,2.9-3.7c1-1.1,2.2-2.1,3.6-3.1c1.1-0.8,2.3-1.5,3.6-2.1c1.2-0.6,2.6-1.1,4-1.5c1.4-0.4,3-0.7,4.5-0.8
			c1.5-0.1,3.1-0.2,4.7-0.1c1.6,0.1,3.2,0.3,4.7,0.6c1.6,0.3,3.2,0.8,4.8,1.3c1,0.3,1.9,0.7,2.9,1.1c1,0.4,1.9,0.9,2.9,1.4
			c1,0.5,2,1.1,2.9,1.7c1,0.6,2,1.3,3,1.9c0.8,0.6,1.7,1.2,2.5,1.8c0.9,0.7,1.7,1.4,2.6,2.1c0.8,0.7,1.5,1.3,2.3,2
			c0.9,0.8,1.8,1.7,2.8,2.6"/>
	</g>
	<g id="SPLINE_314_">
		<path class="st1" d="M141.1,225.3c0.5,0.4,0.9,0.9,1.4,1.3c0.5,0.5,1,0.9,1.4,1.4c0.5,0.5,1,1,1.5,1.5c0.5,0.5,1,1,1.5,1.6
			c0.5,0.5,1,1.1,1.5,1.6c0.5,0.6,1,1.1,1.6,1.7c0.5,0.6,1.1,1.2,1.6,1.8c0.5,0.6,1.1,1.2,1.6,1.8c1,1.1,1.9,2.2,2.8,3.4
			c1.1,1.3,2.2,2.7,3.3,4.1c1.1,1.4,2.1,2.7,3.2,4.1c2,2.7,3.9,5.4,5.8,8.2c3.2,4.7,6.3,9.5,9.3,14.3c2,3.2,3.9,6.5,5.8,9.8
			c2.2,3.8,4.3,7.6,6.4,11.5c2.4,4.5,4.6,9,6.8,13.5c4.3,9,8.3,18.3,11.9,27.6c1.8,4.6,3.5,9.3,5.1,14c1,2.9,2,5.9,3,8.8
			c0.5,1.5,1,3,1.5,4.5c0.4,1.3,0.8,2.6,1.2,3.9c0.8,2.6,1.6,5.1,2.4,7.7c0.7,2.2,1.4,4.4,2.1,6.5"/>
	</g>
	<g id="SPLINE_313_">
		<path class="st1" d="M223.8,380c0.2,0.6,0.4,1.2,0.6,1.8c0.2,0.6,0.3,1.1,0.5,1.7c0.3,1,0.5,1.9,0.7,2.9c0.3,1.4,0.4,2.8,0.5,4.3
			c0,1.1,0,2.3-0.1,3.4c-0.1,1.1-0.3,2.3-0.6,3.4c-0.4,1.8-1,3.5-1.7,5.1c-0.6,1.3-1.3,2.5-2,3.7c-0.8,1.2-1.6,2.3-2.5,3.4
			c-1.1,1.2-2.2,2.4-3.3,3.4c-1.2,1.1-2.5,2-3.7,2.9c-0.6,0.4-1.2,0.9-1.8,1.3c-0.7,0.5-1.4,0.9-2.1,1.4c-0.2,0.1-0.4,0.3-0.7,0.4
			c-0.4,0.2-0.8,0.5-1.1,0.7c-0.3,0.2-0.6,0.4-1,0.6c-0.2,0.1-0.5,0.3-0.7,0.4"/>
	</g>
	<g id="SPLINE_306_">
		<path class="st1" d="M101.8,164.3c-0.5,0.3-1,0.7-1.6,0.9c-0.5,0.2-1.2,0.4-1.8,0.6c-0.7,0.1-1.4,0.2-2.2,0.3
			c-0.7,0-1.5,0-2.3-0.1c-0.8-0.1-1.6-0.2-2.4-0.4c-0.8-0.2-1.6-0.4-2.5-0.7c-0.8-0.3-1.6-0.6-2.4-1c-0.8-0.4-1.5-0.8-2.2-1.2
			c-1.3-0.8-2.4-1.8-3.2-2.7c-0.5-0.6-0.9-1.1-1.2-1.7c-0.4-0.6-0.6-1.2-0.7-1.8c-0.2-0.9,0-1.7,0.1-2.5"/>
	</g>
	<g id="SPLINE_305_">
		<path class="st1" d="M103.4,162.1c0,0,0,0.1,0,0.1c-0.1,0.2-0.1,0.4-0.2,0.5c-0.1,0.2-0.2,0.3-0.3,0.5c-0.3,0.4-0.7,0.8-1.1,1.1"
			/>
	</g>
	<g id="SPLINE_304_">
		<path class="st1" d="M131.6,167.6C131.6,167.6,131.6,167.6,131.6,167.6c0,0.4-0.3,0.6-0.5,0.9c-0.2,0.2-0.5,0.5-0.8,0.7
			c-0.3,0.2-0.7,0.4-1.1,0.5c-0.4,0.1-0.9,0.2-1.3,0.3c-0.5,0-1,0.1-1.5,0c-0.5,0-1.1-0.1-1.6-0.2c-0.6-0.1-1.2-0.3-1.7-0.5
			c-0.6-0.2-1.2-0.4-1.8-0.7c-0.5-0.2-1-0.5-1.5-0.8c-0.5-0.3-1-0.7-1.5-1.1c0,0-0.1,0-0.1-0.1c0,0-0.1-0.1-0.1-0.1
			c-0.2-0.1-0.3-0.3-0.5-0.4c-0.5-0.5-0.9-1.1-1.3-1.6"/>
	</g>
	<g id="SPLINE_303_">
		<path class="st1" d="M116.4,164.4c-0.3-0.7-0.7-1.5-0.7-2.1c0-0.6,0.2-1.1,0.4-1.6"/>
	</g>
	<g id="SPLINE_302_">
		<path class="st1" d="M71.5,146.4c-1,0.6-1.9,1.1-3.2,1.5c-0.7,0.2-1.5,0.3-2.3,0.4c-0.7,0.1-1.4,0.1-2.2,0.1c-0.4,0-0.9,0-1.3-0.1
			c-0.4,0-0.9-0.1-1.3-0.2c-0.8-0.1-1.7-0.3-2.5-0.5c-0.8-0.2-1.6-0.5-2.3-0.7c-0.7-0.3-1.4-0.6-2.1-0.9c-0.7-0.4-1.3-0.7-1.9-1.1
			c-0.6-0.4-1.2-0.9-1.7-1.3c-0.5-0.5-0.9-0.9-1.3-1.4c-0.4-0.5-0.7-1-0.9-1.5c-0.2-0.5-0.3-0.9-0.4-1.4c-0.1-0.5-0.1-1,0.1-1.5
			c0-0.1,0-0.1,0.1-0.2"/>
	</g>
	<g id="SPLINE_301_">
		<path class="st1" d="M73,144.2c0,0,0,0.1,0,0.1c-0.1,0.2-0.2,0.5-0.3,0.7c-0.3,0.5-0.8,0.9-1.2,1.4"/>
	</g>
	<g id="SPLINE_300_">
		<path class="st1" d="M66.8,114.1c0.2-0.1,0.4-0.1,0.5-0.2c0.2,0,0.4-0.1,0.6-0.1c0.2,0,0.4-0.1,0.6-0.1c0.2,0,0.4-0.1,0.6-0.1
			c0.2,0,0.4-0.1,0.6-0.1c0.2,0,0.4-0.1,0.6-0.1c0.2,0,0.4,0,0.6-0.1c0.2,0,0.4,0,0.6-0.1c0.2,0,0.4,0,0.7,0c0.9,0,1.9,0,2.9,0
			c1,0,2,0.1,3.1,0.2c1.2,0.1,2.4,0.3,3.6,0.6c1.2,0.2,2.5,0.5,3.7,0.9c0.8,0.2,1.5,0.4,2.3,0.7c0.7,0.2,1.5,0.5,2.2,0.8
			c0.4,0.1,0.7,0.3,1.1,0.4c0.3,0.1,0.7,0.3,1,0.4c0.3,0.1,0.6,0.3,1,0.4c0.3,0.1,0.6,0.3,0.9,0.4"/>
	</g>
	<g id="SPLINE_299_">
		<path class="st1" d="M101.2,149.6c-1.1-0.6-2.2-1.3-3.2-1.9c-1.1-0.6-2.2-1.3-3.2-1.9c-1.1-0.6-2.2-1.3-3.3-1.9
			c-1.1-0.6-2.2-1.2-3.3-1.9c-1.1-0.6-2.2-1.2-3.3-1.8c-1.1-0.6-2.2-1.2-3.3-1.8c-1.1-0.6-2.2-1.2-3.3-1.8c-1.1-0.6-2.2-1.2-3.3-1.8
			c-1.1-0.6-2.2-1.2-3.3-1.7"/>
	</g>
	<g id="SPLINE_298_">
		<path class="st1" d="M133.1,151.1c-0.1,0.1-0.1,0.2-0.2,0.4c-0.1,0.1-0.2,0.2-0.3,0.3c-0.1,0.1-0.2,0.2-0.3,0.3
			c-0.1,0.1-0.2,0.2-0.3,0.3c-0.1,0.1-0.2,0.2-0.3,0.3c-0.1,0.1-0.2,0.2-0.4,0.3c-0.4,0.3-0.8,0.5-1.2,0.8c-0.4,0.2-0.9,0.4-1.4,0.6
			c-0.5,0.2-1,0.3-1.6,0.5c-0.6,0.1-1.1,0.3-1.8,0.3c-1.2,0.2-2.6,0.3-4,0.2c-1.1,0-2.3-0.1-3.5-0.3c-1.2-0.1-2.4-0.4-3.7-0.6
			c-1.4-0.3-2.9-0.7-4.3-1.2c-0.6-0.2-1.2-0.4-1.8-0.6c-0.6-0.2-1.2-0.5-1.8-0.7c-0.4-0.2-0.8-0.3-1.2-0.5c-0.4-0.2-0.8-0.4-1.2-0.5
			c-0.3-0.2-0.7-0.3-1-0.5c-0.3-0.2-0.6-0.3-0.9-0.5c-0.3-0.2-0.6-0.3-0.8-0.5"/>
	</g>
	<g id="SPLINE_297_">
		<path class="st1" d="M123.4,134.7c0.2,0.1,0.3,0.2,0.5,0.3c0.2,0.1,0.3,0.2,0.5,0.3c0.2,0.1,0.3,0.2,0.5,0.3
			c0.2,0.1,0.3,0.2,0.5,0.3c0.2,0.1,0.3,0.2,0.5,0.4c0.2,0.1,0.3,0.3,0.5,0.4c0.5,0.4,1.1,0.9,1.6,1.3c0.5,0.4,1,0.9,1.4,1.3
			c0.4,0.4,0.7,0.8,1.1,1.1c0.3,0.4,0.6,0.8,0.9,1.2c0.3,0.4,0.6,0.9,0.9,1.3c0.3,0.4,0.5,0.9,0.7,1.3c0.3,0.6,0.5,1.1,0.6,1.6
			c0.2,0.5,0.3,1.1,0.3,1.6c0,0.3,0,0.5,0,0.8c0,0.3,0,0.5-0.1,0.8c0,0.3-0.1,0.5-0.2,0.7c-0.1,0.2-0.1,0.5-0.2,0.7
			c-0.1,0.2-0.2,0.5-0.3,0.7"/>
	</g>
	<g id="SPLINE_296_">
		<path class="st1" d="M93.9,118.2c1.1,0.6,2.2,1.1,3.3,1.7c1.1,0.6,2.2,1.2,3.3,1.7c1.1,0.6,2.2,1.2,3.3,1.8
			c1.1,0.6,2.2,1.2,3.3,1.8c1.1,0.6,2.2,1.2,3.3,1.8c1.1,0.6,2.2,1.2,3.3,1.9c1.1,0.6,2.2,1.3,3.3,1.9c1.1,0.6,2.2,1.3,3.3,1.9
			c1.1,0.6,2.2,1.3,3.3,1.9"/>
	</g>
	<g id="SPLINE_295_">
		<path class="st1" d="M121.2,117.4c-0.4,0.2-0.9,0.3-1.4,0.5c-0.4,0.1-0.8,0.1-1.3,0.1c-0.6,0-1.1,0-1.8-0.1
			c-0.6-0.1-1.2-0.1-1.8-0.3c-1.2-0.2-2.4-0.6-3.6-1c-1.1-0.4-2.2-0.9-3.3-1.4c-1-0.5-1.9-1.1-2.7-1.7c-0.8-0.6-1.4-1.3-1.8-1.9
			c-0.2-0.3-0.4-0.6-0.5-0.9c-0.1-0.3-0.2-0.6-0.1-0.9c0-0.1,0-0.2,0.1-0.3"/>
	</g>
	<g id="SPLINE_294_">
		<path class="st1" d="M122.2,116.2c0,0.1-0.1,0.2-0.1,0.3c-0.1,0.2-0.2,0.3-0.3,0.4c-0.2,0.2-0.4,0.3-0.6,0.4"/>
	</g>
	<g id="LINE_19_">
		<line class="st1" x1="63.4" y1="235.5" x2="63.1" y2="235.4"/>
	</g>
	<g id="SPLINE_273_">
		<path class="st1" d="M258.6,452c-0.1-0.5-0.2-1-0.2-1.4s-0.1-1-0.2-1.4c0-0.5-0.1-1-0.1-1.4c0-0.5,0-0.9,0-1.4s0-0.9,0.1-1.4
			c0-0.5,0.1-0.9,0.1-1.3s0.1-0.9,0.2-1.3c0-0.2,0.1-0.4,0.1-0.6c0-0.2,0.1-0.4,0.2-0.6s0.1-0.4,0.2-0.6c0.1-0.2,0.1-0.4,0.2-0.5
			c0.1-0.4,0.3-0.7,0.4-1s0.3-0.6,0.5-0.9c0.2-0.3,0.4-0.6,0.6-0.8c0.2-0.2,0.4-0.5,0.6-0.7c0.1-0.1,0.2-0.1,0.3-0.2"/>
	</g>
	<g id="SPLINE_272_">
		<path class="st1" d="M266.4,464.4c-0.1,0-0.2-0.1-0.3-0.1c-0.5-0.2-1.1-0.6-1.6-1s-1-0.9-1.5-1.5s-1-1.2-1.4-2s-0.9-1.5-1.2-2.3
			s-0.7-1.7-1-2.6s-0.5-1.9-0.7-2.8"/>
	</g>
	<g id="SPLINE_263_">
		<path class="st1" d="M116.4,164.4c0.7,1.1,1.8,2.1,3.1,3"/>
	</g>
	<g id="LINE_11_">
		<line class="st1" x1="37.6" y1="225.9" x2="37.5" y2="225.9"/>
	</g>
	<g id="LINE_10_">
		<path class="st1" d="M202.7,13.6l0.6-0.5c3.1-2.6,6-4.1,7.9-5.1"/>
	</g>
	<g id="ARC_37_">
		<path class="st1" d="M203.4,45.1c0.1,0.1,0.1,0.2,0.2,0.2"/>
	</g>
	<g id="SPLINE_236_">
		<path class="st1" d="M256.8,14.2c-0.4-0.3-0.7-0.7-1.1-1c-0.4-0.4-0.8-0.7-1.2-1.1c-0.4-0.4-0.9-0.8-1.3-1.2
			c-0.4-0.3-0.7-0.6-1.1-0.9c-0.4-0.3-0.8-0.6-1.1-0.9c-0.4-0.3-0.8-0.6-1.2-0.9c-0.9-0.7-1.9-1.4-3-2.1c-0.4-0.2-0.8-0.5-1.2-0.7
			c-0.4-0.2-0.9-0.5-1.3-0.7c-0.5-0.2-1-0.5-1.5-0.7c-0.2-0.1-0.4-0.2-0.7-0.3c-0.3-0.1-0.6-0.2-0.9-0.3c-0.4-0.1-0.7-0.3-1.1-0.4
			c-0.4-0.1-0.8-0.2-1.2-0.3c-0.3-0.1-0.7-0.2-1-0.3c-0.3-0.1-0.6-0.1-0.9-0.2c-0.2,0-0.5-0.1-0.7-0.1c-0.5-0.1-1.1-0.2-1.6-0.2
			c-0.5-0.1-1-0.1-1.5-0.1c-0.4,0-0.9,0-1.3-0.1c-1.5,0-3,0.1-4.3,0.3c-0.7,0.1-1.3,0.2-1.9,0.4c-0.2,0.1-0.4,0.1-0.7,0.2"/>
	</g>
	<g id="SPLINE_227_">
		<path class="st1" d="M244.5,541.8c0.7-0.2,1.4-0.3,2.2-0.5c1.4-0.3,2.8-0.7,4.2-1.1c1.4-0.4,2.7-0.7,3.8-1.1
			c0.4-0.1,0.8-0.2,1.2-0.4"/>
	</g>
	<g id="SPLINE_224_">
		<path class="st1" d="M244.9,95.6c3.1,4.9,6.1,9.8,9.1,14.9c2.9,5.1,5.8,10.4,8.5,15.8c2.7,5.4,5.3,10.9,7.9,16.5
			c2.5,5.6,4.9,11.3,7.2,17.2c2.3,5.8,4.4,11.7,6.5,17.7c2,6,4,12,5.7,18.2c1.8,6.1,3.4,12.3,5,18.5s2.9,12.5,4.2,18.8
			c1.3,6.3,2.4,12.6,3.4,19c1,6.3,1.8,12.7,2.5,19c0.7,6.3,1.3,12.7,1.7,19c0.4,6.3,0.7,12.6,0.8,18.8c0.1,6.2,0.1,12.4-0.1,18.6
			s-0.5,12.2-0.9,18.2c-0.5,6-1.1,11.9-1.8,17.8s-1.6,11.6-2.6,17.2c-0.8,4.4-1.8,8.8-2.7,13.1"/>
	</g>
	<g id="LINE_5_">
		<line class="st1" x1="71.8" y1="133.1" x2="71.5" y2="133"/>
	</g>
	<g id="SPLINE_219_">
		<path class="st1" d="M67.2,130.2C67.1,130.2,67.1,130.2,67.2,130.2c-0.3-0.2-0.6-0.5-0.9-0.7c-0.3-0.2-0.5-0.4-0.8-0.6
			c-0.2-0.2-0.5-0.4-0.7-0.6c-0.2-0.2-0.5-0.4-0.7-0.7c-0.2-0.2-0.4-0.5-0.6-0.7c-0.2-0.2-0.4-0.5-0.6-0.7c-0.2-0.2-0.4-0.5-0.5-0.7
			c-0.2-0.2-0.3-0.5-0.5-0.7c-0.3-0.4-0.5-0.9-0.7-1.3c-0.2-0.5-0.4-1-0.5-1.4c-0.1-0.5-0.2-1-0.2-1.5c0-0.7,0.1-1.4,0.4-2.1
			c0.3-0.7,0.7-1.3,1.2-1.8c0.5-0.6,1.2-1.1,2-1.5c0.8-0.4,1.7-0.8,2.7-1.1"/>
	</g>
	<g id="ARC_32_">
		<path class="st1" d="M12.6,166"/>
	</g>
	<g id="SPLINE_208_">
		<path class="st1" d="M119.6,167.5c0.9,0.5,1.8,1,2.8,1.4c0.9,0.3,1.8,0.6,2.6,0.8c0.9,0.2,1.8,0.2,2.6,0.2c0.8,0,1.5-0.2,2.2-0.4
			c0.6-0.2,1.1-0.6,1.4-1c0.2-0.3,0.3-0.6,0.3-0.9"/>
	</g>
	<g id="ARC_27_">
		<path class="st1" d="M42,209.8"/>
	</g>
</g>
</svg>
