<?xml version="1.0" encoding="utf-8"?>
<!-- Generator: Adobe Illustrator 22.0.1, SVG Export Plug-In . SVG Version: 6.00 Build 0)  -->
<svg version="1.1" id="Layer_1" xmlns="http://www.w3.org/2000/svg" xmlns:xlink="http://www.w3.org/1999/xlink" x="0px" y="0px"
	 viewBox="0 0 376 545.1" style="enable-background:new 0 0 376 545.1;" xml:space="preserve">
<style type="text/css">
	.st0{fill:none;stroke:#FEFEFE;stroke-width:0.4252;stroke-linecap:round;stroke-linejoin:round;stroke-miterlimit:10;}
	.st1{fill:none;stroke:#FFFFFF;stroke-width:1.5;stroke-linecap:round;stroke-linejoin:round;stroke-miterlimit:10;}
</style>
<g id="LINE_156_">
	<line class="st0" x1="104.6" y1="434.9" x2="113.5" y2="436.5"/>
</g>
<g id="LINE_155_">
	<line class="st0" x1="108.6" y1="464.4" x2="99.6" y2="462.8"/>
</g>
<g id="SPLINE_545_">
	<path class="st0" d="M94.6,447c0.3-1.4,0.6-2.7,1-4c0.3-1.1,0.7-2.1,1.2-3c0.4-0.7,0.7-1.4,1.2-2c0.3-0.4,0.6-0.8,1-1.2
		c0.2-0.2,0.5-0.5,0.8-0.7c0.3-0.3,0.7-0.5,1.1-0.7c0.5-0.3,1.1-0.4,1.6-0.5c0.7-0.1,1.4,0,2.1,0"/>
</g>
<g id="SPLINE_544_">
	<path class="st0" d="M99.7,462.8c-0.7-0.2-1.5-0.4-2.1-0.7c-0.5-0.3-1-0.7-1.4-1.1c-0.3-0.3-0.6-0.7-0.8-1.1
		c-0.2-0.3-0.4-0.6-0.5-1c-0.2-0.5-0.4-1-0.5-1.6c-0.2-0.8-0.3-1.6-0.4-2.5c-0.1-1.1-0.1-2.3,0-3.5c0-0.7,0.1-1.4,0.2-2.1
		c0.1-0.8,0.2-1.5,0.4-2.3"/>
</g>
<g id="SPLINE_543_">
	<path class="st0" d="M130.6,541.8c-0.7-0.2-1.5-0.3-2.2-0.5c-1.4-0.3-2.8-0.7-4.2-1.1c-1.7-0.5-3.3-1-5-1.5"/>
</g>
<g id="SPLINE_542_">
	<path class="st0" d="M70.5,71.3c0.3-0.4,0.5-0.8,0.8-1.2c2.6-3.8,5.3-7.5,8-11.2c2.8-3.7,5.6-7.3,8.4-10.9
		c2.9-3.6,5.8-7.1,8.8-10.6c3-3.5,6-7,9.2-10.3c1-1.1,2.1-2.2,3.1-3.3"/>
</g>
<g id="SPLINE_541_">
	<path class="st0" d="M25.6,437.6c-0.1-0.2-0.1-0.3-0.2-0.5c-1.6-4-2.9-8-4.3-12.1c-1.3-4.1-2.7-8.1-3.9-12.2
		c-1.2-4.1-2.4-8.2-3.5-12.4c-1.1-4.1-2.2-8.3-3.1-12.5c-0.7-3-1.3-6.1-1.9-9.1"/>
</g>
<g id="LINE_154_">
	<line class="st0" x1="141" y1="500.9" x2="141.6" y2="501.2"/>
</g>
<g id="SPLINE_540_">
	<path class="st0" d="M108.7,535.1c-1.8-0.8-3.5-1.5-5.3-2.3c-1.6-0.7-3.1-1.5-4.6-2.3c-1.3-0.7-2.7-1.4-4-2.2
		c-1.1-0.7-2.2-1.3-3.3-2c-0.9-0.6-1.8-1.2-2.7-1.8c-0.8-0.5-1.5-1-2.3-1.6c-1.2-0.9-2.4-1.7-3.6-2.6c-1.2-0.9-2.4-1.9-3.7-2.9
		c-1.2-1-2.4-2-3.6-3c-1.1-1-2.3-2-3.4-3c-1-1-2-1.9-3-2.9c-1.1-1.1-2.3-2.3-3.4-3.4c-1.3-1.3-2.5-2.7-3.7-4.1
		c-1.2-1.4-2.4-2.8-3.6-4.3c-1.6-2-3.2-4.1-4.8-6.2c-1.5-2.1-3-4.2-4.5-6.3c-1.5-2.2-2.9-4.4-4.3-6.6c-1.4-2.3-2.8-4.6-4.1-7
		c-1.4-2.4-2.7-4.9-4-7.4c-1.3-2.6-2.7-5.2-3.9-8c-0.3-0.7-0.6-1.4-0.9-2.1"/>
</g>
<g id="SPLINE_539_">
	<path class="st0" d="M108.9,23.6c1.6-1.7,3.2-3.3,4.8-4.9c1.6-1.6,3.1-3.1,4.7-4.6"/>
</g>
<g id="SPLINE_538_">
	<path class="st0" d="M130.2,95.8c-2.9,4.6-5.8,9.1-8.5,13.9c-3.2,5.5-6.3,11.2-9.2,17.1c-2.9,5.9-5.8,11.8-8.5,18
		c-2.7,6.1-5.3,12.4-7.7,18.7c-2.4,6.4-4.7,12.8-6.8,19.3c-2.1,6.5-4.1,13.2-6,19.9c-1.8,6.7-3.5,13.4-5,20.2
		c-1.5,6.8-2.9,13.6-4.1,20.5c-1.2,6.9-2.2,13.7-3.1,20.6c-0.9,6.9-1.6,13.8-2.1,20.6c-0.5,6.9-0.9,13.7-1.1,20.5
		c-0.2,6.8-0.2,13.5-0.1,20.2c0.1,6.7,0.4,13.3,0.9,19.8c0.5,6.5,1.1,12.9,1.9,19.3c0.8,6.3,1.7,12.6,2.9,18.6
		c0.7,3.7,1.6,7.3,2.4,10.9"/>
</g>
<g id="SPLINE_537_">
	<path class="st0" d="M177.7,428.6c-1.3,3.2-2.6,6.4-3.9,9.5c-2.7,6.6-5.4,13.2-8.1,19.8c-2.8,6.8-5.6,13.7-8.3,20.6
		c-2.9,7.1-5.7,14.1-8.6,21.2c-0.5,1.3-1.1,2.6-1.6,3.9"/>
</g>
<g id="SPLINE_536_">
	<path class="st0" d="M299.2,234.4c-0.7,0.3-1.4,0.6-2.1,0.9c-1.9,0.8-3.7,1.7-5.5,2.6c-0.9,0.4-1.8,0.9-2.6,1.3"/>
</g>
<g id="SPLINE_535_">
	<path class="st0" d="M96.6,437.7c0.8-4.1,1.5-8.2,2.3-12.2c1.3-6.8,2.6-13.7,4-20.5c1.3-6.3,2.6-12.7,4-19
		c1.3-5.8,2.5-11.5,3.9-17.2c1.2-5.3,2.5-10.6,3.8-15.8c1.2-4.8,2.4-9.7,3.7-14.5c1.2-4.4,2.3-8.9,3.5-13.3
		c1.3-4.9,2.7-9.7,4.1-14.5c1.3-4.5,2.6-8.9,4-13.3c1.3-4.1,2.6-8.2,4-12.2c1.3-3.8,2.6-7.5,4-11.2c1.3-3.5,2.6-6.9,4-10.4
		c1.3-3.2,2.6-6.4,4-9.6c2.3-5.3,4.7-10.5,7.2-15.6c2.5-5,5.1-9.8,7.8-14.5c2.7-4.6,5.5-9.2,8.5-13.6c2.9-4.4,6-8.6,9.1-12.7
		c1.5-2,3.1-4,4.7-6c1.4-1.7,2.8-3.5,4.3-5.2c1.2-1.4,2.4-2.8,3.7-4.3c1-1.1,2-2.2,3-3.4c0.3-0.3,0.6-0.7,0.9-1
		c0.4-0.5,0.9-1,1.3-1.4c0.6-0.6,1.2-1.3,1.8-1.9c1.2-1.2,2.3-2.5,3.5-3.7c1.1-1.2,2.3-2.3,3.5-3.5"/>
</g>
<g id="SPLINE_534_">
	<path class="st0" d="M88.3,483.8c0.8-4.5,1.6-9,2.3-13.6c0.7-3.8,1.3-7.6,2-11.4"/>
</g>
<g id="SPLINE_533_">
	<path class="st0" d="M287.9,239.8c-0.8,0.4-1.7,0.9-2.5,1.3c-1.6,0.9-3.3,1.8-4.9,2.8c-1.4,0.8-2.8,1.7-4.1,2.6
		c-1.2,0.8-2.3,1.6-3.5,2.4c-1.3,0.9-2.6,1.9-3.8,3c-1,0.8-2,1.7-3,2.6c-0.8,0.7-1.5,1.4-2.2,2.1c-0.8,0.7-1.5,1.5-2.3,2.2
		c-0.8,0.8-1.6,1.6-2.3,2.5c-0.9,1-1.8,2-2.7,3.1c-1,1.2-2.1,2.5-3.1,3.8c-1.6,2-3.1,4.1-4.6,6.3c-1.7,2.4-3.3,4.9-4.9,7.5
		c-1.5,2.4-2.9,4.8-4.3,7.2c-1.3,2.2-2.5,4.4-3.7,6.6c-1,2-2.1,3.9-3.1,5.9c-0.9,1.7-1.7,3.3-2.5,5c-0.6,1.2-1.2,2.4-1.7,3.6
		c-0.5,0.9-0.9,1.9-1.4,2.8c-0.4,0.7-0.7,1.5-1.1,2.2c-0.5,1-1,2-1.4,3.1c-0.7,1.4-1.3,2.8-2,4.3c-0.8,1.9-1.7,3.7-2.5,5.6
		c-1,2.3-2.1,4.6-3.1,6.9c-1.1,2.4-2.1,4.9-3.2,7.3c-1.2,2.8-2.5,5.7-3.7,8.5c-1.4,3.3-2.8,6.6-4.2,9.9c-1.6,3.8-3.2,7.5-4.8,11.3
		c-1.8,4.3-3.6,8.6-5.4,12.8c-2,4.8-4,9.6-6,14.4c-2.2,5.3-4.4,10.7-6.6,16c-1.7,4.1-3.4,8.2-5.1,12.3"/>
</g>
<g id="LINE_153_">
	<line class="st0" x1="169" y1="525.9" x2="166.6" y2="529.2"/>
</g>
<g id="SPLINE_532_">
	<path class="st0" d="M141.6,501.2c1.6,0.6,3.2,1.2,4.7,1.9c1.2,0.5,2.5,1.1,3.7,1.7c0.9,0.5,1.9,1,2.8,1.5c0.7,0.4,1.3,0.8,2,1.2
		c0.5,0.3,1,0.6,1.5,0.9c0.5,0.3,0.9,0.6,1.4,0.9c0.5,0.3,0.9,0.6,1.4,0.9c0.4,0.3,0.9,0.6,1.3,1c0.6,0.5,1.3,1,1.9,1.5
		c0.6,0.5,1.2,1.1,1.8,1.6c0.7,0.6,1.3,1.3,2,1.9c0.7,0.7,1.3,1.4,1.9,2c0.3,0.3,0.6,0.6,0.8,0.8c0.1,0.1,0.2,0.2,0.2,0.3"/>
</g>
<g id="SPLINE_531_">
	<path class="st0" d="M168.7,519.2c0.4,0.6,0.8,1.1,1.1,1.7c0.3,0.6,0.3,1.3,0.3,1.9c0,0.6-0.1,1.3-0.4,1.9
		c-0.2,0.4-0.5,0.8-0.8,1.2"/>
</g>
<g id="SPLINE_530_">
	<path class="st0" d="M164.7,531c-2,1.3-4,2.7-6.1,4c-1.9,1.2-3.9,2.5-5.8,3.7c-1.8,1.1-3.6,2.2-5.4,3.3c-0.9,0.5-1.9,1.1-2.8,1.6"
		/>
</g>
<g id="SPLINE_529_">
	<path class="st0" d="M287.9,89.2c2-0.5,4.1-1,6.1-1.4c2.9-0.6,5.8-1.1,8.6-1.5c2.6-0.4,5.2-0.7,7.7-0.9c2.3-0.2,4.5-0.4,6.8-0.5
		c2-0.1,3.9-0.1,5.8-0.1c1.7,0,3.3,0,4.9,0.1c1.6,0.1,3.2,0.2,4.8,0.3c1.3,0.1,2.5,0.3,3.8,0.4c1.2,0.2,2.4,0.3,3.6,0.6
		c1.3,0.2,2.5,0.5,3.7,0.7c1.3,0.3,2.6,0.6,3.8,1c1.6,0.5,3.2,1,4.7,1.6c1.4,0.5,2.7,1.1,4,1.7c1.1,0.5,2.1,1.1,3,1.6
		c0.8,0.5,1.6,1,2.3,1.5c0.6,0.4,1.3,0.9,1.9,1.4c0.7,0.6,1.3,1.1,1.9,1.7c0.7,0.7,1.4,1.4,2,2.3c0.8,1,1.6,2.2,2.4,3.5
		c0.9,1.6,1.6,3.3,2.4,5"/>
</g>
<g id="SPLINE_528_">
	<path class="st0" d="M203.2,161.8c-0.3-1.2-0.5-2.4-0.7-3.6c-0.2-0.9-0.3-1.9-0.3-2.8c0-0.7-0.1-1.4-0.1-2.1c0-0.4,0-0.9,0-1.3
		c0-0.4,0.1-0.8,0.1-1.1c0.1-0.6,0.2-1.3,0.3-1.9c0.2-0.8,0.4-1.7,0.6-2.5c0.3-1,0.6-2,1-3.1c0.2-0.4,0.4-0.8,0.5-1.2"/>
</g>
<g id="LINE_152_">
	<line class="st0" x1="371.9" y1="108.3" x2="372" y2="108.5"/>
</g>
<g id="LINE_151_">
	<line class="st0" x1="372.7" y1="110.8" x2="373" y2="112"/>
</g>
<g id="LINE_150_">
	<line class="st0" x1="204.4" y1="165.4" x2="203.9" y2="164.2"/>
</g>
<g id="LINE_149_">
	<line class="st0" x1="214.4" y1="177.6" x2="210.7" y2="174.2"/>
</g>
<g id="SPLINE_527_">
	<path class="st0" d="M311.9,235.4c-0.9,0.1-1.8,0.3-2.8,0.4c-1.1,0.1-2.2,0.2-3.4,0.2c-1.2,0-2.4,0-3.7,0c-1.3,0-2.6-0.1-3.8-0.3
		c-0.5-0.1-1-0.2-1.5-0.2"/>
</g>
<g id="SPLINE_526_">
	<path class="st0" d="M373,122.8c-1.4,6.1-2.9,12.1-4.3,18.2c-1.2,5-2.4,10.1-3.7,15.2c-0.8,3.2-1.6,6.4-2.5,9.6"/>
</g>
<g id="SPLINE_525_">
	<path class="st0" d="M97.5,433.7c0-0.1,0-0.3,0.1-0.4c0.1-0.4,0.1-0.7,0.1-1.1"/>
</g>
<g id="LINE_148_">
	<line class="st0" x1="92" y1="464.5" x2="92.3" y2="462.9"/>
</g>
<g id="LINE_147_">
	<line class="st0" x1="97" y1="475.2" x2="96.8" y2="475.2"/>
</g>
<g id="SPLINE_524_">
	<path class="st0" d="M119.1,538.7c-1-0.3-2-0.6-2.9-0.9c-1-0.3-1.8-0.6-2.7-0.9c-1.7-0.6-3.4-1.3-5-1.9"/>
</g>
<g id="SPLINE_523_">
	<path class="st0" d="M144.7,543.6c-0.2,0.1-0.4,0.2-0.7,0.2c-0.3,0-0.7,0.1-1.2,0.1c-0.9,0-2-0.1-3.4-0.3c-1.3-0.2-2.7-0.4-4.2-0.7
		c-1.5-0.3-3.1-0.7-4.6-1"/>
</g>
<g id="LINE_146_">
	<line class="st0" x1="106.5" y1="422.3" x2="106.6" y2="422.3"/>
</g>
<g id="SPLINE_522_">
	<path class="st0" d="M270.3,157.7C270.3,157.7,270.3,157.7,270.3,157.7c-0.2-0.5-0.3-1.1-0.2-1.6c0-0.5,0.1-1,0.2-1.5
		c0.1-0.5,0.3-1,0.6-1.5c0.3-0.5,0.6-0.9,0.9-1.4c0.3-0.4,0.7-0.8,1.1-1.2c0.4-0.3,0.8-0.7,1.2-1c0.5-0.3,1-0.7,1.5-1
		c0.4-0.2,0.8-0.5,1.2-0.7c0.4-0.2,0.8-0.4,1.2-0.6c0.7-0.3,1.4-0.6,2.2-0.8"/>
</g>
<g id="SPLINE_521_">
	<path class="st0" d="M280.2,146.7c0.8-0.2,1.5-0.4,2.3-0.6c0.3-0.1,0.6-0.1,0.9-0.2c0.5-0.1,1-0.1,1.5-0.2c0.5,0,1-0.1,1.5-0.1
		c0.5,0,1,0,1.5,0.1c0.5,0,1,0.1,1.5,0.2c0.5,0.1,1,0.2,1.4,0.4c0.5,0.2,0.9,0.4,1.3,0.6c0.4,0.2,0.8,0.5,1.1,0.8
		c0.3,0.3,0.6,0.7,0.9,1.1c0.2,0.4,0.4,0.8,0.6,1.2"/>
</g>
<g id="LINE_145_">
	<line class="st0" x1="271.6" y1="162" x2="270.3" y2="157.8"/>
</g>
<g id="LINE_144_">
	<line class="st0" x1="294.6" y1="150.1" x2="295.8" y2="153.9"/>
</g>
<g id="LINE_143_">
	<line class="st0" x1="141.8" y1="452.4" x2="140" y2="460.4"/>
</g>
<g id="SPLINE_520_">
	<path class="st0" d="M147.2,448.6c-0.4-0.1-0.8-0.1-1.3,0c-0.5,0.1-1.1,0.3-1.6,0.6c-0.3,0.2-0.6,0.4-0.8,0.6
		c-0.3,0.2-0.5,0.5-0.7,0.8c-0.2,0.3-0.4,0.6-0.6,0.9c-0.2,0.3-0.3,0.7-0.4,1.1"/>
</g>
<g id="SPLINE_519_">
	<path class="st0" d="M140,460.4c-0.1,0.4-0.1,0.7-0.1,1.1c0,0.3,0,0.6,0.1,1c0.1,0.6,0.4,1.1,0.6,1.5c0.3,0.4,0.6,0.7,0.9,0.9
		c0.3,0.2,0.5,0.3,0.8,0.3"/>
</g>
<g id="SPLINE_518_">
	<path class="st0" d="M300.8,140.2C300.8,140.1,300.8,140.1,300.8,140.2c-0.2-0.5-0.3-1.1-0.2-1.6c0-0.5,0.1-1,0.2-1.5
		c0.1-0.5,0.3-1,0.6-1.5c0.3-0.5,0.6-0.9,0.9-1.4c0.3-0.4,0.7-0.8,1.1-1.2c0.4-0.3,0.8-0.7,1.2-1c0.5-0.3,1-0.7,1.5-1
		c0.4-0.2,0.8-0.5,1.2-0.7c0.4-0.2,0.8-0.4,1.2-0.6c0.7-0.3,1.4-0.6,2.2-0.8"/>
</g>
<g id="SPLINE_517_">
	<path class="st0" d="M310.6,129.1c0.8-0.2,1.5-0.4,2.3-0.6c0.3-0.1,0.6-0.1,0.9-0.2c0.5-0.1,1-0.1,1.5-0.2c0.5,0,1-0.1,1.5-0.1
		c0.5,0,1,0,1.5,0.1c0.5,0,1,0.1,1.5,0.2c0.5,0.1,1,0.2,1.4,0.4c0.5,0.2,0.9,0.4,1.3,0.6c0.4,0.2,0.8,0.5,1.1,0.8
		c0.3,0.3,0.6,0.7,0.9,1.1c0.2,0.4,0.4,0.8,0.6,1.2"/>
</g>
<g id="LINE_142_">
	<line class="st0" x1="302" y1="144.2" x2="300.8" y2="140.2"/>
</g>
<g id="LINE_141_">
	<line class="st0" x1="325.1" y1="132.5" x2="326.7" y2="137.5"/>
</g>
<g id="SPLINE_516_">
	<path class="st0" d="M243.4,167.4c-0.1-0.2-0.1-0.4-0.2-0.5c-0.1-0.3,0-0.7,0-1c0.1-0.6,0.2-1.1,0.5-1.7c0.4-0.8,1-1.6,1.8-2.3
		c0.3-0.3,0.7-0.6,1.1-0.9c0.6-0.4,1.2-0.8,1.9-1.1c0.9-0.5,1.9-0.8,2.9-1.1c0.6-0.2,1.2-0.3,1.8-0.3c0.6-0.1,1.3,0,1.9,0"/>
</g>
<g id="LINE_140_">
	<line class="st0" x1="243.4" y1="167.6" x2="243.4" y2="167.5"/>
</g>
<g id="LINE_139_">
	<line class="st0" x1="259" y1="160.8" x2="259.2" y2="161.1"/>
</g>
<g id="SPLINE_515_">
	<path class="st0" d="M254.8,158.4c0.5,0.1,1,0.1,1.5,0.3c0.5,0.1,0.9,0.3,1.3,0.6c0.4,0.2,0.7,0.5,1,0.8c0.2,0.2,0.3,0.5,0.5,0.8"
		/>
</g>
<g id="SPLINE_514_">
	<path class="st0" d="M354.5,180.1c-0.6,0.7-1.2,1.4-1.9,2.1c-0.6,0.7-1.2,1.3-1.9,2.1c-0.6,0.7-1.3,1.4-1.9,2.1
		c-0.6,0.7-1.2,1.4-1.8,2.1c-0.6,0.7-1.1,1.3-1.7,2c-0.5,0.6-1,1.2-1.5,1.9c-0.8,1-1.7,2.1-2.4,3.1c-0.7,0.9-1.4,1.9-2,2.8
		c-0.8,1.2-1.5,2.3-2.2,3.4c-0.8,1.3-1.5,2.6-2.1,3.8c-0.7,1.5-1.3,2.9-1.9,4.3"/>
</g>
<g id="SPLINE_513_">
	<path class="st0" d="M302,132.8c0.3-0.2,0.6-0.3,0.9-0.5c0.3-0.2,0.6-0.4,0.9-0.5"/>
</g>
<g id="SPLINE_512_">
	<path class="st0" d="M337.5,225.9c-0.9,0.2-1.8,0.5-2.8,0.7c-1.6,0.4-3.2,0.6-4.8,0.8c-1.6,0.2-3.2,0.4-4.8,0.4c-0.6,0-1.1,0-1.7,0
		"/>
</g>
<g id="SPLINE_511_">
	<path class="st0" d="M349.6,185.5c-0.4,1.4-0.8,2.8-1.2,4.1c-0.7,2.3-1.2,4.7-1.8,7c-0.4,1.9-0.9,3.7-1.2,5.6
		c-0.3,1.4-0.6,2.8-0.8,4.1c-0.1,0.7-0.3,1.4-0.4,2.1c-0.1,0.5-0.2,1-0.2,1.4c-0.1,0.7-0.2,1.3-0.3,1.9c-0.1,0.9-0.3,1.8-0.4,2.7
		c-0.2,1.2-0.3,2.4-0.4,3.5c0,0.4-0.1,0.9-0.1,1.3"/>
</g>
<g id="SPLINE_510_">
	<path class="st0" d="M342.6,219.3c-0.2,1-0.4,2-0.8,2.9c-0.4,0.8-0.9,1.5-1.6,2.2c-0.5,0.5-1.1,1-1.9,1.2c-0.3,0.1-0.6,0.2-0.9,0.2
		"/>
</g>
<g id="SPLINE_509_">
	<path class="st0" d="M333,209.7c-1.1,2.5-2.1,5-3.2,7.3c-0.9,2-1.9,3.9-3,5.7c-0.8,1.4-1.7,2.8-2.6,4c-0.7,0.9-1.4,1.8-2.1,2.6
		c-0.3,0.4-0.7,0.7-1.1,1.1c-0.3,0.3-0.5,0.5-0.8,0.8c-0.4,0.3-0.8,0.7-1.2,1c-0.6,0.4-1.2,0.8-1.8,1.2c-0.8,0.5-1.6,0.9-2.5,1.2
		c-1,0.4-2.1,0.6-3.1,0.8"/>
</g>
<g id="SPLINE_508_">
	<path class="st0" d="M362.3,166.7c0,0.1-0.1,0.3-0.1,0.4c-0.3,1-0.7,2-1.1,3c-0.5,1-1,2-1.5,3c-0.6,1-1.2,2-1.9,3
		c-0.7,1-1.4,2-2.3,3c-0.3,0.3-0.6,0.6-0.9,1"/>
</g>
<g id="SPLINE_507_">
	<path class="st0" d="M193.5,124.9c-3.6-2.1-7.2-4.2-10.9-6.3c-3.4-1.9-6.8-3.9-10.2-5.8c-2.9-1.6-5.8-3.2-8.7-4.8
		c-2.4-1.3-4.7-2.6-7.1-3.9c-1.9-1-3.8-2.1-5.7-3.1c-0.8-0.4-1.6-0.9-2.4-1.3c-0.7-0.4-1.4-0.7-2.1-1.1c-0.6-0.3-1.2-0.6-1.7-0.9
		c-0.7-0.4-1.3-0.7-2-1.1c-1-0.5-2-1-3-1.6c-1.3-0.7-2.6-1.4-4-2.1c-1.7-0.9-3.4-1.8-5-2.7c-2.1-1.1-4.1-2.2-6.2-3.2
		c-2.5-1.3-5-2.6-7.4-3.9c-2.7-1.4-5.4-2.8-8.2-4.2"/>
</g>
<g id="SPLINE_506_">
	<path class="st0" d="M257.9,110.7c-0.1,0-0.2,0.1-0.4,0.1c-0.6,0.1-1.3,0.2-1.9,0.3c-0.6,0.1-1.3,0.2-1.9,0.2
		c-0.7,0-1.3,0.1-1.9,0.1c-0.7,0-1.3,0-1.9-0.1c-0.6-0.1-1.3-0.1-1.9-0.2c-0.6-0.1-1.2-0.3-1.8-0.4c-0.6-0.2-1.1-0.4-1.7-0.6
		c-0.5-0.2-1-0.5-1.5-0.8c-0.5-0.3-0.9-0.7-1.3-1.1c-0.4-0.4-0.7-0.8-1-1.3c-0.3-0.5-0.5-1-0.7-1.5c-0.2-0.6-0.3-1.1-0.4-1.7
		c0-0.6,0-1.1,0.1-1.7c0.1-0.6,0.2-1.2,0.5-1.7c0.2-0.6,0.5-1.2,0.8-1.7c0.3-0.6,0.7-1.1,1.2-1.7c0.4-0.5,0.9-1,1.4-1.5
		c0.5-0.5,1-0.9,1.6-1.4c0.6-0.4,1.1-0.8,1.7-1.2c0.6-0.4,1.3-0.8,2-1.2c0.5-0.3,1.1-0.5,1.6-0.8c0.5-0.2,1-0.4,1.5-0.7
		c0.9-0.4,1.8-0.7,2.8-1"/>
</g>
<g id="SPLINE_505_">
	<path class="st0" d="M254.8,88.8c0.9-0.3,1.9-0.5,2.8-0.8c0.4-0.1,0.8-0.2,1.1-0.2c0.6-0.1,1.3-0.2,1.9-0.3
		c0.6-0.1,1.3-0.2,1.9-0.2c0.7,0,1.3-0.1,1.9-0.1c0.7,0,1.3,0,1.9,0.1c0.6,0.1,1.3,0.1,1.9,0.2c0.6,0.1,1.2,0.3,1.8,0.4
		c0.6,0.2,1.1,0.4,1.7,0.6c0.5,0.2,1,0.5,1.5,0.8c0.5,0.3,0.9,0.7,1.3,1.1c0.4,0.4,0.7,0.8,1,1.3c0.3,0.5,0.5,1,0.7,1.5
		c0.2,0.6,0.3,1.1,0.4,1.7c0,0.6,0,1.1-0.1,1.7c-0.1,0.6-0.2,1.2-0.5,1.7c-0.2,0.6-0.5,1.2-0.8,1.7c-0.3,0.6-0.7,1.1-1.2,1.7
		c-0.4,0.5-0.9,1-1.4,1.5c-0.5,0.5-1,0.9-1.6,1.4c-0.6,0.4-1.1,0.8-1.7,1.2c-0.6,0.4-1.3,0.8-2,1.2c-0.5,0.3-1.1,0.5-1.6,0.8
		c-0.5,0.2-1,0.4-1.4,0.6"/>
</g>
<g id="LINE_138_">
	<line class="st0" x1="267.1" y1="107.4" x2="265.6" y2="108.2"/>
</g>
<g id="LINE_137_">
	<line class="st0" x1="257.2" y1="110.8" x2="255.5" y2="111.1"/>
</g>
<g id="LINE_136_">
	<line class="st0" x1="170.2" y1="11.6" x2="172.4" y2="13.6"/>
</g>
<g id="SPLINE_504_">
	<path class="st0" d="M171.8,13.1c0.1,0.1,0.2,0.2,0.3,0.2c1,0.7,1.8,1.6,2.5,2.4c0.9,1,1.7,2.2,2.4,3.3c0.8,1.4,1.5,2.8,1.9,4.3
		c0.5,1.7,0.8,3.5,0.9,5.2c0,1,0,1.9-0.1,2.9c-0.1,1-0.3,2-0.6,2.9c-0.3,1-0.7,2-1.2,2.9c-0.5,1-1.1,1.9-1.7,2.8
		c-0.7,0.9-1.4,1.8-2.3,2.6c-0.7,0.7-1.4,1.4-2.1,2.1"/>
</g>
<g id="SPLINE_503_">
	<path class="st0" d="M150.1,2.6c1.7,0.6,3.5,1.1,5.2,1.7c3,1.1,5.9,2.3,8.7,3.5"/>
</g>
<g id="LINE_135_">
	<line class="st0" x1="252.8" y1="116.2" x2="251.3" y2="111.3"/>
</g>
<g id="LINE_134_">
	<line class="st0" x1="270.7" y1="105.1" x2="272.1" y2="109.5"/>
</g>
<g id="SPLINE_502_">
	<path class="st0" d="M204.6,142.3c0.4-0.8,0.8-1.6,1-2.4c0.2-0.7,0.3-1.5,0.2-2.4c-0.1-0.7-0.3-1.5-0.7-2.3c-0.3-0.7-0.7-1.3-1.2-2
		c-0.4-0.6-0.9-1.2-1.5-1.8c-0.7-0.7-1.4-1.4-2.2-2.1c-0.9-0.8-2-1.5-3-2.2c-1.2-0.8-2.4-1.5-3.6-2.2"/>
</g>
<g id="SPLINE_501_">
	<path class="st0" d="M156.3,58.9c2.7,1,5.4,2,8,3c2.9,1,5.7,2.1,8.6,3.1c2.4,0.9,4.8,1.7,7.2,2.5c2.2,0.8,4.3,1.5,6.5,2.3
		c2.1,0.7,4.2,1.4,6.3,2.2c1.4,0.5,2.9,1,4.4,1.5c1.4,0.5,2.9,1,4.3,1.4c1.7,0.6,3.4,1.1,5.1,1.7c2,0.7,4.1,1.4,6.1,2
		c2.4,0.8,4.8,1.6,7.2,2.4c2.8,0.9,5.6,1.8,8.3,2.8c2.6,0.9,5.2,1.7,7.8,2.6"/>
</g>
<g id="SPLINE_500_">
	<path class="st0" d="M118.5,14c2.1-2,4.3-3.9,6.7-5.8c1.1-0.9,2.4-1.8,3.7-2.6c1.3-0.8,2.8-1.5,4.4-2.1c1.6-0.6,3.3-1.1,4.9-1.4
		c1.6-0.3,3.2-0.4,4.8-0.5c1.5,0,3,0,4.3,0.3c0.2,0,0.4,0.1,0.6,0.2"/>
</g>
<g id="SPLINE_499_">
	<path class="st0" d="M235.9,86.3c2.6,0.9,5.3,1.7,7.9,2.4c2.3,0.6,4.6,1.2,7,1.5c0.1,0,0.2,0,0.3,0"/>
</g>
<g id="SPLINE_498_">
	<path class="st0" d="M275,91.1c1.8-0.2,3.5-0.3,5.3-0.5c2.6-0.4,5.1-0.9,7.6-1.4"/>
</g>
<g id="LINE_133_">
	<line class="st0" x1="109.6" y1="79.1" x2="102.4" y2="79.2"/>
</g>
<g id="LINE_132_">
	<line class="st0" x1="96" y1="75.1" x2="95.9" y2="74.8"/>
</g>
<g id="LINE_131_">
	<line class="st0" x1="155.2" y1="54.2" x2="155.4" y2="54.7"/>
</g>
<g id="LINE_130_">
	<line class="st0" x1="155.4" y1="54.7" x2="156.4" y2="59.1"/>
</g>
<g id="SPLINE_497_">
	<path class="st0" d="M108.4,450.5c0.3-1.5,0.3-3,0-4.5s-0.8-2.9-1.4-4.1s-1.4-2.3-2.3-3c-0.8-0.8-1.7-1.3-2.6-1.5s-1.7-0.2-2.5,0.2
		c-0.8,0.4-1.5,1-2.1,1.9c-0.6,0.9-1.2,2-1.6,3.3c-0.5,1.3-0.9,2.8-1.2,4.2"/>
</g>
<g id="SPLINE_496_">
	<path class="st0" d="M94.7,447c-0.3,1.5-0.5,3-0.6,4.4c-0.1,1.4,0,2.7,0.2,3.9s0.6,2.1,1.1,2.8c0.5,0.7,1.3,1.2,2.1,1.4
		c0.9,0.2,1.9,0.2,3-0.2c1.1-0.3,2.2-0.9,3.3-1.7s2.1-1.9,2.9-3.1s1.4-2.6,1.7-4.1"/>
</g>
<g id="ARC_59_">
	<path class="st0" d="M111.4,451.1c-1-0.2-2-0.4-3.1-0.6"/>
</g>
<g id="LINE_129_">
	<line class="st0" x1="131.6" y1="542.1" x2="130.6" y2="541.8"/>
</g>
<g id="LINE_128_">
	<line class="st0" x1="119.3" y1="538.8" x2="118.2" y2="538.4"/>
</g>
<g id="SPLINE_495_">
	<path class="st0" d="M31.6,452.3C31.6,452.3,31.6,452.3,31.6,452.3c-2.2-4.6-4.1-9.6-6-14.7"/>
</g>
<g id="LINE_127_">
	<line class="st0" x1="108.9" y1="23.8" x2="110.5" y2="22.1"/>
</g>
<g id="SPLINE_494_">
	<path class="st0" d="M96.3,508.9c0.4,0.9,0.8,1.9,1.2,2.8c0.4,0.9,0.7,1.8,1.1,2.6c0.4,0.8,0.7,1.6,1.1,2.5c0.3,0.8,0.7,1.5,1,2.3
		c0.3,0.7,0.6,1.4,1,2.1c0.3,0.7,0.6,1.3,0.9,2c0.3,0.6,0.6,1.2,0.8,1.8c0.3,0.5,0.5,1.1,0.8,1.6c0.2,0.5,0.5,1,0.7,1.5
		c0.2,0.4,0.4,0.9,0.7,1.3c0.2,0.4,0.4,0.8,0.6,1.2c0.2,0.3,0.3,0.7,0.5,1c0.1,0.3,0.3,0.6,0.4,0.9c0.1,0.2,0.2,0.5,0.4,0.7
		c0.1,0.2,0.2,0.4,0.3,0.6c0.1,0.1,0.1,0.3,0.2,0.4"/>
</g>
<g id="LWPOLYLINE_15_">
	<polyline class="st0" points="51.7,475.4 50,473.3 45.1,466.9 40.4,460.1 35.9,452.9 31.7,445.3 27.7,437.4 24,429.1 20.6,420.5 
		17.4,411.5 14.5,402.3 11.9,392.8 9.5,383 7.5,373 5.7,362.7 4.3,352.2 3.1,341.6 2.3,330.8 1.7,319.8 1.5,308.7 1.6,297.5 
		2,286.2 2.6,274.8 3.6,263.4 4.9,252 6.5,240.5 8.4,229.1 10.6,217.7 13,206.4 15.8,195.2 18.8,184.1 22.1,173.1 25.7,162.2 
		29.5,151.5 33.6,141 37.9,130.7 42.5,120.6 47.3,110.7 52.3,101.1 57.5,91.8 63,82.8 68.6,74.1 74.4,65.7 80.4,57.7 86.5,50 
		92.8,42.7 99.2,35.8 105.8,29.3 	"/>
</g>
<g id="SPLINE_493_">
	<path class="st0" d="M118.3,14.2c-0.2,0.2-0.4,0.5-0.7,0.7c-0.4,0.4-0.7,0.8-1.1,1.2c-0.5,0.5-1,1.1-1.5,1.6
		c-0.6,0.7-1.2,1.4-1.8,2.1c-0.7,0.9-1.5,1.7-2.2,2.6c-0.8,1-1.7,2.1-2.5,3.2c-0.9,1.2-1.9,2.5-2.8,3.7"/>
</g>
<g id="LINE_126_">
	<line class="st0" x1="105.7" y1="30" x2="105.9" y2="29.8"/>
</g>
<g id="SPLINE_492_">
	<path class="st0" d="M96.2,507.9c-0.5-0.2-1-0.4-1.5-0.6c-0.5-0.2-1-0.4-1.5-0.6c-0.5-0.2-1-0.4-1.5-0.7c-0.5-0.2-1-0.5-1.5-0.7
		c-0.5-0.2-1-0.5-1.5-0.7c-0.5-0.2-1-0.5-1.4-0.7c-0.5-0.3-1-0.5-1.4-0.8c-0.5-0.3-1-0.5-1.4-0.8c-0.5-0.3-0.9-0.5-1.4-0.8
		c-0.5-0.3-0.9-0.6-1.4-0.8c-0.5-0.3-0.9-0.6-1.4-0.9c-0.5-0.3-0.9-0.6-1.4-0.9c-0.5-0.3-0.9-0.6-1.4-0.9c-0.5-0.3-0.9-0.6-1.4-0.9
		c-3.3-2.3-6.5-4.8-9.7-7.5c-3.1-2.7-6.2-5.7-9.2-8.8c-3-3.2-6-6.6-8.8-10.2c-2.8-3.6-5.5-7.4-8.1-11.4c-2.6-4-5.1-8.3-7.5-12.7
		c-2.4-4.4-4.7-9-6.8-13.8c-2.1-4.8-4.1-9.7-6-14.8c-1.9-5.1-3.6-10.4-5.2-15.8c-1.6-5.3-3-10.8-4.3-16.4C9.2,380,8,374.3,7,368.5
		c-1-5.7-1.8-11.5-2.6-17.4c-0.7-5.9-1.3-11.9-1.7-17.9c-0.4-5.9-0.7-11.8-0.8-17.8c-0.1-6-0.2-12,0-18.1c0.1-6.1,0.4-12.2,0.8-18.3
		c0.4-6.1,0.9-12.3,1.6-18.5c0.7-6.4,1.5-12.7,2.4-19.1c1-6.4,2-12.7,3.3-19.1c1.3-6.5,2.7-12.9,4.2-19.3c1.5-6.4,3.2-12.8,5-19.1
		c1.8-6.4,3.8-12.7,5.9-18.9c2.1-6.2,4.3-12.4,6.7-18.4c2.4-6.1,4.8-12,7.4-17.9c2.6-5.8,5.3-11.6,8.1-17.2c2.8-5.5,5.7-11,8.7-16.2
		c3-5.3,6.1-10.4,9.3-15.4c3.1-4.9,6.3-9.6,9.6-14.1c3.3-4.6,6.7-9,10.1-13.2c1-1.2,1.9-2.3,2.9-3.5c1-1.1,1.9-2.3,2.9-3.4
		c1-1.1,1.9-2.2,2.9-3.3c1-1.1,2-2.2,3-3.2c1-1.1,2-2.1,3-3.1c1-1,2-2.1,3-3.1c1-1,2-2,3-3"/>
</g>
<g id="LINE_125_">
	<line class="st0" x1="96.4" y1="508" x2="96.2" y2="507.9"/>
</g>
<g id="LINE_124_">
	<line class="st0" x1="99.1" y1="504.4" x2="96.4" y2="508"/>
</g>
<g id="SPLINE_491_">
	<path class="st0" d="M99.1,504.4c-7.2-2.7-14.2-6.4-20.8-10.9c-6.6-4.5-13-10-18.9-16.2c-5.9-6.2-11.5-13.3-16.6-21.1
		c-5.1-7.8-9.8-16.3-14-25.5c-4.2-9.2-7.9-19-11-29.4C14.6,391,12,380,10,368.7s-3.5-23.1-4.5-35.2c-0.9-12.1-1.2-24.4-1-37
		c0.2-12.5,1.1-25.2,2.5-38c1.4-12.7,3.4-25.5,5.9-38.1c2.5-12.7,5.6-25.2,9.2-37.5s7.7-24.4,12.3-36s9.6-23,15.1-33.8
		s11.4-21.1,17.6-30.8S80,63.4,86.9,55c6.9-8.4,14.1-16.1,21.5-23"/>
</g>
<g id="LINE_123_">
	<line class="st0" x1="105.9" y1="29.8" x2="108.4" y2="32"/>
</g>
<g id="SPLINE_490_">
	<path class="st0" d="M99.9,503.4c-2.1-0.8-4.2-1.7-6.3-2.7c-2.2-1-4.3-2.1-6.4-3.3c-2.1-1.2-4.2-2.4-6.2-3.8s-4.1-2.8-6.1-4.3
		c-2-1.5-4-3.1-5.9-4.8c-1.9-1.7-3.8-3.4-5.7-5.3c-1.9-1.8-3.7-3.7-5.5-5.7c-1.8-2-3.5-4-5.3-6.2c-1.7-2.1-3.4-4.3-5-6.6
		c-1.6-2.3-3.2-4.6-4.8-7.1c-1.5-2.4-3.1-4.9-4.5-7.5c-1.5-2.6-2.9-5.2-4.3-7.9s-2.7-5.4-4-8.3s-2.5-5.7-3.7-8.6
		c-1.2-2.9-2.3-5.9-3.4-9s-2.1-6.2-3.1-9.3c-1-3.2-1.9-6.4-2.8-9.6c-0.9-3.3-1.7-6.6-2.5-9.9c-0.8-3.4-1.5-6.7-2.2-10.2
		s-1.3-6.9-1.9-10.4c-0.6-3.5-1.1-7.1-1.6-10.7c-0.5-3.6-0.9-7.2-1.2-10.9c-0.4-3.7-0.7-7.3-0.9-11.1c-0.3-3.7-0.5-7.5-0.6-11.2
		c-0.1-3.8-0.2-7.6-0.3-11.4c0-3.8,0-7.6,0.1-11.5c0.1-3.8,0.2-7.7,0.4-11.6s0.4-7.8,0.7-11.7c0.3-3.9,0.6-7.8,1-11.7
		s0.9-7.8,1.4-11.7c0.5-3.9,1.1-7.8,1.7-11.7c0.6-3.9,1.3-7.8,2-11.7s1.5-7.8,2.3-11.6c0.8-3.9,1.7-7.7,2.6-11.6s1.9-7.7,2.9-11.5
		c1-3.8,2.1-7.6,3.2-11.4c1.1-3.8,2.3-7.5,3.5-11.2c1.2-3.7,2.5-7.4,3.8-11c1.3-3.7,2.7-7.3,4.1-10.9c1.4-3.6,2.9-7.1,4.4-10.6
		c1.5-3.5,3-7,4.6-10.4c1.6-3.4,3.2-6.8,4.9-10.2c1.7-3.3,3.4-6.6,5.1-9.9c1.7-3.2,3.5-6.4,5.3-9.6c1.8-3.1,3.7-6.2,5.6-9.3
		c1.9-3,3.8-6,5.8-8.9s3.9-5.8,6-8.6c2-2.8,4.1-5.5,6.1-8.2s4.2-5.3,6.3-7.8c2.1-2.5,4.3-5,6.5-7.4c2.2-2.4,4.4-4.7,6.6-7
		c2.1-2.2,4.3-4.3,6.5-6.3"/>
</g>
<g id="ARC_58_">
	<path class="st0" d="M109.2,33.1c-0.4-0.3-0.7-0.7-0.8-1.1"/>
</g>
<g id="ARC_57_">
	<path class="st0" d="M99.1,504.4c0.1-0.5,0.4-0.8,0.8-1.1"/>
</g>
<g id="SPLINE_489_">
	<path class="st0" d="M171.5,45.3c-0.1,0.1-0.2,0.2-0.3,0.3"/>
</g>
<g id="SPLINE_488_">
	<path class="st0" d="M109.5,32.8c3.5,2.5,7,4.8,10.6,6.8c3.8,2.1,7.7,3.9,11.5,5.4c3.8,1.5,7.6,2.6,11.3,3.3
		c3.7,0.7,7.3,1.1,10.7,1.1c3.4,0,6.7-0.4,9.8-1.1c2.9-0.7,5.6-1.7,8.1-3"/>
</g>
<g id="SPLINE_487_">
	<path class="st0" d="M109.2,33.1c0.1-0.1,0.2-0.2,0.3-0.3"/>
</g>
<g id="SPLINE_486_">
	<path class="st0" d="M100.2,503.5c-0.1,0-0.2-0.1-0.3-0.1"/>
</g>
<g id="SPLINE_485_">
	<path class="st0" d="M171.2,45.5c-3.7,3.5-7.3,7-10.9,10.9c-0.9,1-1.8,2-2.6,3"/>
</g>
<g id="LINE_122_">
	<line class="st0" x1="133" y1="91.4" x2="130.2" y2="95.5"/>
</g>
<g id="SPLINE_484_">
	<path class="st0" d="M76,393.8c0.2,1.2,0.5,2.4,0.7,3.5c1.2,5.5,2.7,10.7,4.3,15.9c1.6,5.1,3.3,10.2,5.1,15.1s3.7,9.7,5.9,14.2
		c0.8,1.7,1.7,3.4,2.5,5.1"/>
</g>
<g id="SPLINE_483_">
	<path class="st0" d="M93.1,492.3c0.8,0.4,1.5,0.9,2.4,1.3c0.9,0.4,1.9,0.8,3,1.1c1.1,0.3,2.2,0.6,3.4,0.8c1.3,0.2,2.6,0.4,4,0.6
		c1.2,0.1,2.4,0.2,3.6,0.3c1.3,0.1,2.5,0.2,3.8,0.3c1.4,0.1,2.8,0.2,4.2,0.2c1.4,0.1,2.8,0.2,4.2,0.3c1.6,0.1,3.2,0.3,4.8,0.4
		c1.6,0.2,3.1,0.4,4.6,0.6c1.6,0.3,3.2,0.6,4.6,0.9c1.5,0.4,2.9,0.8,4.1,1.2c0.4,0.2,0.8,0.3,1.2,0.5"/>
</g>
<g id="SPLINE_482_">
	<path class="st0" d="M88.4,483.9c-0.1,0.2-0.1,0.5-0.1,0.7c-0.1,0.7,0.1,1.5,0.4,2.2c0.3,0.8,0.7,1.6,1.3,2.4
		c0.6,0.8,1.3,1.6,2.2,2.3c0.3,0.3,0.6,0.5,1,0.8"/>
</g>
<g id="SPLINE_481_">
	<path class="st0" d="M146.2,55.4c-7,2.5-14.1,4.7-21.4,6.7c-7.2,2-14.5,3.8-21.8,5.5"/>
</g>
<g id="SPLINE_480_">
	<path class="st0" d="M155.1,54.3c0-0.1,0-0.3-0.1-0.4c-0.1-0.2-0.5-0.3-0.9-0.4c-0.4-0.1-0.9-0.1-1.5,0c-0.6,0.1-1.2,0.2-1.8,0.4
		c-0.7,0.2-1.5,0.4-2.3,0.7c-0.8,0.3-1.6,0.5-2.3,0.8"/>
</g>
<g id="SPLINE_479_">
	<path class="st0" d="M103,67.6c-1.1,0.3-2.3,0.5-3.3,0.9c-0.7,0.3-1.4,0.6-2,1c-0.6,0.4-1.1,0.9-1.4,1.5c-0.3,0.5-0.5,1-0.6,1.5
		c-0.1,0.6-0.2,1.2,0,1.7c0.1,0.2,0.1,0.4,0.2,0.6"/>
</g>
<g id="ARC_56_">
	<path class="st0" d="M96.3,508.9c-0.1-0.3-0.1-0.7,0-1"/>
</g>
<g id="ARC_55_">
	<path class="st0" d="M105.7,30c-0.1-0.2-0.1-0.5,0.1-0.7"/>
</g>
<g id="LINE_121_">
	<line class="st0" x1="118.5" y1="14" x2="118.3" y2="14.2"/>
</g>
<g id="ARC_54_">
	<path class="st0" d="M171.4,45.3c-0.1,0.1-0.1,0.2-0.2,0.2"/>
</g>
<g id="SPLINE_478_">
	<path class="st0" d="M232.9,224.3c1.6-1.5,3.2-3,4.9-4.5c1.7-1.4,3.4-2.8,5.2-4.1c1.8-1.3,3.7-2.4,5.6-3.5c1.9-1,3.9-2,6-2.7
		s4.2-1.3,6.3-1.7c1.1-0.2,2.1-0.3,3.2-0.4c1-0.1,2.1-0.1,3.1-0.1c2.1,0,4.1,0.2,5.9,0.6s3.6,1,5.3,1.7c1.6,0.7,3.1,1.6,4.4,2.5
		c1.3,0.9,2.5,2,3.6,3.1c2.1,2.2,3.7,4.6,4.8,7c1.1,2.4,1.7,4.8,1.8,7.1c0.1,1.1,0,2.2-0.1,3.3c-0.1,1-0.4,2-0.7,2.8"/>
</g>
<g id="SPLINE_477_">
	<path class="st0" d="M292.2,235.3c-0.1,0.3-0.3,0.7-0.4,1c-0.2,0.3-0.3,0.6-0.5,0.9c-0.2,0.3-0.4,0.6-0.7,0.9
		c-0.3,0.4-0.7,0.7-1.1,0.9c-0.3,0.2-0.7,0.4-1.1,0.5c0,0,0,0,0,0"/>
</g>
<g id="SPLINE_476_">
	<path class="st0" d="M299.2,234.3c0.4-0.2,0.8-0.3,1.2-0.6c0.7-0.4,1.3-1,1.8-1.6c0.5-0.6,1-1.3,1.4-2.1c0.4-0.8,0.7-1.6,0.9-2.4
		c0.2-0.9,0.4-1.8,0.4-2.8c0-1-0.1-2.1-0.4-3.1c-0.2-0.6-0.4-1.2-0.6-1.9c-0.3-0.7-0.6-1.4-1-2.1c-0.4-0.8-0.9-1.6-1.5-2.4
		c-0.9-1.3-2-2.6-3.1-3.8c-1.2-1.3-2.6-2.5-4-3.8c-0.9-0.8-1.9-1.5-2.9-2.3c-1-0.7-2-1.4-3-2c-0.9-0.6-1.9-1.2-2.9-1.7
		c-1.3-0.7-2.7-1.4-4.2-2.1c-1.3-0.6-2.6-1.2-4-1.7c-1.3-0.5-2.6-0.9-4-1.4c-1.4-0.4-2.8-0.9-4.3-1.3c-1.5-0.4-2.9-0.8-4.4-1.1
		c-1.6-0.4-3.1-0.7-4.7-1.1c-1.7-0.4-3.4-0.7-5-1.1c-1.8-0.4-3.6-0.7-5.3-1.1c-1.9-0.4-3.7-0.8-5.5-1.2c-2-0.4-3.9-0.9-5.7-1.4
		c-1.9-0.5-3.7-1-5.5-1.6c-1.9-0.6-3.8-1.2-5.5-1.9c-1.1-0.4-2.1-0.8-3.1-1.3c-1.1-0.5-2.1-1-3.1-1.5c-1.1-0.6-2.1-1.2-3.1-1.8"/>
</g>
<g id="SPLINE_475_">
	<path class="st0" d="M107,422.4c5.8-27.5,11.7-53.3,18.3-77.1c3.3-11.9,6.7-23.3,10.3-34.2s7.5-21.3,11.6-31.2
		c4.1-9.9,8.5-19.3,13.2-28.2c4.7-8.9,9.8-17.2,15.4-25.3c5.6-8.1,11.8-15.8,18.8-23.4s14.7-15.2,23.4-22.8"/>
</g>
<g id="SPLINE_474_">
	<path class="st0" d="M107,422.4c0.6,0.2,1.2,0.4,1.8,0.7c0.6,0.3,1.3,0.7,1.9,1.2c0.6,0.5,1.3,1,1.9,1.6c0.6,0.6,1.3,1.3,1.9,2
		c0.8,1,1.6,2,2.4,3.1c0.8,1.2,1.5,2.4,2.2,3.6c0.7,1.3,1.3,2.6,1.9,3.9c0.6,1.4,1.1,2.8,1.5,4.2c0.4,1.3,0.6,2.5,0.8,3.8
		c0.2,1.3,0.3,2.7,0.2,4c0,1.1-0.1,2.2-0.4,3.2c-0.2,1.1-0.5,2.2-0.9,3.2c-0.4,1-0.9,2-1.4,2.9c-0.6,1-1.2,1.9-1.9,2.8
		c-1,1.3-2.2,2.6-3.4,3.7c-1.2,1.2-2.6,2.2-3.9,3.2c-1.1,0.8-2.2,1.5-3.4,2.1c-1.2,0.7-2.3,1.2-3.5,1.7c-0.9,0.4-1.7,0.7-2.6,0.9
		c-0.9,0.3-1.7,0.5-2.5,0.6c-1.1,0.1-2,0-3-0.1"/>
</g>
<g id="SPLINE_473_">
	<path class="st0" d="M96.5,475.1c-1.1,5.7-2.2,11.5-3.3,17.2"/>
</g>
<g id="SPLINE_472_">
	<path class="st0" d="M177.5,429.2c0.1,0,0.2-0.1,0.2-0.2c0.1-0.1,0.1-0.2,0.1-0.3s-0.1-0.3-0.1-0.4s-0.2-0.3-0.3-0.5
		s-0.3-0.4-0.5-0.6c-0.2-0.2-0.4-0.4-0.7-0.7c-0.5-0.5-1.1-1-1.8-1.5c-0.4-0.3-0.7-0.6-1.1-0.8s-0.8-0.6-1.3-0.9
		c-0.7-0.4-1.4-0.9-2.1-1.4"/>
</g>
<g id="SPLINE_471_">
	<path class="st0" d="M169.8,421.9c-1.3-0.8-2.7-1.6-4.2-2.6c-1.5-0.9-3.1-2-4.6-3.2c-1.6-1.2-3.2-2.6-4.7-4.1
		c-1.5-1.6-2.9-3.3-4.2-5.3c-1.2-1.9-2.3-4.1-3-6.3c-0.8-2.2-1.3-4.6-1.4-6.9c-0.1-1.2-0.1-2.4,0-3.6s0.2-2.4,0.4-3.5
		s0.5-2.3,0.8-3.5c0.3-1.1,0.7-2.3,1-3.4"/>
</g>
<g id="SPLINE_470_">
	<path class="st0" d="M149.9,379.5c1.1-3.5,2.2-7.1,3.3-10.6c1.1-3.5,2.2-7.1,3.4-10.6c1.2-3.5,2.3-7.1,3.6-10.6
		c1.2-3.5,2.5-7,3.8-10.5c2.6-7,5.4-13.8,8.5-20.6c3-6.8,6.2-13.5,9.6-20.1s7-13.1,10.8-19.5c3.8-6.4,7.8-12.7,11.9-18.8
		c4.2-6.1,8.5-12.1,13.2-17.8c4.7-5.7,9.7-11.1,14.9-16.1"/>
</g>
<g id="SPLINE_469_">
	<path class="st0" d="M138.3,460.3c0.6-2.7,1.2-5.3,1.7-8"/>
</g>
<g id="SPLINE_468_">
	<path class="st0" d="M140,452.3c0-0.1,0.1-0.2,0.1-0.4c0-0.1,0.1-0.3,0.1-0.4c0-0.1,0.1-0.3,0.1-0.4c0.1-0.1,0.1-0.3,0.2-0.4
		c0.1-0.1,0.1-0.2,0.2-0.4c0.1-0.1,0.1-0.2,0.2-0.4c0.1-0.1,0.2-0.2,0.2-0.4c0.2-0.4,0.5-0.7,0.8-1c0.4-0.4,0.9-0.8,1.3-1.1
		c0.5-0.4,1.1-0.6,1.7-0.9c0.4-0.2,0.8-0.3,1.2-0.4c0.5-0.1,1-0.2,1.6-0.2c0.5,0,0.9,0.1,1.4,0.2c0.4,0.1,0.9,0.2,1.3,0.4
		c0.4,0.2,0.8,0.4,1.1,0.7c0.3,0.2,0.5,0.5,0.8,0.8c0.3,0.3,0.5,0.7,0.7,1.1c0.1,0.3,0.2,0.5,0.3,0.8c0.1,0.5,0.2,1,0.3,1.5
		c0,0.2,0,0.5,0,0.8c0,0.2,0,0.5,0,0.7c0,0.2-0.1,0.4-0.1,0.6c0,0.2-0.1,0.4-0.1,0.6"/>
</g>
<g id="SPLINE_467_">
	<path class="st0" d="M153.3,454.4c-0.6,2.7-1.3,5.3-1.9,8"/>
</g>
<g id="SPLINE_466_">
	<path class="st0" d="M151.4,462.4c0,0.1-0.1,0.3-0.1,0.4c0,0.1-0.1,0.3-0.1,0.4c0,0.1-0.1,0.3-0.1,0.4c-0.1,0.1-0.1,0.3-0.2,0.4
		c-0.1,0.1-0.1,0.3-0.2,0.4c-0.1,0.1-0.1,0.2-0.2,0.4c-0.1,0.1-0.1,0.2-0.2,0.4c-0.2,0.4-0.5,0.7-0.8,1.1c-0.3,0.4-0.7,0.8-1.1,1.1
		c-0.5,0.4-1,0.7-1.6,1c-0.3,0.1-0.6,0.2-0.9,0.3c-0.5,0.1-1,0.2-1.4,0.2c-0.5,0-0.9-0.1-1.3-0.2c-0.4-0.1-0.9-0.3-1.3-0.5
		c-0.4-0.2-0.9-0.5-1.2-0.8c-0.4-0.3-0.7-0.7-1.1-1.1c-0.2-0.3-0.4-0.6-0.6-0.9c-0.2-0.4-0.4-0.8-0.5-1.2c-0.1-0.4-0.2-0.7-0.2-1.1
		c0-0.3-0.1-0.6-0.1-0.9c0-0.3,0-0.6,0-0.8c0-0.3,0.1-0.5,0.1-0.8"/>
</g>
<g id="LINE_120_">
	<line class="st0" x1="106.6" y1="422.4" x2="107" y2="422.4"/>
</g>
<g id="SPLINE_465_">
	<path class="st0" d="M217.7,180.1c0.1,0.1,0.2,0.1,0.3,0.2"/>
</g>
<g id="SPLINE_464_">
	<path class="st0" d="M217.7,180.1c-0.6-0.4-1.2-0.8-1.8-1.3c-0.5-0.4-1-0.8-1.4-1.2c0,0,0,0,0,0"/>
</g>
<g id="SPLINE_463_">
	<path class="st0" d="M177.4,428c0.2,0,0.3,0,0.4,0c0.4,0,0.5-0.2,0.4-0.5c0-0.3-0.2-0.6-0.5-1c-0.3-0.4-0.8-0.9-1.4-1.5
		c-0.7-0.6-1.5-1.3-2.4-2c-1-0.7-2.3-1.6-3.5-2.4"/>
</g>
<g id="SPLINE_462_">
	<path class="st0" d="M291,236c-0.1,0.3-0.3,0.7-0.4,1c-0.2,0.3-0.3,0.6-0.5,0.9c-0.2,0.3-0.5,0.6-0.7,0.9c-0.3,0.4-0.7,0.7-1.1,0.9
		c-0.1,0.1-0.2,0.1-0.4,0.2"/>
</g>
<g id="SPLINE_461_">
	<path class="st0" d="M291,236c0.1-0.1,0.1-0.3,0.2-0.4c0.1-0.2,0.1-0.3,0.2-0.5c0.1-0.2,0.1-0.4,0.1-0.6c0.1-0.3,0.2-0.7,0.2-1
		c0-0.2,0.1-0.5,0.1-0.7c0.1-0.7,0.1-1.4,0.1-2.1c0-0.6-0.1-1.3-0.2-1.9c-0.2-1.4-0.6-2.9-1.1-4.4c-0.5-1.4-1.3-2.9-2.2-4.3
		c-0.8-1.3-1.8-2.5-2.9-3.7c-1-1.1-2.2-2.1-3.6-3.1c-1.1-0.8-2.3-1.5-3.6-2.1c-1.2-0.6-2.6-1.1-4-1.5c-1.4-0.4-3-0.7-4.5-0.8
		c-1.5-0.1-3.1-0.2-4.7-0.1c-1.6,0.1-3.2,0.3-4.7,0.6c-1.6,0.3-3.2,0.8-4.8,1.3c-1,0.3-1.9,0.7-2.9,1.1c-1,0.4-1.9,0.9-2.9,1.4
		c-1,0.5-2,1.1-2.9,1.7c-1,0.6-2,1.3-3,1.9c-0.8,0.6-1.7,1.2-2.5,1.8c-0.9,0.7-1.7,1.4-2.6,2.1c-0.8,0.7-1.5,1.3-2.3,2
		c-0.9,0.8-1.8,1.7-2.8,2.6"/>
</g>
<g id="SPLINE_460_">
	<path class="st0" d="M233.9,225.3c-0.5,0.4-0.9,0.9-1.4,1.3c-0.5,0.5-1,0.9-1.4,1.4c-0.5,0.5-1,1-1.5,1.5c-0.5,0.5-1,1-1.5,1.6
		c-0.5,0.5-1,1.1-1.5,1.6c-0.5,0.6-1,1.1-1.6,1.7c-0.5,0.6-1.1,1.2-1.6,1.8c-0.5,0.6-1.1,1.2-1.6,1.8c-1,1.1-1.9,2.2-2.8,3.4
		c-1.1,1.3-2.2,2.7-3.3,4.1c-1.1,1.4-2.1,2.7-3.2,4.1c-2,2.7-3.9,5.4-5.8,8.2c-3.2,4.7-6.3,9.5-9.3,14.3c-2,3.2-3.9,6.5-5.8,9.8
		c-2.2,3.8-4.3,7.6-6.4,11.5c-2.4,4.5-4.6,9-6.8,13.5c-4.3,9-8.3,18.3-11.9,27.6c-1.8,4.6-3.5,9.3-5.1,14c-1,2.9-2,5.9-3,8.8
		c-0.5,1.5-1,3-1.5,4.5c-0.4,1.3-0.8,2.6-1.2,3.9c-0.8,2.6-1.6,5.1-2.4,7.7c-0.7,2.2-1.4,4.4-2.1,6.5"/>
</g>
<g id="SPLINE_459_">
	<path class="st0" d="M151.2,379.9c-0.2,0.6-0.4,1.2-0.6,1.8c-0.2,0.6-0.3,1.1-0.5,1.7c-0.3,1-0.5,1.9-0.7,2.9
		c-0.3,1.4-0.4,2.8-0.5,4.3c0,1.1,0,2.3,0.1,3.4c0.1,1.1,0.3,2.3,0.6,3.4c0.4,1.8,1,3.5,1.7,5.1c0.6,1.3,1.3,2.5,2,3.7
		c0.8,1.2,1.6,2.3,2.5,3.4c1.1,1.2,2.2,2.4,3.3,3.4c1.2,1.1,2.5,2,3.7,2.9c0.6,0.4,1.2,0.9,1.8,1.3c0.7,0.5,1.4,0.9,2.1,1.4
		c0.2,0.1,0.4,0.3,0.7,0.4c0.4,0.2,0.8,0.5,1.1,0.7c0.3,0.2,0.6,0.4,1,0.6c0.2,0.1,0.5,0.3,0.7,0.4"/>
</g>
<g id="SPLINE_458_">
	<path class="st0" d="M99.1,504.4c0.1,0,0.2,0.1,0.3,0.1"/>
</g>
<g id="SPLINE_457_">
	<path class="st0" d="M166.6,529.2c-0.1,0.2-0.2,0.3-0.4,0.5c-0.3,0.3-0.6,0.6-0.9,0.8c-0.4,0.3-0.8,0.6-1.2,0.8
		c-0.5,0.3-1,0.5-1.5,0.7c-0.5,0.2-1,0.4-1.5,0.5c-0.4,0.1-0.9,0.2-1.4,0.3c-0.5,0.1-1.1,0.2-1.6,0.3c-0.5,0.1-1,0.1-1.4,0.1
		c-0.5,0-1,0-1.5,0c-0.9,0-1.8,0-2.7-0.1c-0.9-0.1-1.7-0.2-2.6-0.3c-0.9-0.1-1.7-0.3-2.6-0.5s-1.8-0.4-2.7-0.7c-1-0.3-2-0.6-3-1
		c-1-0.4-2-0.8-3-1.2c-0.9-0.4-1.8-0.7-2.6-1.2c-0.9-0.4-1.8-0.8-2.7-1.3c-1-0.5-2-1-2.9-1.5c-1.3-0.7-2.6-1.4-3.9-2.2
		c-1.3-0.8-2.6-1.5-3.9-2.3c-0.8-0.5-1.6-1-2.4-1.5c-0.7-0.4-1.3-0.8-1.9-1.2c-0.6-0.4-1.2-0.7-1.7-1c-0.9-0.5-1.8-1.1-2.7-1.6
		c-0.6-0.3-1.1-0.6-1.6-1c-0.5-0.3-1.1-0.6-1.6-0.9c-0.5-0.3-1-0.6-1.5-0.8c-0.5-0.3-1-0.5-1.5-0.8c-0.5-0.2-0.9-0.5-1.4-0.7
		c-0.5-0.2-1-0.4-1.5-0.6c-0.4-0.2-0.8-0.3-1.2-0.5c-0.3-0.1-0.6-0.2-0.9-0.3c-0.3-0.1-0.6-0.2-0.9-0.3c-0.4-0.1-0.7-0.2-1.1-0.4
		c-0.4-0.1-0.8-0.3-1.1-0.4c-0.3-0.1-0.7-0.3-1-0.4c-0.3-0.1-0.6-0.2-0.9-0.4c-0.3-0.1-0.6-0.2-0.8-0.3"/>
</g>
<g id="ARC_53_">
	<path class="st0" d="M233.9,225.3c-0.5-0.2-0.8-0.5-1-1"/>
</g>
<g id="ARC_52_">
	<path class="st0" d="M149.9,379.5c0.5,0.1,0.9,0.2,1.4,0.4"/>
</g>
<g id="SPLINE_456_">
	<path class="st0" d="M99.3,504.5c0.1-0.2,0.2-0.5,0.3-0.7c0.1-0.2,0.3-0.3,0.5-0.4"/>
</g>
<g id="SPLINE_455_">
	<path class="st0" d="M161.3,532.5c-0.5,0.2-1.1,0.4-1.7,0.6c-1.5,0.4-3.3,0.5-5.3,0.4c-1.9-0.1-4-0.3-6.1-0.7s-4.4-1.1-6.7-1.9
		c-2.3-0.8-4.7-1.8-7-2.9c-2.4-1.1-4.8-2.4-7.1-3.7c-2.4-1.3-4.7-2.7-7.1-4.1c-2.3-1.4-4.6-2.7-6.8-4c-1.1-0.6-2.2-1.2-3.2-1.8
		c-1-0.6-2.1-1.1-3.1-1.6c-1.3-0.6-2.6-1.2-3.9-1.6c-1.3-0.4-2.5-0.8-3.6-1.1c-1.1-0.4-2.2-0.8-3.2-1.2"/>
</g>
<g id="SPLINE_454_">
	<path class="st0" d="M96.4,508c0,0.2-0.1,0.3-0.1,0.5c0,0.2,0,0.3,0.1,0.5"/>
</g>
<g id="SPLINE_453_">
	<path class="st0" d="M96.3,508.9c0.1,0,0.1,0.1,0.2,0.1"/>
</g>
<g id="SPLINE_452_">
	<path class="st0" d="M273.2,164.3c0.5,0.3,1,0.7,1.6,0.9c0.5,0.2,1.2,0.4,1.8,0.6c0.7,0.1,1.4,0.2,2.2,0.3c0.7,0,1.5,0,2.3-0.1
		c0.8-0.1,1.6-0.2,2.4-0.4c0.8-0.2,1.6-0.4,2.5-0.7c0.8-0.3,1.6-0.6,2.4-1c0.8-0.4,1.5-0.8,2.2-1.2c1.3-0.8,2.4-1.8,3.2-2.7
		c0.5-0.6,0.9-1.1,1.2-1.7c0.4-0.6,0.6-1.2,0.7-1.8c0.2-0.9,0-1.7-0.1-2.5"/>
</g>
<g id="SPLINE_451_">
	<path class="st0" d="M271.6,162c0,0,0,0.1,0,0.1c0.1,0.2,0.1,0.4,0.2,0.5c0.1,0.2,0.2,0.3,0.3,0.5c0.3,0.4,0.7,0.8,1.1,1.1"/>
</g>
<g id="SPLINE_450_">
	<path class="st0" d="M243.4,167.6C243.4,167.6,243.4,167.6,243.4,167.6c0,0.4,0.3,0.6,0.5,0.9c0.2,0.2,0.5,0.5,0.8,0.7
		c0.3,0.2,0.7,0.4,1.1,0.5c0.4,0.1,0.9,0.2,1.3,0.3c0.5,0,1,0.1,1.5,0c0.5,0,1.1-0.1,1.6-0.2c0.6-0.1,1.2-0.3,1.7-0.5
		c0.6-0.2,1.2-0.4,1.8-0.7c0.5-0.2,1-0.5,1.5-0.8c0.5-0.3,1-0.7,1.5-1.1c0,0,0.1,0,0.1-0.1c0,0,0.1-0.1,0.1-0.1
		c0.2-0.1,0.3-0.3,0.5-0.4c0.5-0.5,0.9-1.1,1.3-1.6"/>
</g>
<g id="SPLINE_449_">
	<path class="st0" d="M258.6,164.4c0.3-0.7,0.7-1.5,0.7-2.1c0-0.6-0.2-1.1-0.4-1.6"/>
</g>
<g id="SPLINE_448_">
	<path class="st0" d="M303.6,146.4c1,0.6,1.9,1.1,3.2,1.5c0.7,0.2,1.5,0.3,2.3,0.4c0.7,0.1,1.4,0.1,2.2,0.1c0.4,0,0.9,0,1.3-0.1
		c0.4,0,0.9-0.1,1.3-0.2c0.8-0.1,1.7-0.3,2.5-0.5c0.8-0.2,1.6-0.5,2.3-0.7c0.7-0.3,1.4-0.6,2.1-0.9c0.7-0.4,1.3-0.7,1.9-1.1
		c0.6-0.4,1.2-0.9,1.7-1.3c0.5-0.5,0.9-0.9,1.3-1.4c0.4-0.5,0.7-1,0.9-1.5c0.2-0.5,0.3-0.9,0.4-1.4c0.1-0.5,0.1-1-0.1-1.5
		c0-0.1,0-0.1-0.1-0.2"/>
</g>
<g id="SPLINE_447_">
	<path class="st0" d="M302,144.2c0,0,0,0.1,0,0.1c0.1,0.2,0.2,0.5,0.3,0.7c0.3,0.5,0.8,0.9,1.2,1.4"/>
</g>
<g id="SPLINE_446_">
	<path class="st0" d="M308.3,114.1c-0.2-0.1-0.4-0.1-0.5-0.2c-0.2,0-0.4-0.1-0.6-0.1c-0.2,0-0.4-0.1-0.6-0.1c-0.2,0-0.4-0.1-0.6-0.1
		s-0.4-0.1-0.6-0.1c-0.2,0-0.4-0.1-0.6-0.1c-0.2,0-0.4,0-0.6-0.1c-0.2,0-0.4,0-0.6-0.1c-0.2,0-0.4,0-0.7,0c-0.9,0-1.9,0-2.9,0
		c-1,0-2,0.1-3.1,0.2c-1.2,0.1-2.4,0.3-3.6,0.6c-1.2,0.2-2.5,0.5-3.7,0.9c-0.8,0.2-1.5,0.4-2.3,0.7c-0.7,0.2-1.5,0.5-2.2,0.8
		c-0.4,0.1-0.7,0.3-1.1,0.4c-0.3,0.1-0.7,0.3-1,0.4c-0.3,0.1-0.6,0.3-1,0.4c-0.3,0.1-0.6,0.3-0.9,0.4"/>
</g>
<g id="SPLINE_445_">
	<path class="st0" d="M273.8,149.6c1.1-0.6,2.2-1.3,3.2-1.9c1.1-0.6,2.2-1.3,3.2-1.9c1.1-0.6,2.2-1.3,3.3-1.9
		c1.1-0.6,2.2-1.2,3.3-1.9c1.1-0.6,2.2-1.2,3.3-1.8c1.1-0.6,2.2-1.2,3.3-1.8c1.1-0.6,2.2-1.2,3.3-1.8c1.1-0.6,2.2-1.2,3.3-1.8
		c1.1-0.6,2.2-1.2,3.3-1.7"/>
</g>
<g id="SPLINE_444_">
	<path class="st0" d="M242,151.1c0.1,0.1,0.1,0.2,0.2,0.4c0.1,0.1,0.2,0.2,0.3,0.3c0.1,0.1,0.2,0.2,0.3,0.3c0.1,0.1,0.2,0.2,0.3,0.3
		c0.1,0.1,0.2,0.2,0.3,0.3c0.1,0.1,0.2,0.2,0.4,0.3c0.4,0.3,0.8,0.5,1.2,0.8c0.4,0.2,0.9,0.4,1.4,0.6c0.5,0.2,1,0.3,1.6,0.5
		c0.6,0.1,1.1,0.3,1.8,0.3c1.2,0.2,2.6,0.3,4,0.2c1.1,0,2.3-0.1,3.5-0.3c1.2-0.1,2.4-0.4,3.7-0.6c1.4-0.3,2.9-0.7,4.3-1.2
		c0.6-0.2,1.2-0.4,1.8-0.6c0.6-0.2,1.2-0.5,1.8-0.7c0.4-0.2,0.8-0.3,1.2-0.5c0.4-0.2,0.8-0.4,1.2-0.5c0.3-0.2,0.7-0.3,1-0.5
		c0.3-0.2,0.6-0.3,0.9-0.5c0.3-0.2,0.6-0.3,0.8-0.5"/>
</g>
<g id="SPLINE_443_">
	<path class="st0" d="M251.6,134.6c-0.2,0.1-0.3,0.2-0.5,0.3c-0.2,0.1-0.3,0.2-0.5,0.3c-0.2,0.1-0.3,0.2-0.5,0.3
		c-0.2,0.1-0.3,0.2-0.5,0.3c-0.2,0.1-0.3,0.2-0.5,0.4c-0.2,0.1-0.3,0.3-0.5,0.4c-0.5,0.4-1.1,0.9-1.6,1.3c-0.5,0.4-1,0.9-1.4,1.3
		c-0.4,0.4-0.7,0.8-1.1,1.1c-0.3,0.4-0.6,0.8-0.9,1.2c-0.3,0.4-0.6,0.9-0.9,1.3c-0.3,0.4-0.5,0.9-0.7,1.3c-0.3,0.6-0.5,1.1-0.6,1.6
		c-0.2,0.5-0.3,1.1-0.3,1.6c0,0.3,0,0.5,0,0.8c0,0.3,0,0.5,0.1,0.8c0,0.3,0.1,0.5,0.2,0.7c0.1,0.2,0.1,0.5,0.2,0.7
		c0.1,0.2,0.2,0.5,0.3,0.7"/>
</g>
<g id="SPLINE_442_">
	<path class="st0" d="M281.1,118.1c-1.1,0.6-2.2,1.1-3.3,1.7c-1.1,0.6-2.2,1.2-3.3,1.7c-1.1,0.6-2.2,1.2-3.3,1.8
		c-1.1,0.6-2.2,1.2-3.3,1.8c-1.1,0.6-2.2,1.2-3.3,1.8c-1.1,0.6-2.2,1.2-3.3,1.9c-1.1,0.6-2.2,1.3-3.3,1.9c-1.1,0.6-2.2,1.3-3.3,1.9
		c-1.1,0.6-2.2,1.3-3.3,1.9"/>
</g>
<g id="SPLINE_441_">
	<path class="st0" d="M253.9,117.4c0.4,0.2,0.9,0.3,1.4,0.5c0.4,0.1,0.8,0.1,1.3,0.1c0.6,0,1.1,0,1.8-0.1c0.6-0.1,1.2-0.1,1.8-0.3
		c1.2-0.2,2.4-0.6,3.6-1c1.1-0.4,2.2-0.9,3.3-1.4c1-0.5,1.9-1.1,2.7-1.7c0.8-0.6,1.4-1.3,1.8-1.9c0.2-0.3,0.4-0.6,0.5-0.9
		c0.1-0.3,0.2-0.7,0.1-0.9c0-0.1-0.1-0.2-0.1-0.3"/>
</g>
<g id="SPLINE_440_">
	<path class="st0" d="M252.8,116.2c0,0.1,0.1,0.2,0.1,0.3c0.1,0.2,0.2,0.3,0.3,0.4c0.2,0.2,0.4,0.3,0.6,0.4"/>
</g>
<g id="SPLINE_439_">
	<path class="st0" d="M286.8,89.9c0.5-0.1,1-0.2,1.5-0.3c0.5-0.1,1-0.2,1.5-0.3c0.5-0.1,1-0.2,1.5-0.3c0.5-0.1,1-0.2,1.5-0.3
		c0.5-0.1,1-0.2,1.5-0.3c0.5-0.1,1-0.2,1.5-0.3c0.5-0.1,1-0.2,1.5-0.3c1.8-0.3,3.5-0.6,5.3-0.8c1.7-0.2,3.5-0.5,5.2-0.6
		c1.8-0.2,3.5-0.3,5.2-0.4c1.7-0.1,3.4-0.2,5.1-0.2c3.4-0.1,6.7,0,9.8,0.1c3.2,0.2,6.2,0.5,9.1,1c1.4,0.2,2.8,0.5,4.2,0.8
		c1.4,0.3,2.7,0.6,3.9,1c1.2,0.4,2.5,0.7,3.6,1.1c1.2,0.4,2.3,0.9,3.4,1.3c0.5,0.2,1,0.5,1.5,0.7c0.5,0.2,1,0.5,1.5,0.8
		c0.5,0.3,0.9,0.5,1.4,0.8c0.5,0.3,0.9,0.6,1.3,0.8"/>
</g>
<g id="LINE_119_">
	<line class="st0" x1="286.7" y1="90" x2="286.8" y2="89.9"/>
</g>
<g id="SPLINE_438_">
	<path class="st0" d="M286.7,90c-2.9,0.7-5.8,1.4-8.6,2.3c-0.7,0.2-1.3,0.4-2,0.6"/>
</g>
<g id="SPLINE_437_">
	<path class="st0" d="M241.5,107.8c-1.8,1.1-3.7,2.1-5.5,3.2c-2.5,1.6-4.8,3.2-7.1,4.9c-2.2,1.7-4.3,3.3-6.3,5.1
		c-1.9,1.7-3.7,3.4-5.4,5.2c-1.6,1.7-3.1,3.4-4.4,5.1c-1.3,1.7-2.5,3.3-3.4,5c-1,1.6-1.7,3.2-2.5,4.8"/>
</g>
<g id="SPLINE_436_">
	<path class="st0" d="M206.9,141c-0.1,0.2-0.2,0.5-0.3,0.7"/>
</g>
<g id="SPLINE_435_">
	<path class="st0" d="M215.3,169.8c-0.2-0.2-0.5-0.3-0.7-0.5c-0.2-0.2-0.5-0.3-0.7-0.5c-0.2-0.2-0.5-0.3-0.7-0.5
		c-0.2-0.2-0.4-0.4-0.7-0.5c-0.2-0.2-0.4-0.4-0.6-0.5c-0.2-0.2-0.4-0.4-0.6-0.6c-0.2-0.2-0.4-0.4-0.6-0.6c-0.2-0.2-0.4-0.4-0.6-0.6
		c-0.2-0.2-0.4-0.4-0.5-0.6c-0.2-0.2-0.3-0.4-0.5-0.6c-0.8-1-1.6-2.1-2.2-3.2c-0.6-1.1-1.1-2.3-1.5-3.5c-0.4-1.2-0.6-2.4-0.8-3.7
		c-0.1-1.3-0.1-2.6,0-3.9c0-0.5,0.1-1.1,0.2-1.6c0.1-0.5,0.2-1.1,0.3-1.6c0.1-0.5,0.2-1.1,0.4-1.6c0.2-0.5,0.3-1.1,0.5-1.6
		c0.2-0.6,0.4-1.1,0.6-1.7"/>
</g>
<g id="SPLINE_434_">
	<path class="st0" d="M215.3,169.8c10.8,7.1,28.6,9.9,49.6,7.8s43.4-8.9,62.3-18.9c18.9-10,32.7-22.5,38.5-34.6
		c5.7-12.1,2.9-22.9-7.8-30"/>
</g>
<g id="SPLINE_433_">
	<path class="st0" d="M213.7,175.6c-1.3-0.9-2.6-1.9-3.8-2.9s-2.2-2.1-3-3.2c-0.9-1.1-1.6-2.3-2.3-3.6c-0.7-1.2-1.2-2.5-1.5-3.8
		c0-0.1,0-0.2-0.1-0.4"/>
</g>
<g id="SPLINE_432_">
	<path class="st0" d="M371.8,108.4c0.3,0.7,0.6,1.4,0.8,2c0.6,1.7,0.7,3.6,0.7,5.5c-0.1,1.9-0.3,3.9-0.8,5.9c-0.5,2-1.3,4.1-2.2,6.1
		c-1,2.1-2.2,4.2-3.7,6.3c-1.4,2.1-3.1,4.2-5,6.3c-1.9,2.1-4,4.2-6.3,6.2c-2.3,2.1-4.8,4.1-7.4,6c-2.6,2-5.5,3.9-8.4,5.8
		c-3,1.9-6.1,3.7-9.3,5.4s-6.6,3.4-10,4.9c-3.5,1.5-7,3-10.6,4.3c-3.6,1.3-7.3,2.6-11,3.7c-3.7,1.1-7.4,2.1-11.1,3
		s-7.5,1.6-11.1,2.3s-7.3,1.1-10.9,1.5c-3.6,0.4-7.1,0.6-10.6,0.7s-6.8,0-10-0.2c-3.2-0.2-6.3-0.5-9.3-1c-2.9-0.5-5.7-1.1-8.4-1.8
		c-2.6-0.7-5.1-1.6-7.3-2.6c-2.2-1-4.2-2.1-6.2-3.3"/>
</g>
<g id="LINE_56_">
	<line class="st0" x1="213.8" y1="175.8" x2="213.7" y2="175.6"/>
</g>
<g id="SPLINE_431_">
	<path class="st0" d="M213.8,175.8c2,1.1,3.9,2.3,6.2,3.3c2.2,1,4.7,1.8,7.3,2.6c2.6,0.7,5.4,1.3,8.4,1.8c2.9,0.5,6,0.8,9.3,1
		c3.2,0.2,6.6,0.2,10,0.2c3.4-0.1,7-0.3,10.6-0.7s7.3-0.9,10.9-1.5s7.4-1.4,11.1-2.3s7.5-1.9,11.2-3c3.7-1.1,7.4-2.4,11-3.7
		c3.6-1.3,7.1-2.8,10.6-4.3s6.8-3.2,10-4.9c3.2-1.7,6.4-3.5,9.3-5.4c3-1.9,5.8-3.8,8.4-5.8c2.7-2,5.1-4,7.4-6.1
		c2.3-2.1,4.4-4.1,6.3-6.2s3.6-4.2,5-6.3c1.4-2.1,2.7-4.2,3.7-6.3c1-2.1,1.7-4.1,2.2-6.1c0.5-2,0.7-4,0.8-5.9
		c0.1-1.9-0.1-3.8-0.7-5.5c-0.2-0.7-0.5-1.4-0.8-2"/>
</g>
<g id="SPLINE_430_">
	<path class="st0" d="M203.2,162c0,0.1,0,0.1,0,0.2c0.2,1.8,1.1,3.5,2.1,5.1c1,1.6,2.1,3.2,3.5,4.6s3.2,2.7,4.9,4"/>
</g>
<g id="LWPOLYLINE_14_">
	<polyline class="st0" points="373,112 373.5,114.1 373.7,117.3 373.4,120.7 372.6,124.1 371.4,127.6 369.7,131.1 367.6,134.7 
		365,138.3 362,141.9 358.6,145.5 354.7,149 350.5,152.5 346,155.9 341.1,159.2 336,162.3 330.6,165.3 324.9,168.2 319,170.9 
		313,173.4 306.8,175.7 300.6,177.8 294.2,179.7 287.8,181.3 281.5,182.7 275.1,183.8 268.9,184.7 262.7,185.3 256.7,185.7 
		250.9,185.7 245.2,185.5 239.9,185.1 234.7,184.4 229.9,183.4 225.4,182.1 221.3,180.6 217.6,178.9 214.2,176.9 211.2,174.7 
		208.7,172.3 206.7,169.7 205,167 204.4,165.4 	"/>
</g>
<g id="SPLINE_429_">
	<path class="st0" d="M330.8,211.5c0.2-0.5,0.4-1,0.7-1.5c0.3-0.6,0.6-1.3,0.9-1.9c0.2-0.4,0.4-0.8,0.6-1.1c0.4-0.7,0.7-1.4,1.1-2.1
		c0.6-1,1.2-2,1.9-3.1c0.6-0.9,1.2-1.7,1.8-2.6c0.7-0.9,1.4-1.9,2.1-2.9c0.7-0.9,1.4-1.8,2.1-2.7c1.4-1.7,2.8-3.5,4.3-5.1
		c0.9-1,1.8-2,2.7-3c0.7-0.8,1.5-1.6,2.2-2.3c0.5-0.5,0.9-1,1.3-1.4c0.3-0.3,0.6-0.7,1-1c0.3-0.4,0.7-0.7,1-1.1
		c0.3-0.3,0.5-0.6,0.8-0.9"/>
</g>
<g id="LINE_54_">
	<line class="st0" x1="362.5" y1="166" x2="362.6" y2="165.9"/>
</g>
<g id="LINE_53_">
	<line class="st0" x1="311.6" y1="235.4" x2="311.9" y2="235.4"/>
</g>
<g id="SPLINE_428_">
	<path class="st0" d="M106.9,422.4c0.1,0,0.3,0.1,0.4,0.1c0.1,0,0.3,0.1,0.4,0.1c0.1,0.1,0.3,0.1,0.4,0.2c0.1,0.1,0.3,0.1,0.4,0.2
		c0.1,0.1,0.3,0.1,0.4,0.2c0.1,0.1,0.3,0.2,0.4,0.2c0.1,0.1,0.3,0.2,0.4,0.3c0.1,0.1,0.3,0.2,0.4,0.3c0.1,0.1,0.3,0.2,0.4,0.3
		c0.1,0.1,0.3,0.2,0.4,0.4c0.2,0.1,0.3,0.2,0.5,0.4c0.2,0.1,0.3,0.3,0.5,0.4c0.5,0.4,1,0.9,1.4,1.4c0.5,0.5,1,1.1,1.4,1.7
		c0.5,0.6,1,1.3,1.5,2c0.5,0.7,1,1.5,1.5,2.3c1,1.7,2,3.5,2.8,5.4c0.8,1.8,1.4,3.7,1.9,5.7c0.4,1.7,0.7,3.4,0.7,5.1
		c0.1,1.5,0,3.1-0.3,4.6c-0.3,1.5-0.7,2.9-1.3,4.3c-0.7,1.6-1.6,3-2.6,4.4c-1.2,1.6-2.6,3.1-4,4.5c-1.5,1.4-3.2,2.7-4.8,3.8
		c-0.7,0.5-1.5,1-2.3,1.4c-0.7,0.4-1.5,0.8-2.2,1.2c-0.7,0.3-1.3,0.6-2,0.8c-0.6,0.2-1.2,0.5-1.9,0.6c-0.4,0.1-0.7,0.2-1.1,0.3
		c-0.4,0.1-0.7,0.1-1.1,0.2c-0.3,0.1-0.7,0.1-1,0.1c-0.3,0-0.6,0-0.9,0c-0.3,0-0.6,0-0.9-0.1c-0.3,0-0.5-0.1-0.8-0.2"/>
</g>
<g id="SPLINE_427_">
	<path class="st0" d="M96.2,475.1c-0.7-0.3-1.4-0.5-1.9-0.9c-0.3-0.2-0.5-0.5-0.8-0.7c-0.2-0.3-0.5-0.6-0.6-1
		c-0.1-0.2-0.2-0.5-0.3-0.7c-0.1-0.3-0.2-0.6-0.3-0.8c-0.1-0.3-0.2-0.6-0.2-1c0-0.2-0.1-0.3-0.1-0.5c0-0.2-0.1-0.4-0.1-0.6
		c0-0.2,0-0.5-0.1-0.7c0-0.3,0-0.5,0-0.8c0-0.3,0-0.6,0-0.9c0-0.5,0-1.1,0.1-1.7c0-0.1,0-0.1,0-0.2"/>
</g>
<g id="SPLINE_426_">
	<path class="st0" d="M97.7,432.2c0.1-0.2,0.1-0.4,0.2-0.7c0.2-0.7,0.4-1.4,0.7-2.1c0.2-0.6,0.5-1.3,0.7-1.8
		c0.3-0.6,0.5-1.1,0.8-1.6c0.2-0.4,0.5-0.8,0.8-1.2c0.3-0.4,0.6-0.7,0.9-1c0.3-0.3,0.6-0.5,0.9-0.7c0.6-0.4,1.3-0.7,2-0.8
		c0.4,0,0.8,0,1.2,0.1"/>
</g>
<g id="LINE_52_">
	<line class="st0" x1="106.5" y1="422.4" x2="106.9" y2="422.4"/>
</g>
<g id="SPLINE_425_">
	<path class="st0" d="M97.5,433.7c-0.1,0.4-0.2,0.7-0.3,1.1c-0.1,0.5-0.3,1.1-0.4,1.6c-0.1,0.6-0.3,1.1-0.4,1.7
		c-0.2,0.7-0.3,1.5-0.5,2.2c-0.1,0.7-0.3,1.5-0.4,2.2c0,0.2-0.1,0.4-0.1,0.6"/>
</g>
<g id="SPLINE_424_">
	<path class="st0" d="M94.1,450.5c-0.1,0.8-0.3,1.6-0.4,2.4c-0.1,0.8-0.3,1.7-0.4,2.5c-0.1,0.6-0.2,1.1-0.3,1.7
		c-0.1,0.6-0.2,1.1-0.2,1.7c-0.1,0.6-0.1,1.1-0.2,1.6c-0.1,0.5-0.1,1-0.2,1.5c0,0,0,0.1,0,0.1"/>
</g>
<g id="SPLINE_423_">
	<path class="st0" d="M96.6,473.3c0.1,0,0.2,0.1,0.4,0.1c0.1,0,0.2,0,0.4,0.1c0.1,0,0.3,0,0.4,0c0.1,0,0.3,0,0.4,0
		c0.1,0,0.3,0,0.4,0c0.1,0,0.3,0,0.4,0c0.1,0,0.3,0,0.4,0c0.4,0,0.7-0.1,1.1-0.2c0.4-0.1,0.8-0.2,1.2-0.3c0.7-0.2,1.5-0.5,2.2-0.8
		c0.8-0.3,1.6-0.7,2.4-1.1c1.3-0.7,2.6-1.4,3.8-2.3c0.7-0.5,1.3-0.9,2-1.5c0.6-0.5,1.3-1,1.9-1.6c0.8-0.8,1.6-1.6,2.3-2.4
		c0.7-0.8,1.4-1.7,2-2.6c0.9-1.4,1.7-3,2.3-4.6c0.5-1.6,0.9-3.3,1-5c0.1-1.2,0-2.4-0.1-3.6c-0.1-1.3-0.4-2.5-0.7-3.7
		c-0.4-1.7-1-3.3-1.6-4.9c-0.5-1.3-1.1-2.5-1.8-3.7c-0.4-0.8-0.9-1.5-1.3-2.2c-0.4-0.7-0.9-1.4-1.4-2c-0.7-0.9-1.4-1.8-2.1-2.6
		c-0.7-0.8-1.4-1.4-2.1-2c-0.3-0.2-0.5-0.4-0.8-0.6c-0.3-0.2-0.5-0.4-0.8-0.5c-0.3-0.2-0.5-0.3-0.8-0.4c-0.3-0.1-0.5-0.2-0.8-0.3
		c-0.3-0.1-0.5-0.2-0.7-0.2"/>
</g>
<g id="LINE_51_">
	<line class="st0" x1="107" y1="422.4" x2="106.9" y2="422.4"/>
</g>
<g id="SPLINE_422_">
	<path class="st0" d="M96.8,472.9c0.9,0.2,1.8,0.3,2.9,0.1c1.1-0.1,2.2-0.4,3.4-0.9s2.4-1,3.7-1.7c1.2-0.7,2.5-1.5,3.7-2.4
		c1.2-0.9,2.4-1.9,3.5-2.9c1.1-1.1,2.2-2.2,3.1-3.5c0.9-1.2,1.8-2.6,2.4-4c0.7-1.4,1.1-2.9,1.4-4.5c0.3-1.5,0.3-3.1,0.3-4.7
		s-0.4-3.1-0.7-4.7c-0.8-3.1-2-6-3.5-8.6c-0.7-1.3-1.5-2.6-2.4-3.8c-0.8-1.2-1.7-2.2-2.6-3.2c-0.9-0.9-1.8-1.7-2.7-2.3
		c-0.9-0.6-1.8-1-2.7-1.3"/>
</g>
<g id="SPLINE_421_">
	<path class="st0" d="M96.8,472.9c-0.1,0.1-0.2,0.2-0.2,0.4"/>
</g>
<g id="SPLINE_420_">
	<path class="st0" d="M106.5,424.2c0,0.1,0,0.3,0,0.4"/>
</g>
<g id="SPLINE_419_">
	<path class="st0" d="M116.5,452c0.1-0.5,0.2-1,0.2-1.4c0.1-0.5,0.1-1,0.2-1.4s0.1-1,0.1-1.4c0-0.5,0-0.9,0-1.4c0-0.5,0-0.9-0.1-1.4
		c0-0.5-0.1-0.9-0.1-1.3s-0.1-0.9-0.2-1.3c0-0.2-0.1-0.4-0.1-0.6c0-0.2-0.1-0.4-0.2-0.6s-0.1-0.4-0.2-0.6c-0.1-0.2-0.1-0.4-0.2-0.5
		c-0.1-0.4-0.3-0.7-0.4-1c-0.2-0.3-0.3-0.6-0.5-0.9c-0.2-0.3-0.4-0.6-0.6-0.8s-0.4-0.5-0.6-0.7c-0.2-0.2-0.4-0.4-0.7-0.5
		s-0.5-0.3-0.7-0.4c-0.2-0.1-0.5-0.2-0.8-0.3"/>
</g>
<g id="SPLINE_418_">
	<path class="st0" d="M106.2,464.6c0.4,0.1,0.8,0.1,1.2,0.1c0.5,0,1.1-0.2,1.6-0.5c0.5-0.3,1.1-0.6,1.6-1s1-0.9,1.5-1.5s1-1.2,1.4-2
		c0.4-0.7,0.9-1.5,1.2-2.3s0.7-1.7,1-2.6c0.3-0.9,0.5-1.9,0.7-2.8"/>
</g>
<g id="LINE_50_">
	<line class="st0" x1="105.8" y1="464.6" x2="96.8" y2="472.9"/>
</g>
<g id="LINE_49_">
	<line class="st0" x1="106.5" y1="424.6" x2="111.7" y2="435.4"/>
</g>
<g id="LWPOLYLINE_13_">
	<polyline class="st0" points="169.8,421.9 169.6,421.8 169.5,421.6 169.5,421.3 169.6,421.1 169.8,420.9 170,420.7 170.2,420.6 
		170.4,420.7 	"/>
</g>
<g id="SPLINE_417_">
	<path class="st0" d="M104,463.6c0.1,0.1,0.3,0.3,0.4,0.4c0.4,0.4,1,0.5,1.5,0.7"/>
</g>
<g id="LINE_46_">
	<line class="st0" x1="111.7" y1="435.4" x2="111.3" y2="435.4"/>
</g>
<g id="SPLINE_416_">
	<path class="st0" d="M110.8,435.4c-0.2,0-0.5-0.1-0.7-0.1c-0.4,0-0.8,0.2-1.2,0.3"/>
</g>
<g id="SPLINE_415_">
	<path class="st0" d="M290.5,146.9c-2.8-1.8-9-1.2-13.8,1.4s-6.6,6.2-3.8,8"/>
</g>
<g id="SPLINE_414_">
	<path class="st0" d="M272.9,156.3c1.3,0.9,3.5,1.2,6.1,1s5.4-1.1,7.7-2.3c2.3-1.2,4.1-2.8,4.8-4.3c0.7-1.5,0.4-2.8-1-3.7"/>
</g>
<g id="ARC_51_">
	<path class="st0" d="M153.3,454.4c-1.4-0.2-2.7-0.5-4-1"/>
</g>
<g id="ARC_50_">
	<path class="st0" d="M151.4,462.4c-1.4-0.2-2.7-0.5-4-1"/>
</g>
<g id="SPLINE_413_">
	<path class="st0" d="M147.4,461.3c0.7-2.6,1.3-5.3,2-8"/>
</g>
<g id="SPLINE_412_">
	<path class="st0" d="M321,129.3c-2.8-1.8-9-1.2-13.8,1.4s-6.6,6.2-3.8,8"/>
</g>
<g id="SPLINE_411_">
	<path class="st0" d="M303.4,138.7c1.3,0.9,3.5,1.2,6.1,1s5.4-1.1,7.7-2.3c2.3-1.2,4.1-2.8,4.8-4.3s0.4-2.8-1-3.7"/>
</g>
<g id="ARC_49_">
	<path class="st0" d="M254.4,165.9c0.5,0.4,0.9,0.9,1.1,1.5"/>
</g>
<g id="SPLINE_410_">
	<path class="st0" d="M254.3,158.7c-1-0.1-2.2,0-3.4,0.4c-1.2,0.3-2.4,0.9-3.4,1.5s-1.9,1.5-2.5,2.3c-0.6,0.8-0.9,1.6-0.9,2.4
		c0,0.7,0.3,1.4,0.9,1.9s1.5,0.8,2.5,0.8s2.2-0.1,3.4-0.5s2.4-0.9,3.4-1.6"/>
</g>
<g id="SPLINE_409_">
	<path class="st0" d="M258.6,164.4c-0.7,1.1-1.8,2.1-3.1,3"/>
</g>
<g id="SPLINE_408_">
	<path class="st0" d="M254.4,165.9c1-0.7,1.8-1.4,2.4-2.2c0.6-0.8,0.9-1.6,0.9-2.3c0-0.7-0.3-1.4-0.9-1.8c-0.6-0.5-1.4-0.8-2.4-0.8"
		/>
</g>
<g id="SPLINE_407_">
	<path class="st0" d="M273.8,149.6c-0.3-0.2-0.5-0.3-0.7-0.4c-0.2-0.1-0.4-0.1-0.5,0"/>
</g>
<g id="SPLINE_406_">
	<path class="st0" d="M272.6,149.2c-0.1,0.1-0.2,0.1-0.3,0.2c-0.1,0.1-0.2,0.1-0.3,0.2c-0.1,0.1-0.3,0.1-0.4,0.2
		c-0.2,0.1-0.4,0.2-0.6,0.3c-0.2,0.1-0.5,0.2-0.7,0.3c-0.7,0.3-1.4,0.6-2.1,0.9c-1,0.4-2.1,0.8-3.2,1.2c-1.3,0.4-2.5,0.8-3.8,1
		c-1,0.2-1.9,0.4-2.9,0.5c-1.2,0.2-2.3,0.3-3.4,0.3c-1.1,0-2.2,0-3.2-0.2c-1.2-0.2-2.3-0.4-3.2-0.8c-0.3-0.1-0.6-0.2-0.9-0.4
		c-0.3-0.1-0.5-0.3-0.8-0.4c-0.2-0.1-0.5-0.3-0.7-0.5c-0.2-0.2-0.4-0.3-0.6-0.5c-0.2-0.2-0.4-0.4-0.5-0.6c-0.2-0.2-0.3-0.4-0.4-0.6"
		/>
</g>
<g id="ARC_48_">
	<path class="st0" d="M242,151.1c0.8-0.4,1.7-0.6,2.6-0.6"/>
</g>
<g id="SPLINE_405_">
	<path class="st0" d="M253.4,136.3c0.5,0.6,0.9,1.2,1.4,1.7c0.5,0.5,0.9,1,1.4,1.5c0.9,0.9,1.8,1.7,2.7,2.4c0.9,0.7,1.7,1.4,2.6,2
		c0.8,0.6,1.7,1.2,2.5,1.7c0.8,0.6,1.6,1.1,2.4,1.6c0.8,0.5,1.6,1,2.4,1.3c0.8,0.4,1.5,0.7,2.2,0.8c0.7,0.1,1.3,0.1,1.7-0.1"/>
</g>
<g id="SPLINE_404_">
	<path class="st0" d="M253.4,136.3c-0.4,0.2-0.8,0.5-1.2,0.8c-0.4,0.3-0.8,0.5-1.2,0.8c-0.8,0.6-1.6,1.1-2.3,1.7
		c-1.4,1.2-2.6,2.5-3.4,3.8c-0.8,1.3-1.3,2.6-1.4,3.8s0.1,2.3,0.7,3.3"/>
</g>
<g id="LINE_41_">
	<line class="st0" x1="302.1" y1="132.7" x2="302" y2="132.7"/>
</g>
<g id="SPLINE_403_">
	<path class="st0" d="M280.3,144.7c2.3-1.3,4.6-2.7,6.9-4c4.9-2.8,9.9-5.4,14.8-8"/>
</g>
<g id="SPLINE_402_">
	<path class="st0" d="M282.9,119.8c0.5,0.6,0.9,1.2,1.4,1.7c0.5,0.5,0.9,1,1.4,1.5c0.9,0.9,1.8,1.7,2.7,2.4c0.9,0.7,1.7,1.4,2.5,2
		c0.8,0.6,1.7,1.2,2.5,1.7c0.8,0.6,1.6,1.1,2.4,1.6c0.8,0.5,1.6,1,2.4,1.3c0.8,0.4,1.5,0.7,2.2,0.8c0.7,0.1,1.3,0.1,1.8-0.1"/>
</g>
<g id="SPLINE_401_">
	<path class="st0" d="M282.9,119.8c-9.9,5.1-19.8,10.6-29.4,16.5"/>
</g>
<g id="ARC_47_">
	<path class="st0" d="M306.4,116.2c0.5-0.9,1.1-1.6,2-2.2"/>
</g>
<g id="LINE_40_">
	<line class="st0" x1="302" y1="132.7" x2="303.2" y2="132"/>
</g>
<g id="SPLINE_400_">
	<path class="st0" d="M306.4,116.2c-1.5-0.5-3.2-0.8-5.1-0.8c-1.9-0.1-4,0-6.1,0.3s-4.3,0.8-6.4,1.6c-1.1,0.4-2.1,0.8-3.1,1.2
		c-0.5,0.2-1,0.4-1.5,0.7s-0.9,0.4-1.4,0.7"/>
</g>
<g id="LINE_39_">
	<line class="st0" x1="337.5" y1="225.9" x2="337.6" y2="225.9"/>
</g>
<g id="SPLINE_395_">
	<path class="st0" d="M251.6,134.6c0.3,0.2,0.5,0.4,0.8,0.7c0.3,0.3,0.6,0.6,0.9,1"/>
</g>
<g id="SPLINE_392_">
	<path class="st0" d="M235.8,87.9c0.4,0.1,0.8,0.3,1.1,0.4"/>
</g>
<g id="SPLINE_379_">
	<path class="st0" d="M154.6,59.8c2,0.7,4,1.4,6,2.2c2.2,0.8,4.5,1.6,6.7,2.4c2.5,0.9,5,1.8,7.5,2.7c2.9,1,5.8,2,8.7,3.1
		c3.9,1.4,7.7,2.7,11.6,4c4,1.4,7.9,2.7,11.9,4c2.8,1,5.7,1.9,8.5,2.9c3.7,1.2,7.3,2.4,11,3.7c3.2,1.1,6.3,2.1,9.5,3.2"/>
</g>
<g id="SPLINE_374_">
	<path class="st0" d="M111,75.5c7.1-2.3,14.3-4.7,21.6-7.3c3.6-1.3,7.3-2.7,11-4.1c3.7-1.4,7.3-2.8,11-4.3"/>
</g>
<g id="SPLINE_373_">
	<path class="st0" d="M111,75.5c8.4,4.4,16.2,8.5,23.7,12.4c7.5,3.9,14.7,7.7,21.6,11.4c6.9,3.7,13.6,7.3,20.2,10.9
		c6.6,3.6,13,7.2,19.4,10.9"/>
</g>
<g id="SPLINE_367_">
	<path class="st0" d="M206.9,141c0.1-0.3,0.2-0.5,0.3-0.8c0.1-0.3,0.2-0.5,0.3-0.8c0.1-0.2,0.2-0.5,0.2-0.7c0.1-0.2,0.1-0.5,0.2-0.7
		c0.1-0.4,0.2-0.8,0.2-1.2c0.1-0.4,0.1-0.8,0.1-1.2c0-0.7-0.1-1.4-0.2-2.1c-0.2-0.7-0.4-1.4-0.7-2.2c-0.4-0.8-0.8-1.5-1.4-2.3
		c-0.6-0.8-1.3-1.5-2-2.2c-0.5-0.4-1-0.9-1.5-1.3c-0.5-0.4-1.1-0.9-1.7-1.3c-0.7-0.5-1.4-1-2.2-1.4c-0.9-0.6-1.8-1.1-2.7-1.6"/>
</g>
<g id="SPLINE_354_">
	<path class="st0" d="M237,88.3c2,0.6,4,1.3,6,1.8c2,0.5,4.1,0.8,6.2,1.2"/>
</g>
<g id="SPLINE_351_">
	<path class="st0" d="M275.5,91.7c1.7-0.2,3.4-0.3,5.1-0.6c2.1-0.3,4.1-0.7,6.1-1.2"/>
</g>
<g id="SPLINE_350_">
	<path class="st0" d="M281.1,118.1c0.3,0.2,0.5,0.4,0.8,0.7c0.3,0.3,0.6,0.6,0.9,1"/>
</g>
<g id="SPLINE_349_">
	<path class="st0" d="M109.2,79c0,0-0.1,0-0.1,0c-0.1-0.1-0.2-0.2-0.2-0.3c-0.1-0.1-0.1-0.3-0.1-0.4c0-0.2,0-0.3,0.1-0.5
		c0-0.2,0.1-0.4,0.2-0.5c0.1-0.2,0.2-0.4,0.3-0.5c0.1-0.2,0.2-0.3,0.4-0.4c0.1-0.1,0.3-0.2,0.4-0.3c0.3-0.2,0.6-0.3,0.9-0.4"/>
</g>
<g id="SPLINE_348_">
	<path class="st0" d="M271,89.1c-2.1-1.4-5.5-1.9-9.5-1.5c-4,0.4-8.4,1.7-12,3.6c-3.6,1.9-6.3,4.3-7.4,6.7c-1.1,2.3-0.6,4.4,1.5,5.8
		"/>
</g>
<g id="SPLINE_347_">
	<path class="st0" d="M243.5,103.7c2.1,1.4,5.5,1.9,9.5,1.5c4-0.4,8.4-1.7,12-3.6s6.3-4.3,7.4-6.7c1.1-2.3,0.6-4.4-1.5-5.8"/>
</g>
<g id="LWPOLYLINE_12_">
	<polyline class="st0" points="255.5,111.1 255.6,111.1 257.9,110.7 	"/>
</g>
<g id="LWPOLYLINE_11_">
	<polyline class="st0" points="264.3,108.7 266.6,107.6 267.1,107.4 	"/>
</g>
<g id="ARC_45_">
	<path class="st0" d="M265.6,108.2c-2.6,1.4-5.4,2.3-8.4,2.6"/>
</g>
<g id="SPLINE_345_">
	<path class="st0" d="M109.5,32.8c0.2-0.2,0.4-0.3,0.6-0.5c0.2-0.2,0.4-0.3,0.6-0.5c0.2-0.2,0.4-0.3,0.6-0.5
		c0.3-0.2,0.6-0.4,0.8-0.7c0.6-0.5,1.3-1,2-1.5c0.4-0.3,0.7-0.5,1.1-0.8c0.4-0.3,0.9-0.6,1.3-1c0.6-0.4,1.2-0.9,1.8-1.3
		c0.7-0.5,1.5-1.1,2.2-1.6c1.1-0.8,2.3-1.7,3.5-2.5c1.5-1,3-2.1,4.5-3.1c1.9-1.2,3.9-2.4,5.9-3.5c2.4-1.3,4.8-2.5,7.2-3.4
		c0.8-0.3,1.5-0.6,2.3-0.8c0.9-0.3,1.8-0.6,2.7-0.8c0.4-0.1,0.8-0.2,1.2-0.3c0.4-0.1,0.7-0.2,1.1-0.3c0.3-0.1,0.6-0.1,0.9-0.2
		c0.3-0.1,0.6-0.1,0.9-0.2c0.6-0.1,1.1-0.2,1.7-0.2c0.9-0.1,1.7-0.2,2.6-0.2c1.2,0,2.3,0,3.5,0.1c1.2,0.1,2.3,0.3,3.4,0.5
		c1.1,0.2,2.2,0.5,3.3,0.9c0.6,0.2,1.3,0.5,1.9,0.7c0.6,0.3,1.1,0.5,1.7,0.8c0.5,0.3,1,0.6,1.5,0.9c0.4,0.3,0.8,0.5,1.2,0.8
		c0.2,0.2,0.4,0.3,0.6,0.5c0.1,0.1,0.2,0.1,0.3,0.2c0.2,0.1,0.3,0.2,0.4,0.4c0.1,0.1,0.2,0.1,0.2,0.2c0.1,0.1,0.3,0.3,0.4,0.4
		c0.4,0.4,0.8,0.8,1.2,1.2c0.3,0.4,0.6,0.7,0.9,1.1c1.1,1.4,2.1,3,2.8,4.7c0.6,1.4,1,2.9,1.3,4.5c0.2,1.6,0.3,3.2,0.1,4.7
		c-0.1,1.2-0.4,2.5-0.8,3.6c-0.3,0.8-0.6,1.6-0.9,2.3c-0.3,0.6-0.6,1.2-1,1.8c-0.2,0.4-0.5,0.8-0.8,1.1c-0.2,0.3-0.5,0.6-0.7,0.9
		c-0.5,0.6-1,1.1-1.5,1.6c-0.3,0.3-0.5,0.6-0.8,0.8c-0.1,0.1-0.3,0.3-0.4,0.4c-0.2,0.2-0.4,0.4-0.5,0.5c-0.2,0.2-0.4,0.3-0.5,0.5"/>
</g>
<g id="SPLINE_344_">
	<path class="st0" d="M105.9,29.8c0.4-0.4,0.8-0.7,1.2-1.1c0.4-0.4,0.9-0.8,1.3-1.2c0.5-0.4,1-0.8,1.5-1.2c0.5-0.3,0.9-0.7,1.4-1
		c0.4-0.3,0.8-0.6,1.2-0.8c0.4-0.3,0.8-0.6,1.2-0.9c0.5-0.3,0.9-0.7,1.4-1c0.3-0.2,0.5-0.4,0.8-0.6c0.3-0.2,0.6-0.4,0.8-0.6
		c0.3-0.2,0.6-0.4,0.8-0.6c0.3-0.2,0.6-0.4,0.9-0.6c0.3-0.2,0.6-0.4,0.9-0.6c0.6-0.4,1.1-0.8,1.7-1.2c0.6-0.4,1.2-0.8,1.8-1.2
		c0.6-0.4,1.2-0.8,1.9-1.2c0.6-0.4,1.3-0.8,1.9-1.2c0.7-0.4,1.3-0.8,2-1.2c1.2-0.7,2.5-1.4,3.7-2c1.3-0.7,2.7-1.3,4-1.9
		c0.9-0.4,1.8-0.7,2.6-1.1c0.9-0.4,1.9-0.7,2.8-1c0.9-0.3,1.7-0.5,2.5-0.7c0.9-0.2,1.9-0.4,2.8-0.6c0.8-0.2,1.7-0.3,2.5-0.4
		c0.9-0.1,1.8-0.2,2.7-0.2c1.5,0,2.9,0,4.3,0.2c1.3,0.1,2.5,0.4,3.7,0.7c0.8,0.2,1.6,0.4,2.4,0.7c0.8,0.3,1.5,0.6,2.3,0.9
		c0.7,0.3,1.4,0.7,2.1,1.1c0.6,0.3,1.1,0.7,1.7,1.1c0.5,0.4,0.9,0.7,1.4,1.1"/>
</g>
<g id="SPLINE_342_">
	<path class="st0" d="M108.7,31.7c-0.1,0.1-0.2,0.2-0.3,0.3"/>
</g>
<g id="LINE_36_">
	<line class="st0" x1="171.8" y1="13.1" x2="172.4" y2="13.6"/>
</g>
<g id="ARC_44_">
	<path class="st0" d="M171.7,45.1c-0.1,0.1-0.1,0.2-0.2,0.2"/>
</g>
<g id="ARC_43_">
	<path class="st0" d="M109.5,32.8c-0.4-0.3-0.7-0.7-0.8-1.1"/>
</g>
<g id="ARC_42_">
	<path class="st0" d="M267.7,107.2c-3.8,2.6-8.3,4-12.9,4.1"/>
</g>
<g id="SPLINE_341_">
	<path class="st0" d="M252.7,111.3c0.3,0.1,0.7,0.3,1,0.4c1,0.2,2.3,0.2,3.7,0.1s2.8-0.4,4.1-0.8c1.4-0.4,2.7-1,3.9-1.6
		c1.2-0.6,2.4-1.4,3.1-2.1c0.4-0.4,0.6-0.8,0.9-1.1"/>
</g>
<g id="SPLINE_340_">
	<path class="st0" d="M164.8,8.2c0.1,0,0.2,0,0.2,0.1c0.1,0,0.1,0.1,0.2,0.1"/>
</g>
<g id="ARC_41_">
	<path class="st0" d="M105.9,29.8c-0.1-0.2-0.1-0.5,0.1-0.7"/>
</g>
<g id="SPLINE_335_">
	<path class="st0" d="M118.3,14.2c0.4-0.3,0.7-0.7,1.1-1c0.4-0.4,0.8-0.7,1.2-1.1c0.4-0.4,0.9-0.8,1.3-1.2c0.4-0.3,0.7-0.6,1.1-0.9
		c0.4-0.3,0.8-0.6,1.1-0.9c0.4-0.3,0.8-0.6,1.2-0.9c0.9-0.7,1.9-1.4,3-2.1c0.4-0.2,0.8-0.5,1.2-0.7c0.4-0.2,0.9-0.5,1.3-0.7
		c0.5-0.2,1-0.5,1.5-0.7c0.2-0.1,0.4-0.2,0.7-0.3c0.3-0.1,0.6-0.2,0.9-0.3c0.4-0.1,0.7-0.3,1.1-0.4c0.4-0.1,0.8-0.2,1.2-0.3
		c0.3-0.1,0.7-0.2,1-0.3c0.3-0.1,0.6-0.1,0.9-0.2c0.2,0,0.5-0.1,0.7-0.1c0.5-0.1,1.1-0.2,1.6-0.2c0.5-0.1,1-0.1,1.5-0.1
		c0.4,0,0.9,0,1.3-0.1c1.5,0,3,0.1,4.3,0.3c0.7,0.1,1.3,0.2,1.9,0.4c0.2,0.1,0.4,0.1,0.7,0.2"/>
</g>
<g id="SPLINE_334_">
	<path class="st0" d="M106,29.1c-0.1,0.1-0.1,0.1-0.2,0.2"/>
</g>
<g id="SPLINE_333_">
	<path class="st0" d="M154.6,59.8c0.3-0.1,0.6-0.3,0.8-0.4c0.1-0.1,0.2-0.2,0.3-0.2c0.1-0.1,0.2-0.1,0.3-0.2c0.1,0,0.2-0.1,0.2-0.1
		c0,0,0,0,0.1,0"/>
</g>
<g id="SPLINE_332_">
	<path class="st0" d="M146.3,55.8c2.8,1.3,5.5,2.7,8.3,4"/>
</g>
<g id="SPLINE_331_">
	<path class="st0" d="M103.1,67.9c7.3-1.6,14.6-3.5,21.8-5.5c7.2-2,14.4-4.2,21.4-6.7"/>
</g>
<g id="LINE_35_">
	<line class="st0" x1="111" y1="75.5" x2="103.1" y2="67.9"/>
</g>
<g id="LINE_34_">
	<line class="st0" x1="146.3" y1="55.8" x2="146.2" y2="55.4"/>
</g>
<g id="LINE_33_">
	<line class="st0" x1="103.1" y1="67.9" x2="103" y2="67.6"/>
</g>
<g id="SPLINE_330_">
	<path class="st0" d="M102.4,79.2c-0.3,0-0.6,0-0.8,0c-0.4,0-0.8-0.1-1.2-0.2c-0.4-0.1-0.8-0.2-1.1-0.4c-0.4-0.1-0.7-0.3-1-0.5
		c-0.3-0.2-0.6-0.4-0.8-0.6c-0.3-0.2-0.5-0.5-0.7-0.8c-0.2-0.3-0.4-0.6-0.5-0.9c-0.1-0.3-0.3-0.7-0.3-1c-0.1-0.4-0.1-0.7-0.1-1.1
		c0-0.4,0-0.8,0.1-1.1c0.1-0.3,0.2-0.5,0.3-0.8c0.1-0.3,0.3-0.5,0.4-0.8c0.2-0.2,0.4-0.5,0.6-0.7c0.2-0.2,0.5-0.4,0.8-0.6
		c0.3-0.2,0.7-0.4,1-0.6c0.4-0.2,0.8-0.3,1.2-0.5c0.5-0.2,1-0.3,1.5-0.4c0.5-0.1,1-0.2,1.5-0.3"/>
</g>
<g id="SPLINE_329_">
	<path class="st0" d="M146.3,55.8c1.3-0.5,2.5-0.9,3.8-1.3c0.6-0.2,1.1-0.3,1.6-0.4c0.5-0.1,1-0.2,1.4-0.2c0.4,0,0.8,0,1.1,0
		c0.3,0,0.6,0.1,0.8,0.2c0.2,0.1,0.4,0.2,0.4,0.4c0,0.1,0,0.2,0,0.2"/>
</g>
<g id="SPLINE_328_">
	<path class="st0" d="M99.6,462.8c0.4,0.1,0.9,0.1,1.3,0.1c0.3,0,0.6-0.1,0.9-0.1c0.3-0.1,0.6-0.2,0.9-0.3c0.4-0.1,0.8-0.3,1.2-0.5
		c0.4-0.2,0.8-0.5,1.2-0.7c0.5-0.3,0.9-0.7,1.4-1.1c0.4-0.4,0.9-0.9,1.3-1.4c0.3-0.4,0.7-0.8,1-1.3c0.3-0.5,0.6-0.9,0.9-1.4
		c0.4-0.8,0.8-1.6,1.1-2.4c0.3-0.8,0.5-1.6,0.7-2.5"/>
</g>
<g id="SPLINE_327_">
	<path class="st0" d="M111.4,451.1c0.1-0.8,0.3-1.7,0.3-2.5c0.1-0.9,0-1.8-0.1-2.7c-0.1-0.6-0.1-1.2-0.3-1.7
		c-0.1-0.5-0.2-1.1-0.4-1.6c-0.2-0.6-0.4-1.2-0.7-1.8c-0.2-0.6-0.5-1.1-0.8-1.6c-0.2-0.4-0.5-0.8-0.8-1.2c-0.3-0.4-0.6-0.7-0.9-1.1
		c-0.5-0.5-1-0.9-1.5-1.2c-0.5-0.3-1-0.6-1.5-0.7c-0.1,0-0.3,0-0.4,0"/>
</g>
<g id="LWPOLYLINE_10_">
	<polyline class="st0" points="94.7,447 94.6,447 94.6,447 	"/>
</g>
<g id="SPLINE_326_">
	<path class="st0" d="M130.6,541.8c-0.7-0.2-1.4-0.3-2.2-0.5c-1.4-0.3-2.8-0.7-4.2-1.1c-1.4-0.4-2.7-0.7-3.8-1.1
		c-0.4-0.1-0.8-0.2-1.2-0.4"/>
</g>
<g id="SPLINE_325_">
	<path class="st0" d="M108,534.2c-3.9-1.7-7.8-3.4-11.5-5.5c-3.8-2-7.5-4.4-11.1-6.9s-7.1-5.3-10.6-8.4c-3.4-3-6.8-6.3-10-9.7
		c-3.2-3.5-6.4-7.1-9.4-11c-3-3.9-5.9-8-8.7-12.3c-2.8-4.3-5.5-8.8-8-13.5c-2.5-4.7-4.8-9.7-7.2-14.6"/>
</g>
<g id="LINE_30_">
	<line class="st0" x1="110.5" y1="22.1" x2="118.3" y2="14.2"/>
</g>
<g id="ARC_40_">
	<path class="st0" d="M96.3,508.9c-17.4-7.4-32.7-18.9-44.6-33.5"/>
</g>
<g id="SPLINE_324_">
	<path class="st0" d="M141.6,501.2c-2.5-0.8-5-1.7-7.6-2.2c-2.7-0.6-5.5-0.9-8.3-1c-2.8-0.1-5.7,0.1-8.5,0.4
		c-2.9,0.4-5.7,0.9-8.6,1.8c-2.8,0.9-5.6,2-8.4,3.2"/>
</g>
<g id="SPLINE_323_">
	<path class="st0" d="M130.2,95.5c-3.1,4.9-6.1,9.8-9.1,14.9s-5.8,10.4-8.5,15.8c-2.7,5.4-5.3,10.9-7.9,16.5s-4.9,11.3-7.2,17.2
		c-2.3,5.8-4.4,11.7-6.5,17.7c-2,6-4,12-5.7,18.2c-1.8,6.1-3.4,12.3-5,18.5c-1.5,6.2-2.9,12.5-4.2,18.8c-1.3,6.3-2.4,12.6-3.4,19
		s-1.8,12.7-2.5,19s-1.3,12.7-1.7,19c-0.4,6.3-0.7,12.6-0.8,18.8c-0.1,6.2-0.1,12.4,0.1,18.6c0.2,6.1,0.5,12.2,0.9,18.2
		c0.5,6,1.1,11.9,1.8,17.8s1.6,11.6,2.6,17.2c0.8,4.4,1.8,8.8,2.7,13.1"/>
</g>
<g id="SPLINE_322_">
	<path class="st0" d="M108,534.2c0.1,0.2,0.3,0.5,0.5,0.6c0.1,0.1,0.2,0.1,0.3,0.2"/>
</g>
<g id="SPLINE_321_">
	<path class="st0" d="M169,525.9c0,0,0,0.1-0.1,0.1c-0.2,0.3-0.5,0.5-0.7,0.8c-0.4,0.4-0.9,0.7-1.4,1.1c-0.6,0.4-1.3,0.7-2,0.9
		c-0.4,0.2-0.9,0.3-1.4,0.4c-0.5,0.1-1.1,0.3-1.7,0.4c-0.6,0.1-1.3,0.2-2,0.2c-0.4,0-0.8,0-1.2,0.1c-0.5,0-1,0-1.4,0
		c-0.6,0-1.1,0-1.7-0.1c-0.7-0.1-1.3-0.1-2-0.2c-0.8-0.1-1.7-0.3-2.5-0.4c-0.8-0.2-1.6-0.3-2.4-0.6c-0.7-0.2-1.5-0.4-2.2-0.6
		c-0.7-0.2-1.4-0.5-2.2-0.7c-0.7-0.2-1.3-0.5-2-0.7c-0.6-0.2-1.2-0.5-1.8-0.7c-0.5-0.2-1.1-0.5-1.6-0.7c-0.7-0.3-1.4-0.6-2.1-1
		c-0.7-0.3-1.3-0.6-2-1c-0.6-0.3-1.3-0.6-1.9-1c-0.6-0.3-1.2-0.6-1.8-0.9c-0.9-0.5-1.8-1-2.6-1.5c-0.8-0.5-1.7-1-2.5-1.4
		c-0.8-0.5-1.6-0.9-2.3-1.4c-1.4-0.8-2.7-1.7-4.1-2.5c-1.3-0.8-2.5-1.5-3.7-2.3c-1.2-0.7-2.3-1.4-3.4-2c-0.4-0.2-0.7-0.4-1.1-0.6
		c-0.4-0.2-0.7-0.4-1-0.6c-0.3-0.2-0.7-0.4-1-0.5c-0.3-0.2-0.7-0.3-1-0.5c-0.3-0.2-0.7-0.3-1-0.5c-0.5-0.2-1-0.4-1.4-0.6
		c-0.5-0.2-0.9-0.4-1.4-0.6c-0.3-0.1-0.7-0.2-1-0.4c-0.4-0.1-0.8-0.3-1.2-0.4c-0.3-0.1-0.6-0.2-0.9-0.3c-0.3-0.1-0.6-0.2-0.8-0.3
		c-0.3-0.1-0.5-0.2-0.8-0.3"/>
</g>
<g id="SPLINE_320_">
	<path class="st0" d="M100.2,503.5c1.6,0.5,3.3,1,5,1.7c1.8,0.7,3.7,1.6,5.7,2.6c2,1.1,4.1,2.3,6.2,3.6c2.2,1.3,4.4,2.7,6.7,4.1
		c2.3,1.4,4.6,2.8,6.9,4.1c2.3,1.3,4.7,2.6,7,3.7c2.3,1.1,4.6,2.1,6.9,2.9c2.3,0.8,4.5,1.4,6.6,1.8c2.1,0.4,4.1,0.7,6,0.7
		c1.9,0,3.6-0.1,5.2-0.4c1.5-0.3,2.9-0.8,4-1.4c1.1-0.6,2-1.4,2.6-2.2c0.6-0.8,0.8-1.7,0.8-2.6c0-0.9-0.1-1.9-1-2.6c0,0,0,0-0.1,0"
		/>
</g>
<g id="SPLINE_319_">
	<path class="st0" d="M144.6,543.6c0,0-0.1,0-0.1,0.1c-0.1,0-0.1,0-0.2,0c-0.1,0-0.2,0-0.3,0c-0.1,0-0.2,0-0.3,0c-0.1,0-0.2,0-0.3,0
		c-0.2,0-0.5,0-0.8-0.1c-0.3,0-0.6-0.1-0.9-0.1c-0.3,0-0.6-0.1-0.9-0.1c-0.6-0.1-1.2-0.2-1.9-0.3c-0.7-0.1-1.4-0.3-2.2-0.4
		c-0.5-0.1-1-0.2-1.5-0.3c-0.5-0.1-1.1-0.2-1.7-0.4c-0.6-0.1-1.2-0.3-1.8-0.4c-0.4-0.1-0.7-0.2-1.1-0.3c-0.4-0.1-0.8-0.2-1.2-0.3
		c-0.4-0.1-0.9-0.2-1.3-0.3c-0.5-0.1-0.9-0.2-1.4-0.4c-0.3-0.1-0.7-0.2-1-0.3c-0.4-0.1-0.9-0.2-1.3-0.4c-0.5-0.1-0.9-0.3-1.3-0.4
		c-0.3-0.1-0.5-0.2-0.8-0.2c-0.7-0.2-1.5-0.4-2.1-0.6c-0.6-0.2-1.2-0.4-1.7-0.5c-0.9-0.3-1.7-0.5-2.5-0.8c-0.4-0.1-0.9-0.3-1.3-0.4
		c-0.4-0.1-0.8-0.3-1.2-0.4c-0.5-0.2-1-0.3-1.4-0.5c-0.3-0.1-0.6-0.2-0.9-0.3c-0.6-0.2-1.1-0.4-1.7-0.6c-0.6-0.2-1.1-0.4-1.6-0.6"/>
</g>
<g id="LINE_29_">
	<line class="st0" x1="303.3" y1="133.1" x2="303.6" y2="132.9"/>
</g>
<g id="SPLINE_318_">
	<path class="st0" d="M307.9,130.2C307.9,130.2,308,130.2,307.9,130.2c0.3-0.2,0.6-0.5,0.9-0.7c0.3-0.2,0.5-0.4,0.8-0.6
		c0.2-0.2,0.5-0.4,0.7-0.6c0.2-0.2,0.5-0.4,0.7-0.7c0.2-0.2,0.4-0.5,0.6-0.7c0.2-0.2,0.4-0.5,0.6-0.7c0.2-0.2,0.4-0.5,0.5-0.7
		c0.2-0.2,0.3-0.5,0.5-0.7c0.3-0.4,0.5-0.9,0.7-1.3c0.2-0.5,0.4-1,0.5-1.4c0.1-0.5,0.2-1,0.2-1.5c0-0.7-0.1-1.4-0.4-2.1
		c-0.3-0.7-0.7-1.3-1.2-1.8c-0.5-0.6-1.2-1.1-2-1.5c-0.8-0.4-1.7-0.8-2.7-1.1"/>
</g>
<g id="SPLINE_312_">
	<path class="st0" d="M286.8,89.9c0.3-0.3,0.5-0.6,0.9-0.7c0.1,0,0.1,0,0.2,0"/>
</g>
<g id="SPLINE_311_">
	<path class="st0" d="M206.6,141.7c-0.5,0-1,0.1-1.5,0.2c-0.2,0-0.4,0.1-0.5,0.2c0,0.1-0.1,0.1-0.1,0.2"/>
</g>
<g id="LINE_28_">
	<line class="st0" x1="371.7" y1="108.2" x2="371.8" y2="108.4"/>
</g>
<g id="ARC_39_">
	<path class="st0" d="M362.5,166c-1.4,4.8-3.9,9.2-7.4,12.8"/>
</g>
<g id="SPLINE_310_">
	<path class="st0" d="M311.9,235.4c0.2,0,0.4-0.1,0.6-0.1c0.6-0.1,1.1-0.3,1.7-0.5c0.5-0.2,1.1-0.5,1.6-0.8c0.5-0.3,1-0.6,1.5-1
		c0.4-0.3,0.7-0.6,1.1-0.9c0.4-0.3,0.7-0.7,1.1-1.1c0.4-0.4,0.7-0.8,1.1-1.2c0.4-0.4,0.7-0.9,1.1-1.4c0.4-0.5,0.7-1,1.1-1.5
		c0.4-0.5,0.7-1.1,1.1-1.7c0.4-0.6,0.7-1.2,1.1-1.8c0.4-0.6,0.7-1.3,1.1-2c0.2-0.3,0.3-0.6,0.5-0.9c0.2-0.3,0.3-0.6,0.5-0.9
		c0.2-0.3,0.3-0.6,0.5-0.9c0.2-0.3,0.3-0.6,0.5-1c0.2-0.3,0.3-0.7,0.5-1c0.1-0.3,0.3-0.6,0.4-0.9c0.1-0.2,0.2-0.5,0.3-0.7
		c0.1-0.3,0.3-0.6,0.4-0.9c0.4-0.9,0.8-1.7,1.2-2.6"/>
</g>
<g id="SPLINE_309_">
	<path class="st0" d="M106.5,424.2c-0.4-0.1-0.8-0.2-1.1-0.2c-0.2,0-0.3,0-0.5,0c-0.1,0-0.1,0-0.2,0c0,0-0.1,0-0.1,0c0,0,0,0,0,0
		c0,0,0,0,0,0c0,0,0,0,0,0c0,0,0,0,0,0c-0.2,0-0.3,0.1-0.5,0.1c-0.2,0-0.3,0.1-0.5,0.1c-0.2,0.1-0.3,0.1-0.5,0.2
		c-0.2,0.1-0.3,0.2-0.5,0.2c-0.2,0.1-0.3,0.2-0.4,0.3c-0.1,0.1-0.3,0.2-0.4,0.4c-0.4,0.4-0.8,0.9-1.2,1.4c-0.4,0.5-0.8,1.2-1.1,1.8
		c-0.3,0.7-0.6,1.4-0.9,2.1c-0.3,0.8-0.6,1.6-0.8,2.4c0,0.2-0.1,0.3-0.1,0.5"/>
</g>
<g id="SPLINE_308_">
	<path class="st0" d="M92.4,462c0,0.4-0.1,0.9-0.1,1.3c0,0.5,0,0.9,0,1.4c0,0.4,0,0.9,0,1.3c0,0.7,0.1,1.4,0.2,2.1
		c0.1,0.6,0.3,1.2,0.4,1.7c0.2,0.5,0.4,1,0.7,1.4c0.3,0.5,0.8,1,1.3,1.4c0.5,0.3,1.1,0.6,1.7,0.8"/>
</g>
<g id="SPLINE_307_">
	<path class="st0" d="M106.5,424.6c-0.8-0.1-1.6-0.2-2.4-0.1c-0.8,0.1-1.4,0.5-2.1,1.1c-0.6,0.5-1.2,1.2-1.7,2
		c-0.5,0.8-1,1.8-1.4,2.8c-0.4,1.1-0.8,2.2-1.2,3.5c-0.4,1.2-0.7,2.6-1,3.9c-0.3,1.4-0.6,2.8-0.9,4.3c0,0.1,0,0.2-0.1,0.3"/>
</g>
<g id="SPLINE_293_">
	<path class="st0" d="M94,452.5c-0.2,1.1-0.4,2.1-0.5,3.1c-0.2,1.4-0.4,2.8-0.6,4.2c-0.2,1.3-0.3,2.6-0.3,3.8c0,1.2,0,2.3,0.1,3.4
		c0.1,1,0.3,2,0.7,2.8c0.3,0.8,0.8,1.5,1.4,2c0.6,0.5,1.4,0.8,2.1,1.1"/>
</g>
<g id="LWPOLYLINE_9_">
	<polyline class="st0" points="270.3,157.8 270.4,158.1 271.2,159.1 272.4,160 274.1,160.5 276,160.8 278.3,160.8 280.7,160.6 
		283.2,160 285.6,159.2 288,158.2 290.1,157 291.9,155.7 293.3,154.3 294.2,152.9 294.7,151.5 294.7,150.3 294.6,150.1 	"/>
</g>
<g id="LINE_27_">
	<line class="st0" x1="149.3" y1="453.4" x2="142.1" y2="451.6"/>
</g>
<g id="SPLINE_292_">
	<path class="st0" d="M149.3,453.4C149.3,453.4,149.3,453.4,149.3,453.4c0-0.1,0-0.1,0-0.1c0.1-0.5,0.2-1,0.2-1.5
		c0-0.5-0.1-1-0.3-1.4c-0.1-0.2-0.2-0.5-0.4-0.7c-0.1-0.2-0.3-0.4-0.5-0.5c-0.2-0.2-0.4-0.3-0.6-0.4c-0.2-0.1-0.5-0.2-0.7-0.2"/>
</g>
<g id="ARC_38_">
	<path class="st0" d="M141.8,452.4c-0.6,0.1-1.2,0.1-1.8-0.1"/>
</g>
<g id="ARC_36_">
	<path class="st0" d="M140,460.4c-0.6,0.1-1.2,0.1-1.7-0.1"/>
</g>
<g id="ARC_35_">
	<path class="st0" d="M291.3,235c0.3-0.1,0.7,0,0.9,0.3"/>
</g>
<g id="SPLINE_291_">
	<path class="st0" d="M142.3,465.1c0.3,0,0.5,0.1,0.8,0.1c0.3,0,0.6,0,0.8-0.1c0.2,0,0.4-0.1,0.5-0.2c0.3-0.1,0.7-0.4,1-0.6
		c0.2-0.2,0.5-0.4,0.7-0.7c0.2-0.2,0.3-0.4,0.5-0.7c0.3-0.5,0.5-1.1,0.7-1.6"/>
</g>
<g id="LINE_26_">
	<line class="st0" x1="147.4" y1="461.3" x2="140.2" y2="459.6"/>
</g>
<g id="LWPOLYLINE_8_">
	<polyline class="st0" points="300.8,140.2 300.9,140.5 301.7,141.6 302.9,142.4 304.6,142.9 306.5,143.2 308.8,143.2 311.2,143 
		313.7,142.4 316.1,141.6 318.5,140.6 320.6,139.4 322.3,138.1 323.7,136.7 324.7,135.3 325.2,134 325.1,132.7 325.1,132.5 	"/>
</g>
<g id="SPLINE_290_">
	<path class="st0" d="M254.9,158.4c0,0-0.1,0-0.1,0c-0.1,0-0.1,0-0.2,0.1c-0.1,0.1-0.2,0.2-0.3,0.3"/>
</g>
<g id="SPLINE_289_">
	<path class="st0" d="M255.5,167.4c-0.9,0.5-1.8,1-2.8,1.4c-0.9,0.3-1.8,0.6-2.6,0.8c-0.9,0.2-1.8,0.2-2.6,0.2
		c-0.8,0-1.5-0.2-2.2-0.4c-0.6-0.2-1.1-0.6-1.4-1c-0.2-0.3-0.3-0.6-0.3-0.9"/>
</g>
<g id="SPLINE_288_">
	<path class="st0" d="M303.3,133.1c-0.3-0.2-0.5-0.3-0.7-0.4c-0.2,0-0.3,0-0.4,0"/>
</g>
<g id="LINE_24_">
	<line class="st0" x1="272.6" y1="149.2" x2="280.3" y2="144.7"/>
</g>
<g id="ARC_34_">
	<path class="st0" d="M355.1,178.8c-0.1,0.5-0.3,0.9-0.6,1.3"/>
</g>
<g id="ARC_33_">
	<path class="st0" d="M333,209.7c-0.4,0.9-1.2,1.6-2.2,1.8"/>
</g>
<g id="SPLINE_287_">
	<path class="st0" d="M303.2,132c0.8-0.5,1.5-0.9,2.2-1.4c1.1-0.8,2.1-1.6,2.9-2.4c0.8-0.8,1.5-1.6,2.1-2.5c0.5-0.8,0.9-1.6,1.1-2.4
		c0.2-0.8,0.2-1.5,0.1-2.2c-0.1-0.7-0.4-1.4-0.9-2c-0.4-0.6-1-1.2-1.8-1.6c-0.8-0.5-1.7-0.8-2.7-1.2"/>
</g>
<g id="SPLINE_286_">
	<path class="st0" d="M337.6,225.9c0.1,0,0.2-0.1,0.3-0.1c0.1,0,0.2-0.1,0.2-0.2c0.1-0.1,0.1-0.1,0.2-0.2c0.1-0.2,0.3-0.5,0.3-0.8
		c0.1-0.3,0.1-0.6,0.2-0.9c0.1-0.4,0.1-0.8,0.1-1.3c0-0.5,0-1,0-1.5c0-0.5,0-1.1,0-1.7c0-1.4-0.1-2.9-0.2-4.6
		c-0.1-1.4-0.2-2.9-0.3-4.5c-0.1-1.4-0.2-2.8-0.4-4.3c-0.1-1.2-0.2-2.4-0.4-3.7c0-0.5-0.1-0.9-0.1-1.4"/>
</g>
<g id="SPLINE_285_">
	<path class="st0" d="M342.5,219.3c0-0.1,0.1-0.2,0.1-0.3c0.1-0.4,0-1.2,0-2c-0.1-0.8-0.1-1.7-0.2-2.7c-0.1-1.5-0.3-3.2-0.4-4.9
		c-0.2-1.8-0.3-3.7-0.6-5.7c-0.1-1.3-0.3-2.7-0.4-4.1c-0.1-1.1-0.1-2.3-0.2-3.4"/>
</g>
<g id="SPLINE_284_">
	<path class="st0" d="M195.9,121.1c-0.2,0.2-0.3,0.4-0.5,0.6c-0.1,0.1-0.2,0.3-0.3,0.4c-0.1,0.1-0.2,0.3-0.3,0.5
		c-0.1,0.2-0.2,0.3-0.3,0.5c-0.1,0.2-0.2,0.3-0.3,0.5c-0.1,0.2-0.2,0.3-0.3,0.5c-0.1,0.1-0.1,0.3-0.2,0.4c-0.1,0.2-0.2,0.4-0.2,0.4
		c0,0,0,0,0,0"/>
</g>
<g id="ARC_31_">
	<path class="st0" d="M264.3,108.7c-2.1,0.9-4.2,1.5-6.4,2"/>
</g>
<g id="SPLINE_283_">
	<path class="st0" d="M108.7,31.7c0.3-0.3,0.7-0.6,1-0.9c0.3-0.3,0.7-0.6,1-0.9c0.4-0.4,0.9-0.7,1.3-1.1c0.6-0.4,1.1-0.9,1.7-1.3
		c0.7-0.5,1.4-1,2.1-1.6c0.3-0.2,0.5-0.4,0.8-0.6c0.3-0.2,0.5-0.4,0.8-0.6c0.4-0.3,0.8-0.6,1.2-0.9c0.5-0.3,0.9-0.7,1.4-1
		c0.5-0.4,1-0.7,1.5-1.1c0.5-0.4,1-0.7,1.5-1.1c0.7-0.5,1.5-1.1,2.3-1.6c0.8-0.5,1.6-1.1,2.4-1.6c0.8-0.5,1.7-1.1,2.5-1.6
		c0.7-0.4,1.5-0.9,2.2-1.3c0.5-0.3,1.1-0.6,1.6-0.9c0.6-0.3,1.1-0.6,1.7-0.9c0.8-0.4,1.5-0.7,2.3-1.1c0.5-0.2,1-0.4,1.4-0.6
		c0.5-0.2,1-0.4,1.5-0.6c1-0.4,1.9-0.7,2.9-1c0.6-0.2,1.3-0.4,1.9-0.6c0.6-0.2,1.3-0.3,1.9-0.5c0.4-0.1,0.8-0.2,1.2-0.3
		c0.4-0.1,0.9-0.2,1.3-0.2c0.7-0.1,1.4-0.2,2.1-0.3c0.7-0.1,1.5-0.1,2.2-0.1c0.7,0,1.3,0,2,0c0.6,0,1.2,0.1,1.8,0.1
		c0.5,0,1.1,0.1,1.6,0.2c0.5,0.1,1,0.2,1.5,0.3c0.4,0.1,0.9,0.2,1.3,0.3c0.4,0.1,0.8,0.2,1.2,0.3c0.3,0.1,0.7,0.2,1,0.3
		c0.6,0.2,1.3,0.5,1.9,0.8c0.5,0.2,1,0.4,1.4,0.7c0.3,0.2,0.7,0.4,1,0.6c0.2,0.1,0.5,0.3,0.7,0.4c0.4,0.2,0.8,0.5,1.1,0.8
		c0.3,0.2,0.5,0.4,0.8,0.6c0,0,0.1,0.1,0.1,0.1"/>
</g>
<g id="SPLINE_282_">
	<path class="st0" d="M106,29.1c1.1-1,2.2-1.9,3.3-2.8c1.2-0.9,2.4-1.8,3.7-2.6c1.3-0.9,2.6-1.8,4-2.7c2.1-1.4,4.3-2.9,6.5-4.4
		c2.3-1.5,4.6-2.9,7-4.2c2.4-1.3,4.8-2.4,7.2-3.4c2.4-1,4.9-1.8,7.3-2.3c2.4-0.5,4.8-0.8,7.1-0.9c2.4-0.1,4.7-0.1,6.8,0.5
		c0.3,0.1,0.5,0.2,0.8,0.3"/>
</g>
<g id="SPLINE_281_">
	<path class="st0" d="M235.8,87.9c0.1-0.3,0.2-0.6,0.3-0.9c0-0.1,0.1-0.2,0.1-0.3c0-0.1,0-0.2,0-0.2c0-0.1,0-0.1-0.1-0.1
		c0,0,0,0,0,0"/>
</g>
<g id="LINE_175_">
	<line class="st1" x1="104.6" y1="434.9" x2="113.5" y2="436.5"/>
</g>
<g id="LINE_174_">
	<line class="st1" x1="108.7" y1="464.4" x2="99.6" y2="462.8"/>
</g>
<g id="SPLINE_618_">
	<path class="st1" d="M94.6,447c0.3-1.4,0.6-2.7,1-4c0.3-1.1,0.7-2.1,1.2-3c0.4-0.7,0.7-1.4,1.2-2c0.3-0.4,0.6-0.8,1-1.2
		c0.2-0.2,0.5-0.5,0.8-0.7c0.3-0.3,0.7-0.5,1.1-0.7c0.5-0.3,1.1-0.4,1.6-0.5c0.7-0.1,1.4,0,2.1,0"/>
</g>
<g id="SPLINE_617_">
	<path class="st1" d="M99.7,462.8c-0.7-0.2-1.5-0.4-2.1-0.7c-0.5-0.3-1-0.7-1.4-1.1c-0.3-0.3-0.6-0.7-0.8-1.1
		c-0.2-0.3-0.4-0.6-0.5-1c-0.2-0.5-0.4-1-0.5-1.6c-0.2-0.8-0.3-1.6-0.4-2.5c-0.1-1.1-0.1-2.3,0-3.5c0-0.7,0.1-1.4,0.2-2.1
		c0.1-0.8,0.2-1.5,0.4-2.3"/>
</g>
<g id="SPLINE_616_">
	<path class="st1" d="M130.6,541.8c-0.7-0.2-1.5-0.3-2.2-0.5c-1.4-0.3-2.8-0.7-4.2-1.1c-1.7-0.5-3.3-1-5-1.5"/>
</g>
<g id="SPLINE_615_">
	<path class="st1" d="M108.8,23.8c-1,1.1-2.1,2.2-3.1,3.3c-3.1,3.4-6.2,6.8-9.2,10.3c-3,3.5-5.9,7-8.8,10.6
		c-2.9,3.6-5.7,7.2-8.4,10.9c-2.8,3.7-5.5,7.4-8,11.2c-0.3,0.4-0.5,0.8-0.8,1.2c-1.7,2.6-3.9,6.3-5.3,8.6"/>
</g>
<g id="LINE_173_">
	<line class="st1" x1="141" y1="500.9" x2="141.6" y2="501.2"/>
</g>
<g id="SPLINE_614_">
	<path class="st1" d="M108.7,535.1c-1.8-0.8-3.5-1.5-5.3-2.3c-1.6-0.7-3.1-1.5-4.6-2.3c-1.3-0.7-2.7-1.4-4-2.2
		c-1.1-0.7-2.2-1.3-3.3-2c-0.9-0.6-1.8-1.2-2.7-1.8c-0.8-0.5-1.5-1-2.3-1.6c-1.2-0.9-2.4-1.7-3.6-2.6c-1.2-0.9-2.4-1.9-3.7-2.9
		c-1.2-1-2.4-2-3.6-3c-1.1-1-2.3-2-3.4-3c-1-1-2-1.9-3-2.9c-1.1-1.1-2.3-2.3-3.4-3.4c-1.3-1.3-2.5-2.7-3.7-4.1
		c-1.2-1.4-2.4-2.8-3.6-4.3c-1.6-2-3.2-4.1-4.8-6.2c-1.5-2.1-3-4.2-4.5-6.3c-1.5-2.2-2.9-4.4-4.3-6.6c-1.4-2.3-2.8-4.6-4.1-7
		c-1.4-2.4-2.7-4.9-4-7.4c-1.3-2.6-2.7-5.2-3.9-8c-0.3-0.7-0.6-1.4-0.9-2.1"/>
</g>
<g id="SPLINE_613_">
	<path class="st1" d="M108.9,23.6c1.6-1.7,3.2-3.3,4.8-4.9c1.6-1.6,3.1-3.1,4.7-4.6"/>
</g>
<g id="SPLINE_612_">
	<path class="st1" d="M177.7,428.6c-1.3,3.2-2.6,6.4-3.9,9.5c-2.7,6.6-5.4,13.2-8.1,19.8c-2.8,6.8-5.6,13.7-8.3,20.6
		c-2.9,7.1-5.7,14.1-8.6,21.2c-0.5,1.3-1.1,2.6-1.6,3.9"/>
</g>
<g id="SPLINE_611_">
	<path class="st1" d="M296.9,235.5c-1.9,0.8-3.4,1.6-5.3,2.5c-0.9,0.4-2.4,1.2-3.3,1.7"/>
</g>
<g id="SPLINE_610_">
	<path class="st1" d="M94,452c-0.6,3.2-1.1,5.9-1.2,6.9"/>
	<path class="st1" d="M205.2,167.2c-1.2,1.2-2.3,2.3-3.5,3.5c-1.2,1.2-2.4,2.4-3.5,3.7c-0.6,0.6-1.2,1.3-1.8,1.9
		c-0.4,0.5-0.9,1-1.3,1.4c-0.3,0.3-0.6,0.7-0.9,1c-1,1.1-2,2.2-3,3.4c-1.2,1.4-2.5,2.8-3.7,4.3c-1.4,1.7-2.9,3.4-4.3,5.2
		c-1.6,2-3.2,4-4.7,6c-3.2,4.1-6.2,8.4-9.1,12.7c-2.9,4.4-5.8,8.9-8.5,13.6c-2.7,4.7-5.3,9.6-7.8,14.5c-2.5,5.1-4.9,10.3-7.2,15.6
		c-1.4,3.2-2.7,6.4-4,9.6c-1.4,3.4-2.7,6.9-4,10.4c-1.4,3.7-2.7,7.5-4,11.2c-1.4,4-2.7,8.1-4,12.2c-1.4,4.4-2.7,8.8-4,13.3
		c-1.4,4.8-2.8,9.7-4.1,14.5c-1.2,4.4-2.4,8.8-3.5,13.3c-1.3,4.8-2.5,9.6-3.7,14.5c-1.3,5.3-2.6,10.6-3.8,15.8
		c-1.3,5.7-2.6,11.5-3.9,17.2c-1.4,6.3-2.7,12.7-4,19c-1.4,6.8-2.7,13.6-4,20.5c-0.8,4.1-1.5,8.2-2.3,12.2c-0.2,1.1-0.6,3.2-1,5.4"
		/>
</g>
<g id="SPLINE_609_">
	<path class="st1" d="M88.3,483.8c0.8-4.5,1.6-9,2.3-13.6c0.7-3.8,1.3-7.6,2-11.4"/>
</g>
<g id="SPLINE_608_">
	<path class="st1" d="M287.9,239.8c-0.8,0.4-1.7,0.9-2.5,1.3c-1.6,0.9-3.3,1.8-4.9,2.8c-1.4,0.8-2.8,1.7-4.1,2.6
		c-1.2,0.8-2.3,1.6-3.5,2.4c-1.3,0.9-2.6,1.9-3.8,3c-1,0.8-2,1.7-3,2.6c-0.8,0.7-1.5,1.4-2.2,2.1c-0.8,0.7-1.5,1.5-2.3,2.2
		c-0.8,0.8-1.6,1.6-2.3,2.5c-0.9,1-1.8,2-2.7,3.1c-1,1.2-2.1,2.5-3.1,3.8c-1.6,2-3.1,4.1-4.6,6.3c-1.7,2.4-3.3,4.9-4.9,7.5
		c-1.5,2.4-2.9,4.8-4.3,7.2c-1.3,2.2-2.5,4.4-3.7,6.6c-1,2-2.1,3.9-3.1,5.9c-0.9,1.7-1.7,3.3-2.5,5c-0.6,1.2-1.2,2.4-1.7,3.6
		c-0.5,0.9-0.9,1.9-1.4,2.8c-0.4,0.7-0.7,1.5-1.1,2.2c-0.5,1-1,2-1.4,3.1c-0.7,1.4-1.3,2.8-2,4.3c-0.8,1.9-1.7,3.7-2.5,5.6
		c-1,2.3-2.1,4.6-3.1,6.9c-1.1,2.4-2.1,4.9-3.2,7.3c-1.2,2.8-2.5,5.7-3.7,8.5c-1.4,3.3-2.8,6.6-4.2,9.9c-1.6,3.8-3.2,7.5-4.8,11.3
		c-1.8,4.3-3.6,8.6-5.4,12.8c-2,4.8-4,9.6-6,14.4c-2.2,5.3-4.4,10.7-6.6,16c-1.7,4.1-3.4,8.2-5,12.3"/>
</g>
<g id="SPLINE_607_">
	<path class="st1" d="M141.6,501.2c1.6,0.6,3.2,1.2,4.7,1.9c1.2,0.5,2.5,1.1,3.7,1.7c0.9,0.5,1.9,1,2.8,1.5c0.7,0.4,1.3,0.8,2,1.2
		c0.5,0.3,1,0.6,1.5,0.9c0.5,0.3,0.9,0.6,1.4,0.9c0.5,0.3,0.9,0.6,1.4,0.9c0.4,0.3,0.9,0.6,1.3,1c0.6,0.5,1.3,1,1.9,1.5
		c0.6,0.5,1.2,1.1,1.8,1.6c0.7,0.6,1.3,1.3,2,1.9c0.7,0.7,1.3,1.4,1.9,2c0.3,0.3,0.6,0.6,0.8,0.8c0.1,0.1,0.2,0.2,0.2,0.3"/>
</g>
<g id="SPLINE_606_">
	<path class="st1" d="M168.7,519.2c0.4,0.6,0.8,1.1,1.1,1.7c0.3,0.6,0.3,1.3,0.3,1.9c0,0.6-0.1,1.3-0.4,1.9
		c-0.2,0.4-0.3,0.7-0.7,1.2c-1.1,1.7-2.6,3.9-4.3,5"/>
</g>
<g id="SPLINE_605_">
	<path class="st1" d="M164.7,531c-2,1.3-4,2.7-6.1,4c-1.9,1.2-3.9,2.5-5.8,3.7c-1.8,1.1-3.6,2.2-5.4,3.3c-0.9,0.5-1.9,1.1-2.8,1.6"
		/>
</g>
<g id="SPLINE_604_">
	<path class="st1" d="M287.9,89.2c2-0.5,4.1-1,6.1-1.4c2.9-0.6,5.8-1.1,8.6-1.5c2.6-0.4,5.2-0.7,7.7-0.9c2.3-0.2,4.5-0.4,6.8-0.5
		c2-0.1,3.9-0.1,5.8-0.1c1.7,0,3.3,0,4.9,0.1c1.6,0.1,3.2,0.2,4.8,0.3c1.3,0.1,2.5,0.3,3.8,0.4c1.2,0.2,2.4,0.3,3.6,0.6
		c1.3,0.2,2.5,0.5,3.7,0.7c1.3,0.3,2.6,0.6,3.8,1c1.6,0.5,3.2,1,4.7,1.6c1.4,0.5,2.7,1.1,4,1.7c1.1,0.5,2.1,1.1,3,1.6
		c0.8,0.5,1.6,1,2.3,1.5c0.6,0.4,1.3,0.9,1.9,1.4c0.7,0.6,1.3,1.1,1.9,1.7c0.7,0.7,1.4,1.4,2,2.3c0.8,1,1.6,2.2,2.4,3.5
		c0.9,1.6,1.6,3.3,2.4,5"/>
</g>
<g id="SPLINE_603_">
	<path class="st1" d="M204.6,142.3c-0.2,0.4-0.4,0.8-0.5,1.2c-0.4,1-0.7,2-1,3.1c-0.2,0.8-0.4,1.7-0.6,2.5c-0.1,0.6-0.2,1.3-0.3,1.9
		c0,0.4-0.1,0.7-0.1,1.1c0,0.4,0,0.8,0,1.3c0,0.7,0,1.4,0.1,2.1c0.1,0.9,0.2,1.9,0.3,2.8c0.2,1.2,0.5,2.4,0.7,3.6
		c0.6,2.4,1.4,4.5,2,5.4"/>
</g>
<g id="LINE_172_">
	<path class="st1" d="M371.9,108.3l0.1,0.2c1.5,3.9,2,9.7,0.9,14.3"/>
</g>
<g id="SPLINE_602_">
	<path class="st1" d="M311.9,235.4c-0.9,0.1-1.8,0.3-2.8,0.4c-1.1,0.1-2.2,0.2-3.4,0.2c-1.2,0-2.4,0-3.7,0c-1.3,0-2.6-0.1-3.8-0.3
		c-0.5-0.1-1-0.2-1.5-0.2"/>
</g>
<g id="SPLINE_601_">
	<path class="st1" d="M373,122.8c-1.4,6.1-2.9,12.1-4.3,18.2c-1.2,5-2.4,10.1-3.7,15.2c-0.8,3.2-1.6,6.4-2.5,9.6"/>
</g>
<g id="SPLINE_600_">
	<path class="st1" d="M119.1,538.7c-1-0.3-2-0.6-2.9-0.9c-1-0.3-1.8-0.6-2.7-0.9c-1.7-0.6-3.4-1.3-5-1.9"/>
</g>
<g id="SPLINE_599_">
	<path class="st1" d="M144.7,543.6c-0.2,0.1-0.4,0.2-0.7,0.2c-0.3,0-0.7,0.1-1.2,0.1c-0.9,0-2-0.1-3.4-0.3c-1.3-0.2-2.7-0.4-4.2-0.7
		c-1.5-0.3-3.1-0.7-4.6-1"/>
</g>
<g id="SPLINE_598_">
	<path class="st1" d="M270.3,157.7C270.3,157.7,270.3,157.7,270.3,157.7c-0.2-0.5-0.3-1.1-0.2-1.6c0-0.5,0.1-1,0.2-1.5
		c0.1-0.5,0.3-1,0.6-1.5c0.3-0.5,0.6-0.9,0.9-1.4c0.3-0.4,0.7-0.8,1.1-1.2c0.4-0.3,0.8-0.7,1.2-1c0.5-0.3,1-0.7,1.5-1
		c0.4-0.2,0.8-0.5,1.2-0.7c0.4-0.2,0.8-0.4,1.2-0.6c0.7-0.3,1.4-0.6,2.2-0.8"/>
</g>
<g id="SPLINE_597_">
	<path class="st1" d="M280.2,146.7c0.8-0.2,1.5-0.4,2.3-0.6c0.3-0.1,0.6-0.1,0.9-0.2c0.5-0.1,1-0.1,1.5-0.2c0.5,0,1-0.1,1.5-0.1
		c0.5,0,1,0,1.5,0.1c0.5,0,1,0.1,1.5,0.2c0.5,0.1,1,0.2,1.4,0.4c0.5,0.2,0.9,0.4,1.3,0.6c0.4,0.2,0.8,0.5,1.1,0.8
		c0.3,0.3,0.6,0.7,0.9,1.1c0.2,0.4,0.4,0.8,0.6,1.2"/>
</g>
<g id="LINE_171_">
	<line class="st1" x1="271.6" y1="162" x2="270.3" y2="157.8"/>
</g>
<g id="LINE_170_">
	<line class="st1" x1="294.6" y1="150.1" x2="295.8" y2="153.9"/>
</g>
<g id="SPLINE_596_">
	<path class="st1" d="M300.8,140.2C300.8,140.1,300.8,140.1,300.8,140.2c-0.2-0.5-0.3-1.1-0.2-1.6c0-0.5,0.1-1,0.2-1.5
		c0.1-0.5,0.3-1,0.6-1.5c0.3-0.5,0.6-0.9,0.9-1.4c0.3-0.4,0.7-0.8,1.1-1.2c0.4-0.3,0.8-0.7,1.2-1c0.5-0.3,1-0.7,1.5-1
		c0.4-0.2,0.8-0.5,1.2-0.7c0.4-0.2,0.8-0.4,1.2-0.6c0.7-0.3,1.4-0.6,2.2-0.8"/>
</g>
<g id="SPLINE_595_">
	<path class="st1" d="M310.6,129.1c0.8-0.2,1.5-0.4,2.3-0.6c0.3-0.1,0.6-0.1,0.9-0.2c0.5-0.1,1-0.1,1.5-0.2c0.5,0,1-0.1,1.5-0.1
		c0.5,0,1,0,1.5,0.1c0.5,0,1,0.1,1.5,0.2c0.5,0.1,1,0.2,1.4,0.4c0.5,0.2,0.9,0.4,1.3,0.6c0.4,0.2,0.8,0.5,1.1,0.8
		c0.3,0.3,0.6,0.7,0.9,1.1c0.2,0.4,0.4,0.8,0.6,1.2"/>
</g>
<g id="LINE_169_">
	<line class="st1" x1="302" y1="144.2" x2="300.8" y2="140.2"/>
</g>
<g id="LINE_168_">
	<line class="st1" x1="325.1" y1="132.5" x2="326.7" y2="137.5"/>
</g>
<g id="SPLINE_594_">
	<path class="st1" d="M243.4,167.4c-0.1-0.2-0.1-0.4-0.2-0.5c-0.1-0.3,0-0.7,0-1c0.1-0.6,0.2-1.1,0.5-1.7c0.4-0.8,1-1.6,1.8-2.3
		c0.3-0.3,0.7-0.6,1.1-0.9c0.6-0.4,1.2-0.8,1.9-1.1c0.9-0.5,1.9-0.8,2.9-1.1c0.6-0.2,1.2-0.3,1.8-0.3c0.6-0.1,1.3,0,1.9,0"/>
</g>
<g id="LINE_167_">
	<line class="st1" x1="243.4" y1="167.6" x2="243.4" y2="167.5"/>
</g>
<g id="LINE_166_">
	<line class="st1" x1="259" y1="160.8" x2="259.2" y2="161.1"/>
</g>
<g id="SPLINE_593_">
	<path class="st1" d="M254.8,158.4c0.5,0.1,1,0.1,1.5,0.3c0.5,0.1,0.9,0.3,1.3,0.6c0.4,0.2,0.7,0.5,1,0.8c0.2,0.2,0.3,0.5,0.5,0.8"
		/>
</g>
<g id="SPLINE_592_">
	<path class="st1" d="M354.5,180.1c-0.6,0.7-1.2,1.4-1.9,2.1c-0.6,0.7-1.2,1.3-1.9,2.1c-0.6,0.7-1.3,1.4-1.9,2.1
		c-0.6,0.7-1.2,1.4-1.8,2.1c-0.6,0.7-1.1,1.3-1.7,2c-0.5,0.6-1,1.2-1.5,1.9c-0.8,1-1.7,2.1-2.4,3.1c-0.7,0.9-1.4,1.9-2,2.8
		c-0.8,1.2-1.5,2.3-2.2,3.4c-0.8,1.3-1.5,2.6-2.1,3.8c-0.7,1.5-1.3,2.9-1.9,4.3"/>
</g>
<g id="SPLINE_591_">
	<path class="st1" d="M337.5,225.9c-0.9,0.2-1.8,0.5-2.8,0.7c-1.6,0.4-3.2,0.6-4.8,0.8c-1.6,0.2-3.2,0.4-4.8,0.4c-0.6,0-1.1,0-1.7,0
		"/>
</g>
<g id="SPLINE_590_">
	<path class="st1" d="M349.6,185.5c-0.4,1.4-0.8,2.8-1.2,4.1c-0.7,2.3-1.2,4.7-1.8,7c-0.4,1.9-0.9,3.7-1.2,5.6
		c-0.3,1.4-0.6,2.8-0.8,4.1c-0.1,0.7-0.3,1.4-0.4,2.1c-0.1,0.5-0.2,1-0.2,1.4c-0.1,0.7-0.2,1.3-0.3,1.9c-0.1,0.9-0.3,1.8-0.4,2.7
		c-0.2,1.2-0.3,2.4-0.4,3.5c0,0.4-0.1,0.9-0.1,1.3"/>
</g>
<g id="SPLINE_589_">
	<path class="st1" d="M342.6,219.3c-0.2,1-0.4,2-0.8,2.9c-0.4,0.8-0.9,1.5-1.6,2.2c-0.5,0.5-1.1,1-1.9,1.2c-0.3,0.1-0.6,0.2-0.9,0.2
		"/>
</g>
<g id="SPLINE_588_">
	<path class="st1" d="M333,209.7c-1.1,2.5-2.1,5-3.2,7.3c-0.9,2-1.9,3.9-3,5.7c-0.8,1.4-1.7,2.8-2.6,4c-0.7,0.9-1.4,1.8-2.1,2.6
		c-0.3,0.4-0.7,0.7-1.1,1.1c-0.3,0.3-0.5,0.5-0.8,0.8c-0.4,0.3-0.8,0.7-1.2,1c-0.6,0.4-1.2,0.8-1.8,1.2c-0.8,0.5-1.6,0.9-2.5,1.2
		c-1,0.4-2.1,0.6-3.1,0.8"/>
</g>
<g id="SPLINE_587_">
	<path class="st1" d="M362.5,165.9c0,0.1-0.3,1.1-0.3,1.2c-0.3,1-0.7,2-1.1,3c-0.5,1-1,2-1.5,3c-0.6,1-1.2,2-1.9,3
		c-0.7,1-1.4,2-2.3,3c-0.3,0.3-0.6,0.6-0.9,1"/>
</g>
<g id="SPLINE_586_">
	<path class="st1" d="M193.5,124.9c-3.6-2.1-7.2-4.2-10.9-6.3c-3.4-1.9-6.8-3.9-10.2-5.8c-2.9-1.6-5.8-3.2-8.7-4.8
		c-2.4-1.3-4.7-2.6-7.1-3.9c-1.9-1-3.8-2.1-5.7-3.1c-0.8-0.4-1.6-0.9-2.4-1.3c-0.7-0.4-1.4-0.7-2.1-1.1c-0.6-0.3-1.2-0.6-1.7-0.9
		c-0.7-0.4-1.3-0.7-2-1.1c-1-0.5-2-1-3-1.6c-1.3-0.7-2.6-1.4-4-2.1c-1.7-0.9-2-1-2.9-1.6"/>
</g>
<g id="SPLINE_585_">
	<path class="st1" d="M251.3,111.3c-0.5,0-0.9,0-1.4-0.1c-0.6-0.1-1.3-0.1-1.9-0.2c-0.6-0.1-1.2-0.3-1.8-0.4
		c-0.6-0.2-1.1-0.4-1.7-0.6c-0.5-0.2-1-0.5-1.5-0.8c-0.5-0.3-0.9-0.7-1.3-1.1c-0.4-0.4-0.7-0.8-1-1.3c-0.3-0.5-0.5-1-0.7-1.5
		c-0.2-0.6-0.3-1.1-0.4-1.7c0-0.6,0-1.1,0.1-1.7c0.1-0.6,0.2-1.2,0.5-1.7c0.2-0.6,0.5-1.2,0.8-1.7c0.3-0.6,0.7-1.1,1.2-1.7
		c0.4-0.5,0.9-1,1.4-1.5c0.5-0.5,1-0.9,1.6-1.4c0.6-0.4,1.1-0.8,1.7-1.2c0.6-0.4,1.3-0.8,2-1.2c0.5-0.3,1.1-0.5,1.6-0.8
		c0.5-0.2,1-0.4,1.5-0.7c0.9-0.4,1.8-0.7,2.8-1"/>
</g>
<g id="SPLINE_584_">
	<path class="st1" d="M254.8,88.8c0.9-0.3,1.9-0.5,2.8-0.8c0.4-0.1,0.8-0.2,1.1-0.2c0.6-0.1,1.3-0.2,1.9-0.3
		c0.6-0.1,1.3-0.2,1.9-0.2c0.7,0,1.3-0.1,1.9-0.1c0.7,0,1.3,0,1.9,0.1c0.6,0.1,1.3,0.1,1.9,0.2c0.6,0.1,1.2,0.3,1.8,0.4
		c0.6,0.2,1.1,0.4,1.7,0.6c0.5,0.2,1,0.5,1.5,0.8c0.5,0.3,0.9,0.7,1.3,1.1c0.4,0.4,0.7,0.8,1,1.3c0.3,0.5,0.5,1,0.7,1.5
		c0.2,0.6,0.3,1.1,0.4,1.7c0,0.6,0,1.1-0.1,1.7c-0.1,0.6-0.2,1.2-0.5,1.7c-0.2,0.6-0.5,1.2-0.8,1.7c-0.3,0.6-0.7,1.1-1.2,1.7
		c-0.4,0.5-0.9,1-1.4,1.5c-0.5,0.5-1.5,1.2-2,1.7"/>
</g>
<g id="SPLINE_583_">
	<path class="st1" d="M171.8,13.1c0.1,0.1,0.2,0.2,0.3,0.2c1,0.7,1.8,1.6,2.5,2.4c0.9,1,1.7,2.2,2.4,3.3c0.8,1.4,1.5,2.8,1.9,4.3
		c0.5,1.7,0.8,3.5,0.9,5.2c0,1,0,1.9-0.1,2.9c-0.1,1-0.3,2-0.6,2.9c-0.3,1-0.7,2-1.2,2.9c-0.5,1-1.1,1.9-1.7,2.8
		c-0.7,0.9-1.4,1.8-2.3,2.6c-0.7,0.7-1.4,1.4-2.1,2.1"/>
</g>
<g id="SPLINE_582_">
	<path class="st1" d="M150.1,2.6c1.7,0.6,3.5,1.1,5.2,1.7c3,1.1,5.8,2.4,8.7,3.6"/>
</g>
<g id="LINE_165_">
	<line class="st1" x1="252.8" y1="116.2" x2="251.3" y2="111.3"/>
</g>
<g id="LINE_164_">
	<line class="st1" x1="270.7" y1="105.1" x2="272.1" y2="109.5"/>
</g>
<g id="SPLINE_581_">
	<path class="st1" d="M204.6,142.3c0.4-0.8,0.8-1.6,1-2.4c0.2-0.7,0.3-1.5,0.2-2.4c-0.1-0.7-0.3-1.5-0.7-2.3c-0.3-0.7-0.7-1.3-1.2-2
		c-0.4-0.6-0.9-1.2-1.5-1.8c-0.7-0.7-1.4-1.4-2.2-2.1c-0.9-0.8-2-1.5-3-2.2c-1.2-0.8-2.4-1.5-3.6-2.2"/>
</g>
<g id="SPLINE_580_">
	<path class="st1" d="M157.7,59.5c2.7,1,4,1.5,6.6,2.5c2.9,1,5.7,2.1,8.6,3.1c2.4,0.9,4.8,1.7,7.2,2.5c2.2,0.8,4.3,1.5,6.5,2.3
		c2.1,0.7,4.2,1.4,6.3,2.2c1.4,0.5,2.9,1,4.4,1.5c1.4,0.5,2.9,1,4.3,1.4c1.7,0.6,3.4,1.1,5.1,1.7c2,0.7,4.1,1.4,6.1,2
		c2.4,0.8,4.8,1.6,7.2,2.4c2.8,0.9,5.6,1.8,8.3,2.8c2.6,0.9,5.2,1.7,7.8,2.6"/>
</g>
<g id="SPLINE_579_">
	<path class="st1" d="M235.9,86.3c2.6,0.9,5.3,1.7,7.9,2.4c2.3,0.6,4.6,1.2,7,1.5c0.1,0,0.2,0,0.3,0"/>
</g>
<g id="SPLINE_578_">
	<path class="st1" d="M275,91.1c1.8-0.2,3.5-0.3,5.3-0.5c2.6-0.4,5.1-0.9,7.6-1.4"/>
</g>
<g id="LINE_163_">
	<line class="st1" x1="131.6" y1="542.1" x2="130.6" y2="541.8"/>
</g>
<g id="LINE_162_">
	<line class="st1" x1="119.3" y1="538.8" x2="118.2" y2="538.4"/>
</g>
<g id="SPLINE_577_">
	<path class="st1" d="M65.2,79.9c-3.2,5-6.3,10.1-9.3,15.4c-3,5.3-5.9,10.7-8.7,16.2c-2.8,5.6-5.5,11.3-8.1,17.2
		c-2.6,5.8-5.1,11.8-7.4,17.9c-2.4,6.1-4.6,12.2-6.7,18.4c-2.1,6.2-4.1,12.5-5.9,18.9c-1.8,6.3-3.5,12.7-5,19.1
		c-1.5,6.4-2.9,12.9-4.2,19.3c-1.2,6.3-2.3,12.7-3.3,19.1c-1,6.4-1.8,12.7-2.4,19.1c-0.7,6.2-1.2,12.3-1.6,18.5
		c-0.4,6.1-0.6,12.2-0.8,18.3c-0.1,6.1-0.1,12.1,0,18.1c0.1,6,0.4,11.9,0.8,17.8c0.4,6.1,1,12,1.7,17.9
		c4.2,35.9,13.4,70.5,27.5,101.8"/>
</g>
<g id="SPLINE_576_">
	<path class="st1" d="M171.5,45.3c-0.1,0.1-0.2,0.2-0.3,0.3"/>
</g>
<g id="SPLINE_575_">
	<path class="st1" d="M171.2,45.5c-3.7,3.5-7.3,7-10.9,10.9c-0.9,1-1.8,2-2.6,3"/>
</g>
<g id="LINE_161_">
	<line class="st1" x1="133" y1="91.4" x2="130.2" y2="95.5"/>
</g>
<g id="SPLINE_574_">
	<path class="st1" d="M76,393.8c0.2,1.2,0.5,2.4,0.7,3.5c1.2,5.5,2.7,10.7,4.3,15.9c1.6,5.1,3.3,10.2,5.1,15.1s3.7,9.7,5.9,14.2
		c0.8,1.7,1.7,3.4,2.5,5.1"/>
</g>
<g id="SPLINE_573_">
	<path class="st1" d="M93.1,492.3c0.8,0.4,1.5,0.9,2.4,1.3c0.9,0.4,1.9,0.8,3,1.1c1.1,0.3,2.2,0.6,3.4,0.8c1.3,0.2,2.6,0.4,4,0.6
		c1.2,0.1,2.4,0.2,3.6,0.3c1.3,0.1,2.5,0.2,3.8,0.3c1.4,0.1,2.8,0.2,4.2,0.2c1.4,0.1,2.8,0.2,4.2,0.3c1.6,0.1,3.2,0.3,4.8,0.4
		c1.6,0.2,3.1,0.4,4.6,0.6c1.6,0.3,3.2,0.6,4.6,0.9c1.5,0.4,2.9,0.7,4.1,1.2c0.4,0.2,0.9,0.3,1.2,0.5"/>
</g>
<g id="SPLINE_572_">
	<path class="st1" d="M88.4,483.9c-0.1,0.2-0.1,0.5-0.1,0.7c-0.1,0.7,0.1,1.5,0.4,2.2c0.3,0.8,0.7,1.6,1.3,2.4
		c0.6,0.8,1.3,1.6,2.2,2.3c0.3,0.3,0.6,0.5,1,0.8"/>
</g>
<g id="ARC_63_">
	<path class="st1" d="M171.4,45.3c-0.1,0.1-0.1,0.2-0.2,0.2"/>
</g>
<g id="SPLINE_571_">
	<path class="st1" d="M177.8,428c0.4,0,0.5-0.2,0.4-0.5c0-0.3-0.2-0.6-0.5-1c-0.3-0.4-0.8-0.9-1.4-1.5c-0.7-0.6-1.5-1.3-2.4-2
		c-1-0.7-2.3-1.6-3.5-2.4"/>
</g>
<g id="SPLINE_570_">
	<path class="st1" d="M291,236c-0.1,0.3-0.3,0.7-0.4,1c-0.2,0.3-0.3,0.6-0.5,0.9c-0.2,0.3-0.5,0.6-0.7,0.9c-0.3,0.4-0.5,0.5-0.9,0.8
		c-0.1,0.1-0.4,0.2-0.5,0.3"/>
</g>
<g id="SPLINE_569_">
	<path class="st1" d="M291,236c0.1-0.1,0.1-0.3,0.2-0.4c0.1-0.2,0.1-0.3,0.2-0.5c0.1-0.2,0.1-0.4,0.1-0.6c0.1-0.3,0.2-0.7,0.2-1
		c0-0.2,0.1-0.5,0.1-0.7c0.1-0.7,0.1-1.4,0.1-2.1c0-0.6-0.1-1.3-0.2-1.9c-0.2-1.4-0.6-2.9-1.1-4.4c-0.5-1.4-1.3-2.9-2.2-4.3
		c-0.8-1.3-1.8-2.5-2.9-3.7c-1-1.1-2.2-2.1-3.6-3.1c-1.1-0.8-2.3-1.5-3.6-2.1c-1.2-0.6-2.6-1.1-4-1.5c-1.4-0.4-3-0.7-4.5-0.8
		c-1.5-0.1-3.1-0.2-4.7-0.1c-1.6,0.1-3.2,0.3-4.7,0.6c-1.6,0.3-3.2,0.8-4.8,1.3c-1,0.3-1.9,0.7-2.9,1.1c-1,0.4-1.9,0.9-2.9,1.4
		c-1,0.5-2,1.1-2.9,1.7c-1,0.6-2,1.3-3,1.9c-0.8,0.6-1.7,1.2-2.5,1.8c-0.9,0.7-1.7,1.4-2.6,2.1c-0.8,0.7-1.5,1.3-2.3,2
		c-0.9,0.8-1.8,1.7-2.8,2.6"/>
</g>
<g id="SPLINE_568_">
	<path class="st1" d="M233.9,225.3c-0.5,0.4-0.9,0.9-1.4,1.3c-0.5,0.5-1,0.9-1.4,1.4c-0.5,0.5-1,1-1.5,1.5c-0.5,0.5-1,1-1.5,1.6
		c-0.5,0.5-1,1.1-1.5,1.6c-0.5,0.6-1,1.1-1.6,1.7c-0.5,0.6-1.1,1.2-1.6,1.8c-0.5,0.6-1.1,1.2-1.6,1.8c-1,1.1-1.9,2.2-2.8,3.4
		c-1.1,1.3-2.2,2.7-3.3,4.1c-1.1,1.4-2.1,2.7-3.2,4.1c-2,2.7-3.9,5.4-5.8,8.2c-3.2,4.7-6.3,9.5-9.3,14.3c-2,3.2-3.9,6.5-5.8,9.8
		c-2.2,3.8-4.3,7.6-6.4,11.5c-2.4,4.5-4.6,9-6.8,13.5c-4.3,9-8.3,18.3-11.9,27.6c-1.8,4.6-3.5,9.3-5.1,14c-1,2.9-2,5.9-3,8.8
		c-0.5,1.5-1,3-1.5,4.5c-0.4,1.3-0.8,2.6-1.2,3.9c-0.8,2.6-1.6,5.1-2.4,7.7c-0.7,2.2-1.4,4.4-2.1,6.5"/>
</g>
<g id="SPLINE_567_">
	<path class="st1" d="M151.2,379.9c-0.2,0.6-0.4,1.2-0.6,1.8c-0.2,0.6-0.3,1.1-0.5,1.7c-0.3,1-0.5,1.9-0.7,2.9
		c-0.3,1.4-0.4,2.8-0.5,4.3c0,1.1,0,2.3,0.1,3.4c0.1,1.1,0.3,2.3,0.6,3.4c0.4,1.8,1,3.5,1.7,5.1c0.6,1.3,1.3,2.5,2,3.7
		c0.8,1.2,1.6,2.3,2.5,3.4c1.1,1.2,2.2,2.4,3.3,3.4c1.2,1.1,2.5,2,3.7,2.9c0.6,0.4,1.2,0.9,1.8,1.3c0.7,0.5,1.4,0.9,2.1,1.4
		c0.2,0.1,0.4,0.3,0.7,0.4c0.4,0.2,0.8,0.5,1.1,0.7c0.3,0.2,0.6,0.4,1,0.6c0.2,0.1,0.5,0.3,0.7,0.4"/>
</g>
<g id="SPLINE_566_">
	<path class="st1" d="M273.2,164.3c0.5,0.3,1,0.7,1.6,0.9c0.5,0.2,1.2,0.4,1.8,0.6c0.7,0.1,1.4,0.2,2.2,0.3c0.7,0,1.5,0,2.3-0.1
		c0.8-0.1,1.6-0.2,2.4-0.4c0.8-0.2,1.6-0.4,2.5-0.7c0.8-0.3,1.6-0.6,2.4-1c0.8-0.4,1.5-0.8,2.2-1.2c1.3-0.8,2.4-1.8,3.2-2.7
		c0.5-0.6,0.9-1.1,1.2-1.7c0.4-0.6,0.6-1.2,0.7-1.8c0.2-0.9,0-1.7-0.1-2.5"/>
</g>
<g id="SPLINE_565_">
	<path class="st1" d="M271.6,162c0,0,0,0.1,0,0.1c0.1,0.2,0.1,0.4,0.2,0.5c0.1,0.2,0.2,0.3,0.3,0.5c0.3,0.4,0.7,0.8,1.1,1.1"/>
</g>
<g id="SPLINE_564_">
	<path class="st1" d="M243.4,167.6C243.4,167.6,243.4,167.6,243.4,167.6c0,0.4,0.3,0.6,0.5,0.9c0.2,0.2,0.5,0.5,0.8,0.7
		c0.3,0.2,0.7,0.4,1.1,0.5c0.4,0.1,0.9,0.2,1.3,0.3c0.5,0,1,0.1,1.5,0c0.5,0,1.1-0.1,1.6-0.2c0.6-0.1,1.2-0.3,1.7-0.5
		c0.6-0.2,1.2-0.4,1.8-0.7c0.5-0.2,1-0.5,1.5-0.8c0.5-0.3,1-0.7,1.5-1.1c0,0,0.1,0,0.1-0.1c0,0,0.1-0.1,0.1-0.1
		c0.2-0.1,0.3-0.3,0.5-0.4c0.5-0.5,0.9-1.1,1.3-1.6"/>
</g>
<g id="SPLINE_563_">
	<path class="st1" d="M258.6,164.4c0.3-0.7,0.7-1.5,0.7-2.1c0-0.6-0.2-1.1-0.4-1.6"/>
</g>
<g id="SPLINE_562_">
	<path class="st1" d="M303.6,146.4c1,0.6,1.9,1.1,3.2,1.5c0.7,0.2,1.5,0.3,2.3,0.4c0.7,0.1,1.4,0.1,2.2,0.1c0.4,0,0.9,0,1.3-0.1
		c0.4,0,0.9-0.1,1.3-0.2c0.8-0.1,1.7-0.3,2.5-0.5c0.8-0.2,1.6-0.5,2.3-0.7c0.7-0.3,1.4-0.6,2.1-0.9c0.7-0.4,1.3-0.7,1.9-1.1
		c0.6-0.4,1.2-0.9,1.7-1.3c0.5-0.5,0.9-0.9,1.3-1.4c0.4-0.5,0.7-1,0.9-1.5c0.2-0.5,0.3-0.9,0.4-1.4c0.1-0.5,0.1-1-0.1-1.5
		c0-0.1,0-0.1-0.1-0.2"/>
</g>
<g id="SPLINE_561_">
	<path class="st1" d="M302,144.2c0,0,0,0.1,0,0.1c0.1,0.2,0.2,0.5,0.3,0.7c0.3,0.5,0.8,0.9,1.2,1.4"/>
</g>
<g id="SPLINE_560_">
	<path class="st1" d="M308.3,114.1c-0.2-0.1-0.4-0.1-0.5-0.2c-0.2,0-0.4-0.1-0.6-0.1c-0.2,0-0.4-0.1-0.6-0.1c-0.2,0-0.4-0.1-0.6-0.1
		s-0.4-0.1-0.6-0.1c-0.2,0-0.4-0.1-0.6-0.1c-0.2,0-0.4,0-0.6-0.1c-0.2,0-0.4,0-0.6-0.1c-0.2,0-0.4,0-0.7,0c-0.9,0-1.9,0-2.9,0
		c-1,0-2,0.1-3.1,0.2c-1.2,0.1-2.4,0.3-3.6,0.6c-1.2,0.2-2.5,0.5-3.7,0.9c-0.8,0.2-1.5,0.4-2.3,0.7c-0.7,0.2-1.5,0.5-2.2,0.8
		c-0.4,0.1-0.7,0.3-1.1,0.4c-0.3,0.1-0.7,0.3-1,0.4c-0.3,0.1-0.6,0.3-1,0.4c-0.3,0.1-0.6,0.3-0.9,0.4"/>
</g>
<g id="SPLINE_559_">
	<path class="st1" d="M273.8,149.6c1.1-0.6,2.2-1.3,3.2-1.9c1.1-0.6,2.2-1.3,3.2-1.9c1.1-0.6,2.2-1.3,3.3-1.9
		c1.1-0.6,2.2-1.2,3.3-1.9c1.1-0.6,2.2-1.2,3.3-1.8c1.1-0.6,2.2-1.2,3.3-1.8c1.1-0.6,2.2-1.2,3.3-1.8c1.1-0.6,2.2-1.2,3.3-1.8
		c1.1-0.6,2.2-1.2,3.3-1.7"/>
</g>
<g id="SPLINE_558_">
	<path class="st1" d="M242,151.1c0.1,0.1,0.1,0.2,0.2,0.4c0.1,0.1,0.2,0.2,0.3,0.3c0.1,0.1,0.2,0.2,0.3,0.3c0.1,0.1,0.2,0.2,0.3,0.3
		c0.1,0.1,0.2,0.2,0.3,0.3c0.1,0.1,0.2,0.2,0.4,0.3c0.4,0.3,0.8,0.5,1.2,0.8c0.4,0.2,0.9,0.4,1.4,0.6c0.5,0.2,1,0.3,1.6,0.5
		c0.6,0.1,1.1,0.3,1.8,0.3c1.2,0.2,2.6,0.3,4,0.2c1.1,0,2.3-0.1,3.5-0.3c1.2-0.1,2.4-0.4,3.7-0.6c1.4-0.3,2.9-0.7,4.3-1.2
		c0.6-0.2,1.2-0.4,1.8-0.6c0.6-0.2,1.2-0.5,1.8-0.7c0.4-0.2,0.8-0.3,1.2-0.5c0.4-0.2,0.8-0.4,1.2-0.5c0.3-0.2,0.7-0.3,1-0.5
		c0.3-0.2,0.6-0.3,0.9-0.5c0.3-0.2,0.6-0.3,0.8-0.5"/>
</g>
<g id="SPLINE_557_">
	<path class="st1" d="M251.6,134.6c-0.2,0.1-0.3,0.2-0.5,0.3c-0.2,0.1-0.3,0.2-0.5,0.3c-0.2,0.1-0.3,0.2-0.5,0.3
		c-0.2,0.1-0.3,0.2-0.5,0.3c-0.2,0.1-0.3,0.2-0.5,0.4c-0.2,0.1-0.3,0.3-0.5,0.4c-0.5,0.4-1.1,0.9-1.6,1.3c-0.5,0.4-1,0.9-1.4,1.3
		c-0.4,0.4-0.7,0.8-1.1,1.1c-0.3,0.4-0.6,0.8-0.9,1.2c-0.3,0.4-0.6,0.9-0.9,1.3c-0.3,0.4-0.5,0.9-0.7,1.3c-0.3,0.6-0.5,1.1-0.6,1.6
		c-0.2,0.5-0.3,1.1-0.3,1.6c0,0.3,0,0.5,0,0.8c0,0.3,0,0.5,0.1,0.8c0,0.3,0.1,0.5,0.2,0.7c0.1,0.2,0.1,0.5,0.2,0.7
		c0.1,0.2,0.2,0.5,0.3,0.7"/>
</g>
<g id="SPLINE_556_">
	<path class="st1" d="M281.1,118.1c-1.1,0.6-2.2,1.1-3.3,1.7c-1.1,0.6-2.2,1.2-3.3,1.7c-1.1,0.6-2.2,1.2-3.3,1.8
		c-1.1,0.6-2.2,1.2-3.3,1.8c-1.1,0.6-2.2,1.2-3.3,1.8c-1.1,0.6-2.2,1.2-3.3,1.9c-1.1,0.6-2.2,1.3-3.3,1.9c-1.1,0.6-2.2,1.3-3.3,1.9
		c-1.1,0.6-2.2,1.3-3.3,1.9"/>
</g>
<g id="SPLINE_555_">
	<path class="st1" d="M253.9,117.4c0.4,0.2,0.9,0.3,1.4,0.5c0.4,0.1,0.8,0.1,1.3,0.1c0.6,0,1.1,0,1.8-0.1c0.6-0.1,1.2-0.1,1.8-0.3
		c1.2-0.2,2.4-0.6,3.6-1c1.1-0.4,2.2-0.9,3.3-1.4c1-0.5,1.9-1.1,2.7-1.7c0.8-0.6,1.4-1.3,1.8-1.9c0.2-0.3,0.4-0.6,0.5-0.9
		c0.1-0.3,0.2-0.6,0.1-0.9c0-0.1,0-0.2-0.1-0.3"/>
</g>
<g id="SPLINE_554_">
	<path class="st1" d="M252.8,116.2c0,0.1,0.1,0.2,0.1,0.3c0.1,0.2,0.2,0.3,0.3,0.4c0.2,0.2,0.4,0.3,0.6,0.4"/>
</g>
<g id="LINE_160_">
	<line class="st1" x1="311.6" y1="235.4" x2="311.9" y2="235.4"/>
</g>
<g id="SPLINE_553_">
	<path class="st1" d="M116.5,452c0.1-0.5,0.2-1,0.2-1.4c0.1-0.5,0.1-1,0.2-1.4s0.1-1,0.1-1.4c0-0.5,0-0.9,0-1.4c0-0.5,0-0.9-0.1-1.4
		c0-0.5-0.1-0.9-0.1-1.3s-0.1-0.9-0.2-1.3c0-0.2-0.1-0.4-0.1-0.6c0-0.2-0.1-0.4-0.2-0.6s-0.1-0.4-0.2-0.6c-0.1-0.2-0.1-0.4-0.2-0.5
		c-0.1-0.4-0.3-0.7-0.4-1c-0.2-0.3-0.3-0.6-0.5-0.9c-0.2-0.3-0.4-0.6-0.6-0.8s-0.4-0.5-0.6-0.7c-0.1-0.1-0.2-0.1-0.3-0.2"/>
</g>
<g id="SPLINE_552_">
	<path class="st1" d="M108.7,464.4c0.1,0,0.2-0.1,0.3-0.1c0.5-0.3,1.1-0.6,1.6-1s1-0.9,1.5-1.5s1-1.2,1.4-2c0.4-0.7,0.9-1.5,1.2-2.3
		s0.7-1.7,1-2.6c0.3-0.9,0.5-1.9,0.7-2.8"/>
</g>
<g id="SPLINE_551_">
	<path class="st1" d="M258.6,164.4c-0.7,1.1-1.8,2.1-3.1,3"/>
</g>
<g id="LINE_159_">
	<line class="st1" x1="337.5" y1="225.9" x2="337.6" y2="225.9"/>
</g>
<g id="LINE_158_">
	<path class="st1" d="M172.4,13.6l-0.6-0.5c-3.1-2.6-6-4.1-7.9-5.1"/>
</g>
<g id="ARC_62_">
	<path class="st1" d="M171.7,45.1c-0.1,0.1-0.1,0.2-0.2,0.2"/>
</g>
<g id="SPLINE_550_">
	<path class="st1" d="M118.3,14.2c0.4-0.3,0.7-0.7,1.1-1c0.4-0.4,0.8-0.7,1.2-1.1c0.4-0.4,0.9-0.8,1.3-1.2c0.4-0.3,0.7-0.6,1.1-0.9
		c0.4-0.3,0.8-0.6,1.1-0.9c0.4-0.3,0.8-0.6,1.2-0.9c0.9-0.7,1.9-1.4,3-2.1c0.4-0.2,0.8-0.5,1.2-0.7c0.4-0.2,0.9-0.5,1.3-0.7
		c0.5-0.2,1-0.5,1.5-0.7c0.2-0.1,0.4-0.2,0.7-0.3c0.3-0.1,0.6-0.2,0.9-0.3c0.4-0.1,0.7-0.3,1.1-0.4c0.4-0.1,0.8-0.2,1.2-0.3
		c0.3-0.1,0.7-0.2,1-0.3c0.3-0.1,0.6-0.1,0.9-0.2c0.2,0,0.5-0.1,0.7-0.1c0.5-0.1,1.1-0.2,1.6-0.2c0.5-0.1,1-0.1,1.5-0.1
		c0.4,0,0.9,0,1.3-0.1c1.5,0,3,0.1,4.3,0.3c0.7,0.1,1.3,0.2,1.9,0.4c0.2,0.1,0.4,0.1,0.7,0.2"/>
</g>
<g id="SPLINE_549_">
	<path class="st1" d="M130.6,541.8c-0.7-0.2-1.4-0.3-2.2-0.5c-1.4-0.3-2.8-0.7-4.2-1.1c-1.4-0.4-2.7-0.7-3.8-1.1
		c-0.4-0.1-0.8-0.2-1.2-0.4"/>
</g>
<g id="SPLINE_548_">
	<path class="st1" d="M130.2,95.5c-3.1,4.9-6.1,9.8-9.1,14.9s-5.8,10.4-8.5,15.8c-2.7,5.4-5.3,10.9-7.9,16.5s-4.9,11.3-7.2,17.2
		c-2.3,5.8-4.4,11.7-6.5,17.7c-2,6-4,12-5.7,18.2c-1.8,6.1-3.4,12.3-5,18.5c-1.5,6.2-2.9,12.5-4.2,18.8c-1.3,6.3-2.4,12.6-3.4,19
		s-1.8,12.7-2.5,19s-1.3,12.7-1.7,19c-0.4,6.3-0.7,12.6-0.8,18.8c-0.1,6.2-0.1,12.4,0.1,18.6c0.2,6.1,0.5,12.2,0.9,18.2
		c0.5,6,1.1,11.9,1.8,17.8s1.6,11.6,2.6,17.2c0.8,4.4,1.8,8.8,2.7,13.1"/>
</g>
<g id="LINE_157_">
	<line class="st1" x1="303.3" y1="133.1" x2="303.6" y2="132.9"/>
</g>
<g id="SPLINE_547_">
	<path class="st1" d="M307.9,130.2C307.9,130.2,308,130.2,307.9,130.2c0.3-0.2,0.6-0.5,0.9-0.7c0.3-0.2,0.5-0.4,0.8-0.6
		c0.2-0.2,0.5-0.4,0.7-0.6c0.2-0.2,0.5-0.4,0.7-0.7c0.2-0.2,0.4-0.5,0.6-0.7c0.2-0.2,0.4-0.5,0.6-0.7c0.2-0.2,0.4-0.5,0.5-0.7
		c0.2-0.2,0.3-0.5,0.5-0.7c0.3-0.4,0.5-0.9,0.7-1.3c0.2-0.5,0.4-1,0.5-1.4c0.1-0.5,0.2-1,0.2-1.5c0-0.7-0.1-1.4-0.4-2.1
		c-0.3-0.7-0.7-1.3-1.2-1.8c-0.5-0.6-1.2-1.1-2-1.5c-0.8-0.4-1.7-0.8-2.7-1.1"/>
</g>
<g id="ARC_61_">
	<path class="st1" d="M362.5,166"/>
</g>
<g id="SPLINE_546_">
	<path class="st1" d="M255.5,167.4c-0.9,0.5-1.8,1-2.8,1.4c-0.9,0.3-1.8,0.6-2.6,0.8c-0.9,0.2-1.8,0.2-2.6,0.2
		c-0.8,0-1.5-0.2-2.2-0.4c-0.6-0.2-1.1-0.6-1.4-1c-0.2-0.3-0.3-0.6-0.3-0.9"/>
</g>
<g id="ARC_60_">
	<path class="st1" d="M333,209.7"/>
</g>
</svg>
